<svg id="Layer_1" xmlns="http://www.w3.org/2000/svg" viewBox="0 0 1920 1080"><style>.st0{fill:#c8c199}.st1{fill:#0c75bc}.st2{fill:#bf2579}.st3{fill:#c89c2c}.st4{fill:#8673b3}.st5{fill:#8fb6bf}.st10{fill:#fff}.st11{fill:#68bfe5}.st13{fill:#089db7}.st14{fill:none}.st15{enable-background:new}.st16{fill:#0b0a0d}.st17{font-family:&apos;Slate-BoldCondensed&apos;}.st18{font-size:30.2724px}.st19{fill:#0b0a0c}.st20{font-size:34.5106px}.st21{font-size:32.0888px}.st23{font-size:36.3261px}</style><path class="st0" d="M1009.4 761.4h10.7v103.9h-10.7z"/><path transform="rotate(-30 874.229 280.183)" class="st1" d="M868.9 228.2h10.7v103.9h-10.7z"/><path transform="rotate(-60 771.612 379.043)" class="st2" d="M766.3 327.1H777V431h-10.7z"/><path class="st3" d="M677.6 527h103.9v10.7H677.6z"/><path transform="rotate(-29.888 766.193 679.105)" class="st4" d="M714.1 673.7h104.2v10.8H714.1z"/><path transform="rotate(-60 874.205 779.434)" class="st5" d="M822.3 774.1h103.9v10.7H822.3z"/><path d="M1464.8 765c26.7 0 48.2-21.7 48.2-48.2V413.5c0-26.7-21.7-48.2-48.2-48.2h-196.6c-5 .2-9.6 2.1-13.5 5.3-7.6 6.5-7.6 15.9-7.5 17.3l-.2 145.4c-.1 6-.4 13.9-1.4 23.1-2 18-6 35.8-11.9 52.8-2.7 7.6-11.6 31-30.6 56.8-12.2 16.7-49.5 62.8-115.5 84.9-16.8 5.6-34.2 9.3-52 10.9l429.2 3.2z" opacity=".2" fill="#68bfe5"/><path fill="#019bb3" d="M1009.4 191.5h10.7V299h-10.7z"/><circle cx="1013.7" cy="527.7" r="229.1" fill="#eeeced" opacity=".6"/><circle class="st10" cx="1014.3" cy="528.2" r="175.2"/><path class="st11" d="M1014.3 704.5c-97.4 0-176.3-78.9-176.3-176.3s78.9-176.3 176.3-176.3 176.3 78.9 176.3 176.3c0 46.7-18.6 91.7-51.7 124.6-32.9 33.2-77.8 51.8-124.6 51.7zm0-350.4c-96.1 0-174.1 77.9-174.1 174.1s77.9 174.1 174.1 174.1 174.1-77.9 174.1-174.1c0-46.2-18.3-90.5-51-123.1-32.5-32.7-76.8-51.1-123.1-51z"/><ellipse class="st10" cx="1014.3" cy="528.2" rx="133.8" ry="133.8"/><path class="st11" d="M1014.3 663.1c-74.4 0-134.9-60.3-134.9-134.9s60.3-134.9 134.9-134.9 134.9 60.3 134.9 134.9c0 35.8-14.2 70.1-39.4 95.3-25.4 25.5-59.6 39.6-95.5 39.6zm0-267.5c-73.2 0-132.6 59.4-132.6 132.6s59.4 132.6 132.6 132.6 132.6-59.4 132.6-132.6c0-35.2-14-68.9-38.9-93.8-24.7-24.9-58.4-38.9-93.7-38.8z"/><path class="st11" d="M1013.6 767.8c-132.6.6-240.5-106.2-241.1-238.7s106.2-240.4 238.7-241h9v10.7h-6.6c-126.5 0-229.1 102.5-229.1 229S886.8 757 1013.3 757l21-.8.4 10.7-21.1.9z"/><ellipse transform="rotate(-45.001 1014.28 939.11)" class="st10" cx="1014.3" cy="939.1" rx="88.4" ry="88.4"/><path class="st0" d="M1014.3 1028.7c-49.4 0-89.7-40.2-89.7-89.7s40.2-89.7 89.7-89.7 89.7 40.2 89.7 89.7-40.2 89.7-89.7 89.7zm0-176.8c-48.1 0-87.2 39.1-87.2 87.2s39.1 87.2 87.2 87.2 87.2-39.1 87.2-87.2-39.1-87.2-87.2-87.2z"/><circle class="st10" cx="811.1" cy="177.1" r="88.4"/><path class="st1" d="M811.2 266.7c-32.1.1-61.8-17-77.8-44.9-24.7-42.8-10-97.7 32.8-122.4 42.9-24.8 97.7-10.1 122.5 32.7 24.8 42.9 10.1 97.7-32.7 122.5-13.7 8-29.1 12.1-44.8 12.1zm-.3-176.8c-15.3 0-30.2 4-43.4 11.6-41.7 24.1-55.9 77.5-32 119.1 24.1 41.7 77.4 56 119.1 32 41.7-24.1 56-77.4 32-119.1-15.7-27-44.5-43.6-75.7-43.6z"/><circle class="st10" cx="662.7" cy="325.7" r="88.4"/><path class="st2" d="M662.6 415.4c-15.7 0-31.1-4.1-44.6-12-42.8-24.7-57.5-79.6-32.8-122.4s79.6-57.5 122.5-32.8c42.8 24.7 57.5 79.6 32.8 122.4-16.2 27.7-45.9 44.8-77.9 44.8zm-43.5-14.1c41.7 24.1 95 9.8 119.1-32s9.8-95-32-119.1c-41.7-24.1-95-9.8-119.1 32-24 41.7-9.7 95 32 119.1-.1 0 0 0 0 0z"/><circle class="st10" cx="608.2" cy="528.7" r="88.4"/><path class="st3" d="M608.2 618.3c-49.4 0-89.7-40.2-89.7-89.7s40.2-89.6 89.7-89.6 89.6 40.2 89.6 89.6c0 49.5-40.2 89.7-89.6 89.7zm0-176.8c-48.1 0-87.2 39.1-87.2 87.2s39.2 87.1 87.2 87.1 87.2-39.1 87.2-87.2c0-48-39.1-87.1-87.2-87.1z"/><circle class="st10" cx="663.2" cy="731.5" r="88.4"/><path class="st4" d="M663.3 821.1c-32.1.1-61.8-17-77.8-44.9-24.7-42.8-10-97.7 32.8-122.4 43.2-24.2 97.8-8.7 122 34.6 23.7 42.4 9.3 95.9-32.4 120.8l-.6-1.1.6 1.1c-13.5 7.8-28.9 11.9-44.6 11.9zm-.2-176.8c-15.3 0-30.2 4-43.4 11.7-41.7 24.1-55.9 77.5-32 119.2 24.1 41.7 77.5 55.9 119.1 31.9 41.7-24.1 55.9-77.5 31.9-119.1-11.6-20.2-30.6-34.7-52.9-40.7-7.4-2-15-3-22.7-3z"/><circle class="st10" cx="812" cy="879.8" r="88.4"/><path class="st5" d="M811.7 969.4c-15.7 0-31.1-4.1-44.6-12-42.8-24.7-57.5-79.6-32.8-122.4 24.7-42.8 79.6-57.5 122.4-32.8 42.9 24.8 57.5 79.5 32.8 122.5l-1.1-.7 1.1.7c-16 27.7-45.7 44.8-77.8 44.7zm.4-176.8c-7.7 0-15.3 1.1-22.8 3-22.3 6-41.4 20.6-53 40.6-24.1 41.7-9.6 95 32 119.2 41.6 24.1 95 9.8 119.1-32 24.1-41.7 9.8-95-32-119.1-13.1-7.7-28.1-11.7-43.3-11.7z"/><path class="st11" d="M1519.4 770.4l-484.7-3.5-.4-10.7c17.2-1.6 34.2-5.2 50.7-10.6 59.9-20 96.4-60.6 112.8-83 12.5-16.9 22.5-35.6 29.8-55.4 5.8-16.7 9.8-34 11.6-51.6.9-7.5 1.3-15.1 1.4-22.5l.2-145.3c-.1-3.1.4-13.8 9.4-21.5 4.8-4 10.6-6.4 16.8-6.6h252.5c29.6.1 53.6 24.1 53.6 53.6v303.4c-.1 29.8-24.2 53.7-53.7 53.7zm-433.1-13.8l433.1 3.1c23.6-.1 42.8-19.2 42.8-42.8V413.5c0-23.6-19.2-42.8-42.8-42.8h-252.1c-3.7.1-7.3 1.5-10.1 3.9-5.5 4.8-5.7 11.7-5.6 13.1v.1l-.2 145.5c-.1 7.9-.7 15.8-1.4 23.6-2 18.4-6.1 36.6-12.2 54.1-7.6 20.8-18.2 40.3-31.2 58.2-17.1 23.4-55.2 65.8-118.1 86.8l-2.2.6z"/><path class="st5" d="M783.2 912.5c-.2 0-.5-.1-.8-.3l-5.4-5.4c-.3-.3-.3-.9-.2-1.2l4-7-2.6-4.4-8.1-.1c-.4 0-.9-.3-1-.8l-1.8-7.4c-.1-.4.1-.9.4-1.1l7-4.3v-5.1l-7-4.2c-.3-.2-.6-.6-.4-1.1l2-7.4c.1-.4.4-.8 1-.8l8.1-.1 2.5-4.4-3.9-7.3c-.2-.3-.1-.9.2-1.2l5.3-5.4c.3-.3.8-.4 1.2-.2l7.3 4 4.4-2.6.1-8.1c0-.4.3-.9.8-1l7.4-1.7c.4-.1.9.1 1.1.4l4.2 7h5.2l4.3-7c.2-.3.6-.5 1.1-.4l7.4 2c.4.1.8.4.8 1l.1 8 4.4 2.5 7-3.9c.3-.2.9-.2 1.2.2l5.4 5.3c.3.3.4.8.2 1.2l-3.9 7.3 2.5 4.4 8.3.1c.4 0 .8.3 1 .8l2.3 7.4c.1.4-.1.9-.4 1.2l-6.6 4.2v5.2l6.6 4.3c.3.2.5.8.4 1.2l-2.3 7.4c-.1.4-.4.8-1 .8l-8.1.1-2.7 4.4 3.9 7c.2.4.1.9-.2 1.2l-5.4 5.4c-.3.3-.8.4-1.2.2l-7-3.9-5 2.8-1-1.7 5.4-3c.3-.2.6-.2 1 0l6.9 3.8 4.4-4.3-3.8-6.8c-.2-.3-.2-.7 0-1.1l3.2-5.4c.2-.3.4-.4.9-.4l8-.1 1.8-6-6.5-4.2c-.3-.2-.4-.4-.4-.9v-6.3c0-.3.2-.6.4-.9l6.4-4-1.8-6-8.1-.1c-.3 0-.6-.2-.9-.4l-3-5.4c-.2-.3-.2-.6 0-1l3.8-7-4.3-4.2-6.9 3.8c-.3.2-.6.2-1 0l-5.4-3c-.3-.2-.4-.4-.5-.9l-.1-7.9-6-1.6-4.3 6.9c-.2.3-.4.4-.9.4h-6.3c-.3 0-.6-.2-.9-.4l-4.1-6.9-6 1.4-.1 7.9c0 .3-.2.7-.4.9l-5.4 3.2c-.3.2-.6.2-1.1 0l-7-3.9-4.2 4.3 3.8 7c.2.3.2.6 0 1l-3.1 5.4c-.2.3-.4.4-.9.4l-7.9.1-1.6 6 6.9 4.1c.3.2.4.4.4.9v6.3c0 .3-.2.7-.4.9l-6.9 4.2 1.4 6 7.9.1c.3 0 .6.2.9.4l3.2 5.4c.2.3.2.8 0 1.1l-4 6.8 4.4 4.3 7-3.8c.3-.2.6-.2 1 0l5.4 3.2-1.1 1.7-5-2.9-7.3 3.9c.4-.5.2-.5 0-.5z"/><path class="st5" d="M791.3 883.4c-4 0-7.3-3.2-7.3-7.3s3.2-7.3 7.3-7.3 7.3 3.2 7.3 7.3c-.2 4.1-3.3 7.3-7.3 7.3zm0-12.3c-2.9 0-5.2 2.3-5.2 5.2s2.3 5.2 5.2 5.2 5.2-2.3 5.2-5.2c0-3-2.4-5.2-5.2-5.2zM830.7 873.1c-4 0-7.3-3.2-7.3-7.3s3.2-7.3 7.3-7.3 7.3 3.2 7.3 7.3c-.2 4-3.3 7.3-7.3 7.3zm0-12.5c-2.9 0-5.2 2.4-5.2 5.2s2.4 5.2 5.2 5.2 5.2-2.4 5.2-5.2c0-2.9-2.4-5.2-5.2-5.2zM809.9 862.7c-4 0-7.3-3.2-7.3-7.3s3.2-7.3 7.3-7.3 7.3 3.2 7.3 7.3c-.2 4.1-3.3 7.2-7.3 7.3zm0-12.4c-2.9 0-5.2 2.3-5.2 5.2s2.3 5.2 5.2 5.2 5.2-2.3 5.2-5.2c0-2.8-2.3-5.2-5.2-5.2z"/><path class="st5" d="M808.8 861.6h1.9V926h-1.9zM819.2 890.8h-1.9v-12.9l8.4-8.7 1.5 1.5-8 8zM802.6 926h-2v-37.4l-6-7.7 1.5-1.2 6.5 8.3zM832.8 893.8c-4 0-7.3-3.3-7.3-7.3s3.2-7.3 7.3-7.3 7.3 3.2 7.3 7.3c-.2 4.1-3.3 7.3-7.3 7.3zm0-12.4c-2.9 0-5.2 2.3-5.2 5.2s2.3 5.2 5.2 5.2 5.2-2.3 5.2-5.2c0-2.9-2.4-5.2-5.2-5.2z"/><path class="st5" d="M819.2 926h-1.9v-25.8l10.6-10.2 1.4 1.4-10.1 9.7z"/><ellipse transform="rotate(-45.001 1014.897 122.508)" class="st10" cx="1014.9" cy="122.5" rx="88.4" ry="88.4"/><path d="M1014.9 212.1c-49.4 0-89.7-40.2-89.7-89.7s40.2-89.7 89.7-89.7 89.7 40.2 89.7 89.7-40.3 89.7-89.7 89.7zm0-176.8c-48.1 0-87.2 39.1-87.2 87.2s39.1 87.2 87.2 87.2 87.2-39.1 87.2-87.2-39.2-87.2-87.2-87.2z" fill="#199fb7"/><path class="st13" d="M993.2 122.3c-4.2 0-7.6-3.4-7.6-7.6s3.4-7.6 7.6-7.6 7.6 3.4 7.6 7.6-3.4 7.6-7.6 7.6zm0-13.1c-3.1 0-5.5 2.5-5.5 5.5 0 3.1 2.5 5.5 5.5 5.5 3.1 0 5.5-2.5 5.5-5.5s-2.5-5.5-5.5-5.5zM1032.7 126.3c-4.2 0-7.6-3.4-7.6-7.6s3.4-7.6 7.6-7.6 7.6 3.4 7.6 7.6c-.1 4.1-3.4 7.6-7.6 7.6zm0-13.2c-3.1 0-5.5 2.5-5.5 5.5 0 3.1 2.5 5.5 5.5 5.5s5.5-2.5 5.5-5.5c.1-3-2.4-5.5-5.5-5.5zM1033 147c-4.2 0-7.6-3.4-7.6-7.6s3.4-7.6 7.6-7.6 7.6 3.4 7.6 7.6c-.1 4.2-3.4 7.6-7.6 7.6zm0-13.1c-3.1 0-5.5 2.5-5.5 5.5s2.5 5.5 5.5 5.5c3.1 0 5.5-2.5 5.5-5.5s-2.5-5.5-5.5-5.5zM1014 113.8c-4.2 0-7.6-3.4-7.6-7.6s3.4-7.6 7.6-7.6 7.6 3.4 7.6 7.6-3.4 7.6-7.6 7.6zm0-13.2c-3.1 0-5.5 2.5-5.5 5.5 0 3.1 2.5 5.5 5.5 5.5 3.1 0 5.5-2.5 5.5-5.5s-2.5-5.5-5.5-5.5z"/><path class="st13" d="M1012.7 112.8h1.9v58.1h-1.9zM1020.9 141.8h-2v-11.6l8.6-7.8 1.3 1.5-7.9 7.3zM1006.3 137.7h-1.9v-10.8l-8.1-7.1 1.4-1.5 8.6 7.8zM1020.9 158.5h-2v-6.7l8.6-8.6 1.3 1.4-7.9 8z"/><path class="st13" d="M982.4 132.1c-8.3 0-15.1-6.8-15.1-15.1 0-7.6 5.7-14.1 13.2-14.8-.3-1.6-.5-3.4-.5-5 0-12.2 8.9-19.3 17.6-20.8 8.3-1.4 18.5 2 22.9 12.5 4.4-3.1 10.2-3.6 15.2-1.3 5.3 2.4 8.7 7.8 8.7 13.7 0 .4-.1.8-.1 1.2 1.1-.2 2.1-.3 3.1-.3 8.3 0 15.1 6.7 15.1 15.1s-6.7 15.1-15.1 15.1h-2v-1.9h2c7.3-.3 12.8-6.4 12.5-13.5-.3-6.8-5.7-12.1-12.5-12.5-1.4 0-2.7.2-4 .7l-1.6.5.3-1.7c.2-.8.3-1.6.3-2.4 0-5.1-2.9-9.6-7.6-11.8-4.7-2.3-10.2-1.5-14.1 1.8l-1.1 1-.4-1.4c-3.7-10.4-13.2-13.8-21.1-12.5-7.9 1.3-15.8 7.7-15.8 18.9 0 2 .3 3.8.8 5.7l.3 1.2-1.2.1c-7.3.1-13 6-13 13.1.1 7.3 6 13 13.1 13 .3 0 .7 0 .9-.1h16.1v2H983c-.2-.5-.4-.5-.6-.5z"/><path class="st13" d="M1020.1 94.9c-.1-1.6-.5-3.3-1.2-4.8l1.8-.9c.8 1.7 1.3 3.6 1.4 5.4l-2 .3zM1042.1 109.2l-1.7-1c1.1-1.8 1.7-3.8 2-5.9l2 .2c-.4 2.3-1.3 4.6-2.3 6.7zM1004.4 141.8h1.9v4.2h-1.9zM1004.4 150.1h1.9v4.2h-1.9zM1018.9 162.6h1.9v4.2h-1.9zM1004.4 158.5h1.9v4.2h-1.9zM987.2 105c-1.6-.7-3.4-1.1-5.1-1.1v-2c2 0 4 .4 5.9 1.2l-.8 1.9z"/><path class="st1" d="M847.6 221.2h-72.5c-2.2 0-3.9-1.7-3.9-3.9v-57.9c0-2.2 1.7-3.9 3.9-3.9h72.5c2.2 0 3.9 1.7 3.9 3.9v57.9c0 2.1-1.7 3.9-3.9 3.9zm-72.5-63.7c-1.1 0-1.8.9-1.8 1.8v57.9c0 1.1.9 1.8 1.8 1.8h72.5c1.1 0 1.8-.9 1.8-1.8v-57.9c0-1.1-.9-1.8-1.8-1.8h-72.5z"/><path class="st1" d="M811.3 194.2c-5.2 0-9.4-4.2-9.4-9.4s4.2-9.4 9.4-9.4 9.4 4.2 9.4 9.4-4.2 9.4-9.4 9.4zm0-16.8c-4 0-7.4 3.4-7.4 7.4s3.4 7.4 7.4 7.4 7.4-3.4 7.4-7.4c.1-4-3.3-7.4-7.4-7.4zM838.1 156.8H836v-9.5c0-13.7-11.1-24.7-24.7-24.7-13.7 0-24.7 10.9-24.7 24.7v9.5h-2v-9.5c-.2-14.7 11.6-26.9 26.3-27.1s26.9 11.6 27.1 26.3v10.3h.1z"/><path class="st1" d="M812.1 212.9h-1.4c-1.1 0-1.8-.8-1.8-1.8v-17c0-1.1.8-1.8 1.8-1.8h1.4c1.1 0 1.8.8 1.8 1.8v17c-.1 1-.9 1.8-1.8 1.8"/><path class="st4" d="M686.1 776.5h-54.4c-.5 0-1.1-.4-1.1-1.1v-87.9c0-.5.4-1.1 1.1-1.1h54.4c.5 0 1.1.4 1.1 1.1v15.3h-2v-14.3h-52.4v85.8h52.3v-18.1h2v19.2c.1.7-.4 1.1-1 1.1.1 0 0 0 0 0z"/><path class="st4" d="M677.7 753.4c-13.2 0-24.1-10.3-24.1-23s10.7-23 24.1-23 24.1 10.3 24.1 23-10.9 23-24.1 23zm0-43.9c-12.1 0-22 9.4-22 20.9s9.9 20.9 22 20.9 22-9.4 22-20.9c0-11.4-9.8-20.9-22-20.9z"/><path transform="rotate(-45.001 699.636 755.652)" class="st4" d="M698.7 745.3h1.9V766h-1.9z"/><path class="st4" d="M640 703.3h23v1.9h-23zM640 709.7h14.6v1.9H640zM640 718h8.3v1.9H640zM640 726.3h8.3v1.9H640zM640 732.6h8.3v1.9H640zM668.3 733.6h1.9v6.3h-1.9zM676.6 719h1.9v20.9h-1.9zM685.1 727.3h1.9v12.6h-1.9zM641.1 758.7h2.1v8.3h-2.1zM647.4 752.4h1.9V767h-1.9zM655.8 756.7h1.9v10.5h-1.9zM664.2 763h1.9v4.2h-1.9zM670.4 758.7h1.9v8.3h-1.9z"/><path class="st0" d="M1056.7 958.6h-16.8v-1.9h16.8c1.7 0 3.1-1.4 3.1-3.1V920c0-1.7-1.4-3.1-3.1-3.1h-10.5V915h10.4c2.8-.1 5.2 2.3 5.2 5.1v33.6c.1 2.8-2.3 5.2-5.1 5.2.1-.3 0-.3 0-.3zM989.7 958.6h-16.8c-2.8 0-5.2-2.3-5.2-5.1v-33.6c0-2.8 2.3-5.2 5.1-5.2h10.5v2h-10.4c-1.7 0-3.1 1.4-3.1 3.1v33.6c0 1.7 1.4 3.1 3.1 3.1H989.8l-.1 2.1zM1041 937.7h-52.2v-41.8h52.2v41.8zm-50.3-2.1h48.2v-37.7h-48.2v37.7z"/><path class="st0" d="M1041 968h-2.1v-19.8h-48.2V968h-1.9v-21.9h52.2zM977.2 935.6h75.3v1.9h-75.3zM978.2 945.1h1.9v4.2h-1.9z"/><path class="st0" d="M1007.6 953.5h1.9v18.9h-1.9zM999.3 953.5h1.9v31.3h-1.9zM1018 953.5h1.9v29.3h-1.9zM1028.5 953.5h1.9v20.9h-1.9zM1038.9 953.5h2v16.8h-2zM988.8 953.5h1.9v14.6h-1.9z"/><path class="st3" d="M600.3 572.7l-9-2.3-.2-8.8-4.5-2.6-7.8 4.3-.1-.1-.1.1-6.6-6.6 4.4-7.8-2.7-4.4-9-.2-2.7-8.9 7.4-4.7v-5.2l-7.4-4.8 2.7-8.9 9-.2 2.7-4.6-4.3-7.8 6.5-6.6 7.9 4.4 4.6-2.7.2-9 9-2.2 4.6 7.8h5.2l4.8-7.8 9 2.3.2 8.8 4.5 2.7 7.9-4.3 6.6 6.6-4.4 7.8 2.7 4.4 9 .2 2.8 9-7.4 4.7v5.2l7.4 4.8-2.7 8.9-9 .2-2.7 4.4 4.3 7.8-6.5 6.6-7.9-4.4-4.6 2.7-.2 9-9 2.2-4.6-7.8H605l-4.7 7.8zm3.7-9.6h7.5l4.4 7.5 6-1.4.2-8.6 6.5-3.8 7.6 4.2 4.3-4.4-4.2-7.5 3.8-6.5 8.6-.2 1.8-6-6.9-4.6v-7.4l6.9-4.4-1.8-6-8.6-.2-3.8-6.5 4.2-7.5-4.4-4.4-7.6 4.2-6.5-3.8-.2-8.3-6-1.6-4.6 7.5h-7.5l-4.4-7.5-6 1.4-.2 8.6-6.5 3.8-7.6-4.2-4.3 4.4 4.2 7.5-3.8 6.5-8.6.2-1.8 6 6.9 4.5v7.4l-6.9 4.4 1.8 6 8.6.2 3.8 6.5-4.2 7.5 4.4 4.4.1-.1.1.1 7.5-4.1 6.5 3.8.2 8.3 6 1.6 4.5-7.5z"/><path class="st3" d="M607.6 553.3c-14 0-25.1-11.3-25.1-25.1 0-14 11.3-25.1 25.1-25.1 14 0 25.1 11.3 25.1 25.1.1 13.9-11.2 25.1-25.1 25.1zm0-48.3c-12.8 0-23.2 10.4-23.2 23.2s10.4 23.2 23.2 23.2 23.2-10.4 23.2-23.2c-.1-12.8-10.4-23.2-23.2-23.2z"/><path class="st3" d="M607.6 535.9c-4.2 0-7.7-3.4-7.7-7.6s3.4-7.7 7.6-7.7 7.7 3.4 7.7 7.6c0 4.2-3.4 7.6-7.6 7.7zm0-13.3c-3.1 0-5.6 2.5-5.6 5.6s2.5 5.6 5.6 5.6 5.6-2.5 5.6-5.6c0-3.1-2.5-5.6-5.6-5.6z"/><path class="st2" d="M691.8 344.2h-60.7c-.5 0-1.1-.4-1.1-1.1v-14.3c-.1-1.8 1.3-3.4 3.2-3.5h56.1c1.8.1 3.5 1.6 3.5 3.5v14.3c0 .7-.4 1.1-1 1.1zm-59.7-1.9h58.7v-13.2c0-.8-.6-1.4-1.4-1.4h-56c-.8.1-1.3.8-1.2 1.4l-.1 13.2z"/><path class="st2" d="M691.8 361h-60.7c-.5 0-1.1-.4-1.1-1.1v-16.8h2.1v15.7h58.7v-15.7h2V360c0 .6-.4 1-1 1z"/><path class="st2" d="M689.3 377.7h-56c-1.8-.1-3.4-1.6-3.2-3.5V360h2.1v14.3c-.1.8.4 1.4 1.2 1.4h56c.8-.1 1.4-.7 1.4-1.4V360h1.9v14.3c.1 1.9-1.4 3.4-3.4 3.4z"/><path class="st14" d="M635.3 337h6.2"/><path class="st2" d="M635.3 336h6.3v1.9h-6.3z"/><path class="st14" d="M635.3 353.7h6.2"/><path class="st2" d="M635.3 352.7h6.3v1.9h-6.3z"/><path class="st14" d="M635.3 368.4h6.2"/><path class="st2" d="M635.3 367.3h6.3v1.9h-6.3zM671.9 322.4h-2.1v-30.8l9.8-10.1h14.3v2.1h-13.5l-8.5 8.8z"/><path class="st2" d="M688.3 290.5l-1.5-1.3 5.7-6.6-5.7-6.7 1.5-1.4 6.9 8.1zM694.5 308.4l-1.4-1.4 5.5-5.5-5.5-5.7 1.4-1.4 7.1 7.2zM668.1 277.1l-6.8-5.7-6.5 5.7-1.3-1.5 7.3-6.3c.3-.3 1-.3 1.3 0l7.5 6.3-1.5 1.5z"/><path class="st2" d="M660.4 270h1.9v52.3h-1.9zM680.2 322.4h-2v-14.6l7.7-7.4h14.3v2h-13.5l-6.5 6.3zM653 322.4h-2v-30l-8.6-8.8H629v-2.1h14.2l9.8 10.1z"/><path class="st2" d="M634.5 290.5l-6.8-7.9 6.8-8.1 1.5 1.4-5.7 6.7 5.7 6.6zM628.2 308.4l-6.9-6.8 6.9-7.2 1.5 1.4-5.6 5.7 5.6 5.5z"/><path class="st2" d="M644.7 322.4h-2.1v-13.7l-6.3-6.3h-13.6v-2h14.4l7.6 7.4z"/><g class="st15"><path class="st16" d="M351.8 302.5v-19.2h4.1v19.2h-4.1zM369.2 302.5l-5.8-12.3v12.3h-3.8v-19.2h4.1l5.6 11.8v-11.8h3.9v19.2h-4zM380.9 286.8v4.6h5.6v3.6h-5.6v7.5h-4.1v-19.2H387v3.5h-6.1zM397.6 302.5l-3.1-7.4h-1.2v7.4h-4.1v-19.2h5.8c1 0 1.9.1 2.7.3.8.2 1.5.5 2 .9.6.5 1.1 1.1 1.4 1.8.3.7.5 1.6.5 2.7 0 .7-.1 1.4-.2 2-.2.6-.4 1.1-.7 1.5-.3.4-.6.8-1 1.2s-.8.6-1.3.8l3.8 8h-4.6zm-.2-13.2c0-.9-.2-1.5-.7-2-.5-.4-1.2-.7-2.2-.7h-1.2v5.4h1.2c.9 0 1.6-.2 2.1-.7.6-.4.8-1.1.8-2zM413.9 302.5l-1-4h-5.1l-1 4h-4.2l5.1-19.2h5.6l5.1 19.2h-4.5zm-3.5-15.4l-1.9 8.2h3.7l-1.8-8.2zM430.9 296.8c0 .9-.2 1.8-.5 2.5s-.8 1.4-1.4 1.9-1.3.9-2.1 1.2-1.7.4-2.6.4c-.8 0-1.5-.1-2.1-.3-.6-.2-1.2-.4-1.7-.6s-.9-.5-1.2-.8c-.3-.3-.6-.5-.7-.7l2.1-3.1.7.7c.3.3.5.4.9.6.3.2.6.3 1 .4.4.1.7.1 1.1.1.4 0 .8 0 1.1-.1.3-.1.5-.2.7-.4.2-.2.3-.4.4-.6.1-.2.1-.5.1-.7 0-.3-.1-.5-.2-.8-.1-.2-.3-.4-.5-.7-.2-.2-.5-.4-.8-.6-.3-.2-.7-.4-1.1-.6-.8-.4-1.5-.8-2.1-1.2-.6-.4-1.1-.8-1.5-1.2-.4-.4-.7-.9-.9-1.5-.2-.6-.3-1.2-.3-2 0-.9.2-1.7.5-2.4s.8-1.3 1.3-1.8c.6-.5 1.2-.9 2-1.1.7-.3 1.6-.4 2.4-.4.9 0 1.6.1 2.3.3s1.2.4 1.7.6c.5.2.8.5 1.1.7.3.2.4.4.5.5l-2.1 3-.6-.6c-.2-.2-.5-.4-.8-.5-.3-.1-.6-.3-.9-.4-.3-.1-.7-.1-1-.1-.7 0-1.2.2-1.6.5-.4.3-.5.8-.5 1.3 0 .3 0 .5.1.7.1.2.2.4.4.6s.5.4.8.6c.3.2.7.4 1.1.6.7.3 1.4.7 2 1 .6.4 1.1.8 1.6 1.2.4.5.8 1 1 1.6.2.7.3 1.4.3 2.2zM440 286.8v15.7h-4.2v-15.7h-4.1v-3.5h12.4v3.5H440zM454.4 302.5l-3.1-7.4h-1.2v7.4H446v-19.2h5.8c1 0 1.9.1 2.7.3.8.2 1.5.5 2 .9.6.5 1.1 1.1 1.4 1.8.3.7.5 1.6.5 2.7 0 .7-.1 1.4-.2 2-.2.6-.4 1.1-.7 1.5-.3.4-.6.8-1 1.2s-.8.6-1.3.8l3.8 8h-4.6zm-.2-13.2c0-.9-.2-1.5-.7-2-.5-.4-1.2-.7-2.2-.7h-1.2v5.4h1.2c.9 0 1.6-.2 2.1-.7.5-.4.8-1.1.8-2zM470.6 283.3h4.1v12c0 .7 0 1.3-.1 1.8l-.3 1.5c-.1.4-.3.9-.5 1.2-.2.4-.4.7-.7 1.1-.6.6-1.3 1.1-2.1 1.4-.8.3-1.9.5-3.1.5-1.2 0-2.2-.1-3.1-.4-.9-.3-1.6-.8-2.1-1.5-.3-.3-.5-.6-.7-1-.2-.4-.3-.8-.5-1.2s-.2-.9-.3-1.5c-.1-.6-.1-1.2-.1-1.9v-12h4.1v12.4c0 .7.1 1.2.2 1.6.1.4.3.8.5 1 .5.5 1.2.8 2 .8.4 0 .7-.1 1.1-.2s.7-.3.9-.6c.2-.3.4-.6.5-1.1.1-.4.2-1 .2-1.6v-12.3zM491.5 298.3c-.1.4-.4.8-.7 1.3s-.7 1-1.2 1.5-1.2.9-1.9 1.2-1.7.5-2.7.5c-1.1 0-2.2-.2-3.1-.6-.9-.4-1.7-1-2.4-1.8s-1.2-1.8-1.6-3.1c-.4-1.2-.6-2.7-.6-4.4 0-1.7.2-3.2.6-4.4.4-1.3 1-2.3 1.7-3.1.7-.8 1.5-1.5 2.5-1.9 1-.4 2-.6 3.1-.6 1 0 1.9.1 2.7.4.7.3 1.3.6 1.8 1s.9.9 1.2 1.3c.3.5.5.9.7 1.4l-3.4 1.8c0-.2-.1-.4-.3-.7-.1-.3-.3-.5-.5-.8s-.5-.5-.8-.6c-.3-.2-.8-.3-1.2-.3-1.2 0-2.1.5-2.7 1.6-.6 1-.9 2.6-.9 4.7s.3 3.7 1 4.8 1.5 1.6 2.6 1.6c.5 0 1-.1 1.3-.3.4-.2.7-.4.9-.7.2-.3.4-.5.5-.8.1-.3.2-.5.3-.7l3.1 1.7zM500.1 286.8v15.7h-4.2v-15.7h-4.1v-3.5h12.4v3.5h-4.1zM515.5 283.3h4.1v12c0 .7 0 1.3-.1 1.8l-.3 1.5c-.1.4-.3.9-.5 1.2-.2.4-.4.7-.7 1.1-.6.6-1.3 1.1-2.1 1.4-.8.3-1.9.5-3.1.5-1.2 0-2.2-.1-3.1-.4-.9-.3-1.6-.8-2.1-1.5-.3-.3-.5-.6-.7-1-.2-.4-.3-.8-.5-1.2s-.2-.9-.3-1.5c-.1-.6-.1-1.2-.1-1.9v-12h4.1v12.4c0 .7.1 1.2.2 1.6.1.4.3.8.5 1 .5.5 1.2.8 2 .8.4 0 .7-.1 1.1-.2s.7-.3.9-.6c.2-.3.4-.6.5-1.1.1-.4.2-1 .2-1.6v-12.3zM531.5 302.5l-3.1-7.4h-1.2v7.4h-4.1v-19.2h5.8c1 0 1.9.1 2.7.3.8.2 1.5.5 2 .9.6.5 1.1 1.1 1.4 1.8.3.7.5 1.6.5 2.7 0 .7-.1 1.4-.2 2-.2.6-.4 1.1-.7 1.5-.3.4-.6.8-1 1.2s-.8.6-1.3.8l3.8 8h-4.6zm-.2-13.2c0-.9-.2-1.5-.7-2-.5-.4-1.2-.7-2.2-.7h-1.2v5.4h1.2c.9 0 1.6-.2 2.1-.7.6-.4.8-1.1.8-2zM538.3 302.5v-19.2H549v3.5h-6.5v3.9h6v3.6h-6v4.6h6.7v3.6h-10.9z"/></g><g class="st15"><path class="st16" d="M365.6 331.6l-.1-14.1-3.2 14.1h-3.7l-3.2-14.1-.1 14.1h-3.8l.5-19.2h5.8l2.8 13.5 2.9-13.5h5.6l.5 19.2h-4zM382.3 331.6l-1-4h-5.1l-1 4H371l5.1-19.2h5.6l5.1 19.2h-4.5zm-3.5-15.5l-1.9 8.2h3.7l-1.8-8.2zM398.2 331.6l-5.8-12.3v12.3h-3.8v-19.2h4.1l5.6 11.8v-11.8h3.9v19.2h-4zM415.2 331.6l-1-4h-5.1l-1 4h-4.2l5.1-19.2h5.6l5.1 19.2h-4.5zm-3.5-15.5l-1.9 8.2h3.7l-1.8-8.2zM431.1 317.7c-.1-.2-.2-.4-.3-.7-.1-.2-.3-.5-.5-.7s-.5-.4-.8-.5c-.3-.1-.7-.2-1.2-.2s-.9.1-1.3.3c-.4.2-.8.6-1.1 1.1-.3.5-.6 1.2-.7 2-.2.8-.3 1.8-.3 2.9 0 1.2.1 2.1.3 2.9s.4 1.4.7 1.9c.3.5.6.8 1 1.1s.8.3 1.2.3c.3 0 .6 0 .8-.1.2-.1.4-.1.6-.2.2-.1.3-.2.5-.3l.3-.3V324H428v-3.2h6.5v10.8h-2.8l-.4-1.5-.6.6c-.2.2-.5.4-.8.6s-.7.3-1.1.4-.9.2-1.5.2c-.9 0-1.8-.2-2.6-.6-.8-.4-1.5-1-2.1-1.7s-1.1-1.8-1.4-3c-.3-1.2-.5-2.7-.5-4.5 0-1.7.2-3.2.6-4.5.4-1.3 1-2.3 1.7-3.1.7-.8 1.5-1.4 2.5-1.8s2-.6 3-.6c.7 0 1.4.1 1.9.2.6.1 1.1.3 1.5.5.4.2.8.5 1.1.7l.8.8c.2.3.4.5.5.8l.3.6-3.5 2zM437.4 331.6v-19.2H448v3.5h-6.5v3.9h6v3.6h-6v4.6h6.7v3.6h-10.8zM464.6 331.6l-.1-14.1-3.2 14.1h-3.7l-3.2-14.1-.1 14.1h-3.8l.5-19.2h5.8l2.8 13.5 2.9-13.5h5.6l.5 19.2h-4zM471.8 331.6v-19.2h10.7v3.5H476v3.9h6v3.6h-6v4.6h6.7v3.6h-10.9zM494.9 331.6l-5.8-12.3v12.3h-3.8v-19.2h4.1l5.6 11.8v-11.8h3.9v19.2h-4zM509.1 315.8v15.7h-4.2v-15.7h-4.1v-3.5h12.4v3.5h-4.1z"/></g><g class="st15"><path class="st16" d="M362.7 354.9c0 .9-.2 1.8-.5 2.5s-.8 1.4-1.4 1.9-1.3.9-2.1 1.2-1.7.4-2.6.4c-.8 0-1.5-.1-2.1-.3-.6-.2-1.2-.4-1.7-.6s-.9-.5-1.2-.8c-.3-.3-.6-.5-.7-.7l2.1-3.1.7.7c.3.3.5.4.9.6.3.2.6.3 1 .4.4.1.7.1 1.1.1.4 0 .8 0 1.1-.1.3-.1.5-.2.7-.4.2-.2.3-.4.4-.6.1-.2.1-.5.1-.7 0-.3-.1-.5-.2-.8-.1-.2-.3-.4-.5-.7-.2-.2-.5-.4-.8-.6-.3-.2-.7-.4-1.1-.6-.8-.4-1.5-.8-2.1-1.2-.6-.4-1.1-.8-1.5-1.2-.4-.4-.7-.9-.9-1.5-.2-.6-.3-1.2-.3-2 0-.9.2-1.7.5-2.4s.8-1.3 1.3-1.8c.6-.5 1.2-.9 2-1.1.7-.3 1.6-.4 2.4-.4.9 0 1.6.1 2.3.3s1.2.4 1.7.6c.5.2.8.5 1.1.7.3.2.4.4.5.5l-2.1 3-.6-.6c-.2-.2-.5-.4-.8-.5-.3-.1-.6-.3-.9-.4-.3-.1-.7-.1-1-.1-.7 0-1.2.2-1.6.5-.4.3-.5.8-.5 1.3 0 .3 0 .5.1.7.1.2.2.4.4.6s.5.4.8.6c.3.2.7.4 1.1.6.7.3 1.4.7 2 1 .6.4 1.1.8 1.6 1.2.4.5.8 1 1 1.6.2.7.3 1.4.3 2.2zM365.1 360.6v-19.2h10.7v3.5h-6.5v3.9h6v3.6h-6v4.6h6.7v3.6h-10.9zM387 360.6l-3.1-7.4h-1.2v7.4h-4.1v-19.2h5.8c1 0 1.9.1 2.7.3.8.2 1.5.5 2 .9.6.5 1.1 1.1 1.4 1.8.3.7.5 1.6.5 2.7 0 .7-.1 1.4-.2 2-.2.6-.4 1.1-.7 1.5-.3.4-.6.8-1 1.2s-.8.6-1.3.8l3.8 8H387zm-.2-13.3c0-.9-.2-1.5-.7-2-.5-.4-1.2-.7-2.2-.7h-1.2v5.4h1.2c.9 0 1.6-.2 2.1-.7.5-.3.8-1 .8-2zM402.4 360.6h-5.5l-5-19.2h4.7l3.2 14.9 3.4-14.9h4.3l-5.1 19.2zM409.2 360.6v-19.2h4.1v19.2h-4.1zM430.2 356.4c-.1.4-.4.8-.7 1.3s-.7 1-1.2 1.5-1.2.9-1.9 1.2-1.7.5-2.7.5c-1.1 0-2.2-.2-3.1-.6-.9-.4-1.7-1-2.4-1.8s-1.2-1.8-1.6-3.1c-.4-1.2-.6-2.7-.6-4.4 0-1.7.2-3.2.6-4.4.4-1.3 1-2.3 1.7-3.1.7-.8 1.5-1.5 2.5-1.9 1-.4 2-.6 3.1-.6 1 0 1.9.1 2.7.4.7.3 1.3.6 1.8 1s.9.9 1.2 1.3c.3.5.5.9.7 1.4l-3.4 1.8c0-.2-.1-.4-.3-.7-.1-.3-.3-.5-.5-.8s-.5-.5-.8-.6c-.3-.2-.8-.3-1.2-.3-1.2 0-2.1.5-2.7 1.6-.6 1-.9 2.6-.9 4.7s.3 3.7 1 4.8 1.5 1.6 2.6 1.6c.5 0 1-.1 1.3-.3.4-.2.7-.4.9-.7.2-.3.4-.5.5-.8.1-.3.2-.5.3-.7l3.1 1.7zM432.2 360.6v-19.2h10.7v3.5h-6.5v3.9h6v3.6h-6v4.6h6.7v3.6h-10.9zM456.5 354.9c0 .9-.2 1.8-.5 2.5s-.8 1.4-1.4 1.9-1.3.9-2.1 1.2-1.7.4-2.6.4c-.8 0-1.5-.1-2.1-.3-.6-.2-1.2-.4-1.7-.6s-.9-.5-1.2-.8c-.3-.3-.6-.5-.7-.7l2.1-3.1.7.7c.3.3.5.4.9.6.3.2.6.3 1 .4.4.1.7.1 1.1.1.4 0 .8 0 1.1-.1.3-.1.5-.2.7-.4.2-.2.3-.4.4-.6.1-.2.1-.5.1-.7 0-.3-.1-.5-.2-.8-.1-.2-.3-.4-.5-.7-.2-.2-.5-.4-.8-.6-.3-.2-.7-.4-1.1-.6-.8-.4-1.5-.8-2.1-1.2-.6-.4-1.1-.8-1.5-1.2-.4-.4-.7-.9-.9-1.5-.2-.6-.3-1.2-.3-2 0-.9.2-1.7.5-2.4s.8-1.3 1.3-1.8c.6-.5 1.2-.9 2-1.1.7-.3 1.6-.4 2.4-.4.9 0 1.6.1 2.3.3s1.2.4 1.7.6c.5.2.8.5 1.1.7.3.2.4.4.5.5l-2.1 3-.6-.6c-.2-.2-.5-.4-.8-.5-.3-.1-.6-.3-.9-.4-.3-.1-.7-.1-1-.1-.7 0-1.2.2-1.6.5-.4.3-.5.8-.5 1.3 0 .3 0 .5.1.7.1.2.2.4.4.6s.5.4.8.6c.3.2.7.4 1.1.6.7.3 1.4.7 2 1 .6.4 1.1.8 1.6 1.2.4.5.8 1 1 1.6.1.7.3 1.4.3 2.2z"/></g><text transform="translate(550.558 351.58)" class="st16 st17 st18"></text><g class="st15"><path class="st19" d="M364.1 508.9l-.1-14.1-3.2 14.1h-3.7l-3.2-14.1-.1 14.1H350l.5-19.2h5.8l2.8 13.5 2.9-13.5h5.6l.5 19.2h-4zM380.8 508.9l-1-4h-5.1l-1 4h-4.2l5.1-19.2h5.6l5.1 19.2h-4.5zm-3.6-15.4l-1.9 8.2h3.7l-1.8-8.2zM396.6 508.9l-5.8-12.3v12.3H387v-19.2h4.1l5.6 11.8v-11.8h3.9v19.2h-4zM413.7 508.9l-1-4h-5.1l-1 4h-4.2l5.1-19.2h5.6l5.1 19.2h-4.5zm-3.6-15.4l-1.9 8.2h3.7l-1.8-8.2zM429.6 495c-.1-.2-.2-.4-.3-.7-.1-.2-.3-.5-.5-.7s-.5-.4-.8-.5c-.3-.1-.7-.2-1.2-.2s-.9.1-1.3.3c-.4.2-.8.6-1.1 1.1-.3.5-.6 1.2-.7 2-.2.8-.3 1.8-.3 2.9 0 1.2.1 2.1.3 2.9s.4 1.4.7 1.9c.3.5.6.8 1 1.1s.8.3 1.2.3c.3 0 .6 0 .8-.1.2-.1.4-.1.6-.2.2-.1.3-.2.5-.3l.3-.3v-3.3h-2.3V498h6.5v10.8h-3l-.4-1.5-.6.6c-.2.2-.5.4-.8.6s-.7.3-1.1.4-.9.2-1.5.2c-.9 0-1.8-.2-2.6-.6-.8-.4-1.5-1-2.1-1.7s-1.1-1.8-1.4-3c-.3-1.2-.5-2.7-.5-4.5 0-1.7.2-3.2.6-4.5.4-1.3 1-2.3 1.7-3.1.7-.8 1.5-1.4 2.5-1.8s2-.6 3-.6c.7 0 1.4.1 1.9.2.6.1 1.1.3 1.5.5.4.2.8.5 1.1.7l.8.8c.2.3.4.5.5.8l.3.6-3.3 2.1zM435.8 508.9v-19.2h10.7v3.5H440v3.9h6v3.6h-6v4.6h6.7v3.6h-10.9zM463.5 499c0 .9-.1 1.7-.2 2.5s-.3 1.5-.6 2.1c-.3.6-.5 1.2-.9 1.7s-.7 1-1.1 1.4c-.8.8-1.8 1.4-2.9 1.7-1.1.3-2.3.5-3.7.5h-4.8v-19.2h5c.7 0 1.4 0 2.1.1l1.8.3c.6.1 1.1.3 1.6.6s.9.6 1.3.9c.8.7 1.4 1.7 1.8 2.9s.6 2.7.6 4.5zm-4.3.2c0-1.1-.1-2.1-.4-3-.2-.8-.6-1.5-1-1.9-.4-.4-.9-.7-1.4-.9-.5-.2-1.2-.3-2-.3h-1v12.1h1c.8 0 1.5-.1 2-.2.5-.2 1-.4 1.4-.9.2-.2.4-.5.6-.8.2-.3.3-.7.4-1.1.1-.4.2-.9.3-1.4 0-.5.1-1 .1-1.6z"/></g><g class="st15"><path class="st19" d="M359.8 537.9l-1-4h-5.1l-1 4h-4.2l5.1-19.2h5.6l5.1 19.2h-4.5zm-3.5-15.4l-1.9 8.2h3.7l-1.8-8.2zM378.4 525.2c0 1.1-.2 2.1-.5 2.9-.4.8-.9 1.5-1.5 2.1-.6.5-1.3.9-2.2 1.1s-1.7.3-2.7.3h-1.4v6.3H366v-19.2h5.5c1.1 0 2.1.1 3 .4s1.6.7 2.2 1.2c.6.6 1 1.2 1.3 2 .3.8.4 1.8.4 2.9zm-4.1 0c0-.6-.1-1.2-.3-1.6-.2-.4-.4-.7-.6-.9-.2-.2-.5-.4-.9-.5-.4-.1-.8-.1-1.2-.1h-1.2v6.3h1.1c1 0 1.7-.2 2.2-.6.3-.2.5-.5.7-1 .1-.5.2-1 .2-1.6zM393.1 525.2c0 1.1-.2 2.1-.5 2.9-.4.8-.9 1.5-1.5 2.1-.6.5-1.3.9-2.2 1.1s-1.7.3-2.7.3h-1.4v6.3h-4.1v-19.2h5.5c1.1 0 2.1.1 3 .4s1.6.7 2.2 1.2c.6.6 1 1.2 1.3 2 .2.8.4 1.8.4 2.9zm-4.2 0c0-.6-.1-1.2-.3-1.6-.2-.4-.4-.7-.6-.9-.2-.2-.5-.4-.9-.5-.4-.1-.8-.1-1.2-.1h-1.2v6.3h1.1c1 0 1.7-.2 2.2-.6.3-.2.5-.5.7-1 .1-.5.2-1 .2-1.6zM395.2 537.9v-19.2h4.1v15.6h6.1v3.6h-10.2zM407.5 537.9v-19.2h4.1v19.2h-4.1zM428.5 533.8c-.1.4-.4.8-.7 1.3s-.7 1-1.2 1.5-1.2.9-1.9 1.2-1.7.5-2.7.5c-1.1 0-2.2-.2-3.1-.6-.9-.4-1.7-1-2.4-1.8s-1.2-1.8-1.6-3.1c-.4-1.2-.6-2.7-.6-4.4 0-1.7.2-3.2.6-4.4.4-1.3 1-2.3 1.7-3.1.7-.8 1.5-1.5 2.5-1.9 1-.4 2-.6 3.1-.6 1 0 1.9.1 2.7.4.7.3 1.3.6 1.8 1s.9.9 1.2 1.3c.3.5.5.9.7 1.4l-3.4 1.8c0-.2-.1-.4-.3-.7-.1-.3-.3-.5-.5-.8s-.5-.5-.8-.6c-.3-.2-.8-.3-1.2-.3-1.2 0-2.1.5-2.7 1.6-.6 1-.9 2.6-.9 4.7s.3 3.7 1 4.8 1.5 1.6 2.6 1.6c.5 0 1-.1 1.3-.3.4-.2.7-.4.9-.7.2-.3.4-.5.5-.8.1-.3.2-.5.3-.7l3.1 1.7zM439.9 537.9l-1-4h-5.1l-1 4h-4.2l5.1-19.2h5.6l5.1 19.2h-4.5zm-3.5-15.4l-1.9 8.2h3.7l-1.8-8.2zM451.5 522.2v15.7h-4.2v-15.7h-4.1v-3.5h12.4v3.5h-4.1zM457.5 537.9v-19.2h4.1v19.2h-4.1zM479.5 528.3c0 1.6-.2 3-.5 4.2-.4 1.2-.9 2.3-1.5 3.1-.7.8-1.5 1.5-2.4 1.9-.9.4-2 .7-3.2.7-1.2 0-2.2-.2-3.2-.7-.9-.4-1.7-1.1-2.4-1.9-.7-.8-1.2-1.9-1.5-3.1-.3-1.2-.5-2.6-.5-4.2s.2-3 .5-4.2.9-2.3 1.5-3.1c.7-.8 1.5-1.5 2.4-1.9s2-.7 3.2-.7c1.2 0 2.2.2 3.2.7s1.7 1.1 2.4 1.9c.7.8 1.2 1.9 1.5 3.1.4 1.2.5 2.6.5 4.2zm-4.3 0c0-1-.1-1.8-.2-2.6s-.3-1.4-.6-2c-.3-.5-.6-1-1-1.3-.4-.3-.9-.4-1.4-.4s-1 .1-1.4.4c-.4.3-.7.7-1 1.3s-.5 1.2-.6 2c-.1.8-.2 1.7-.2 2.6 0 1 .1 1.9.2 2.6.1.8.3 1.4.6 2s.6 1 1 1.2c.4.3.9.4 1.4.4.6 0 1-.1 1.5-.4.4-.3.8-.7 1-1.2s.5-1.2.6-2c0-.8.1-1.6.1-2.6zM491.8 537.9l-5.8-12.3v12.3h-3.8v-19.2h4.1l5.6 11.8v-11.8h3.9v19.2h-4z"/></g><text transform="translate(500.815 537.949)" class="st19 st17 st18"></text><g class="st15"><path class="st19" d="M361.1 561.3c0 .9-.2 1.8-.5 2.5s-.8 1.4-1.4 1.9-1.3.9-2.1 1.2-1.7.4-2.6.4c-.8 0-1.5-.1-2.1-.3-.6-.2-1.2-.4-1.7-.6s-.9-.5-1.2-.8c-.3-.3-.6-.5-.7-.7l2.1-3.1.7.7c.3.3.5.4.9.6.3.2.6.3 1 .4.4.1.7.1 1.1.1.4 0 .8 0 1.1-.1.3-.1.5-.2.7-.4.2-.2.3-.4.4-.6.1-.2.1-.5.1-.7 0-.3-.1-.5-.2-.8-.1-.2-.3-.4-.5-.7-.2-.2-.5-.4-.8-.6-.3-.2-.7-.4-1.1-.6-.8-.4-1.5-.8-2.1-1.2-.6-.4-1.1-.8-1.5-1.2-.4-.4-.7-.9-.9-1.5-.2-.6-.3-1.2-.3-2 0-.9.2-1.7.5-2.4s.8-1.3 1.3-1.8c.6-.5 1.2-.9 2-1.1.7-.3 1.6-.4 2.4-.4.9 0 1.6.1 2.3.3s1.2.4 1.7.6c.5.2.8.5 1.1.7.3.2.4.4.5.5l-2.1 3-.6-.6c-.2-.2-.5-.4-.8-.5-.3-.1-.6-.3-.9-.4-.3-.1-.7-.1-1-.1-.7 0-1.2.2-1.6.5-.4.3-.5.8-.5 1.3 0 .3 0 .5.1.7.1.2.2.4.4.6s.5.4.8.6c.3.2.7.4 1.1.6.7.3 1.4.7 2 1 .6.4 1.1.8 1.6 1.2.4.5.8 1 1 1.6.2.7.3 1.4.3 2.2zM363.5 567v-19.2h10.7v3.5h-6.5v3.9h6v3.6h-6v4.6h6.7v3.6h-10.9zM385.4 567l-3.1-7.4h-1.2v7.4H377v-19.2h5.8c1 0 1.9.1 2.7.3.8.2 1.5.5 2 .9.6.5 1.1 1.1 1.4 1.8.3.7.5 1.6.5 2.7 0 .7-.1 1.4-.2 2-.2.6-.4 1.1-.7 1.5-.3.4-.6.8-1 1.2s-.8.6-1.3.8l3.8 8h-4.6zm-.2-13.2c0-.9-.2-1.5-.7-2-.5-.4-1.2-.7-2.2-.7h-1.2v5.4h1.2c.9 0 1.6-.2 2.1-.7.6-.4.8-1.1.8-2zM400.9 567h-5.5l-5-19.2h4.7l3.2 14.9 3.4-14.9h4.3l-5.1 19.2zM407.7 567v-19.2h4.1V567h-4.1zM428.7 562.8c-.1.4-.4.8-.7 1.3s-.7 1-1.2 1.5-1.2.9-1.9 1.2-1.7.5-2.7.5c-1.1 0-2.2-.2-3.1-.6-.9-.4-1.7-1-2.4-1.8s-1.2-1.8-1.6-3.1c-.4-1.2-.6-2.7-.6-4.4 0-1.7.2-3.2.6-4.4.4-1.3 1-2.3 1.7-3.1.7-.8 1.5-1.5 2.5-1.9 1-.4 2-.6 3.1-.6 1 0 1.9.1 2.7.4.7.3 1.3.6 1.8 1s.9.9 1.2 1.3c.3.5.5.9.7 1.4l-3.4 1.8c0-.2-.1-.4-.3-.7-.1-.3-.3-.5-.5-.8s-.5-.5-.8-.6c-.3-.2-.8-.3-1.2-.3-1.2 0-2.1.5-2.7 1.6-.6 1-.9 2.6-.9 4.7s.3 3.7 1 4.8 1.5 1.6 2.6 1.6c.5 0 1-.1 1.3-.3.4-.2.7-.4.9-.7.2-.3.4-.5.5-.8.1-.3.2-.5.3-.7l3.1 1.7zM430.6 567v-19.2h10.7v3.5h-6.5v3.9h6v3.6h-6v4.6h6.7v3.6h-10.9zM454.9 561.3c0 .9-.2 1.8-.5 2.5s-.8 1.4-1.4 1.9-1.3.9-2.1 1.2-1.7.4-2.6.4c-.8 0-1.5-.1-2.1-.3-.6-.2-1.2-.4-1.7-.6s-.9-.5-1.2-.8c-.3-.3-.6-.5-.7-.7l2.1-3.1.7.7c.3.3.5.4.9.6.3.2.6.3 1 .4.4.1.7.1 1.1.1.4 0 .8 0 1.1-.1.3-.1.5-.2.7-.4.2-.2.3-.4.4-.6.1-.2.1-.5.1-.7 0-.3-.1-.5-.2-.8-.1-.2-.3-.4-.5-.7-.2-.2-.5-.4-.8-.6-.3-.2-.7-.4-1.1-.6-.8-.4-1.5-.8-2.1-1.2-.6-.4-1.1-.8-1.5-1.2-.4-.4-.7-.9-.9-1.5-.2-.6-.3-1.2-.3-2 0-.9.2-1.7.5-2.4s.8-1.3 1.3-1.8c.6-.5 1.2-.9 2-1.1.7-.3 1.6-.4 2.4-.4.9 0 1.6.1 2.3.3s1.2.4 1.7.6c.5.2.8.5 1.1.7.3.2.4.4.5.5l-2.1 3-.6-.6c-.2-.2-.5-.4-.8-.5-.3-.1-.6-.3-.9-.4-.3-.1-.7-.1-1-.1-.7 0-1.2.2-1.6.5-.4.3-.5.8-.5 1.3 0 .3 0 .5.1.7.1.2.2.4.4.6s.5.4.8.6c.3.2.7.4 1.1.6.7.3 1.4.7 2 1 .6.4 1.1.8 1.6 1.2.4.5.8 1 1 1.6.2.7.3 1.4.3 2.2z"/></g><g class="st15"><path class="st16" d="M379.8 721.1v-19.2h4.1v19.2h-4.1zM397.2 721.1l-5.8-12.3v12.3h-3.8v-19.2h4.1l5.6 11.8v-11.8h3.9v19.2h-4zM411.3 705.3V721h-4.2v-15.7H403v-3.5h12.4v3.5h-4.1zM417.3 721.1v-19.2H428v3.5h-6.5v3.9h6v3.6h-6v4.6h6.7v3.6h-10.9zM430.8 721.1v-19.2h4.1v15.6h6.1v3.6h-10.2zM443.1 721.1v-19.2h4.1v15.6h6.1v3.6h-10.2zM455.4 721.1v-19.2h4.1v19.2h-4.1zM472.8 707.2c-.1-.2-.2-.4-.3-.7-.1-.2-.3-.5-.5-.7s-.5-.4-.8-.5c-.3-.1-.7-.2-1.2-.2s-.9.1-1.3.3c-.4.2-.8.6-1.1 1.1-.3.5-.6 1.2-.7 2-.2.8-.3 1.8-.3 2.9 0 1.2.1 2.1.3 2.9s.4 1.4.7 1.9c.3.5.6.8 1 1.1s.8.3 1.2.3c.3 0 .6 0 .8-.1.2-.1.4-.1.6-.2.2-.1.3-.2.5-.3l.3-.3v-3.3h-2.3v-3.2h6.5V721h-2.8l-.4-1.5-.6.6c-.2.2-.5.4-.8.6s-.7.3-1.1.4-.9.2-1.5.2c-.9 0-1.8-.2-2.6-.6-.8-.4-1.5-1-2.1-1.7s-1.1-1.8-1.4-3c-.3-1.2-.5-2.7-.5-4.5 0-1.7.2-3.2.6-4.5.4-1.3 1-2.3 1.7-3.1.7-.8 1.5-1.4 2.5-1.8s2-.6 3-.6c.7 0 1.4.1 1.9.2.6.1 1.1.3 1.5.5.4.2.8.5 1.1.7l.8.8c.2.3.4.5.5.8l.3.6-3.5 2.1zM479 721.1v-19.2h10.7v3.5h-6.5v3.9h6v3.6h-6v4.6h6.7v3.6H479zM502.2 721.1l-5.8-12.3v12.3h-3.8v-19.2h4.1l5.6 11.8v-11.8h3.9v19.2h-4zM516.3 705.3V721h-4.2v-15.7H508v-3.5h12.4v3.5h-4.1z"/></g><g class="st15"><path class="st16" d="M379.8 750.1v-19.2h4.1v19.2h-4.1zM397.2 750.1l-5.8-12.3v12.3h-3.8v-19.2h4.1l5.6 11.8v-11.8h3.9v19.2h-4zM408.8 734.5v4.6h5.6v3.6h-5.6v7.5h-4.1V731H415v3.5h-6.2zM431.4 740.5c0 1.6-.2 3-.5 4.2-.4 1.2-.9 2.3-1.5 3.1-.7.8-1.5 1.5-2.4 1.9-.9.4-2 .7-3.2.7-1.2 0-2.2-.2-3.2-.7-.9-.4-1.7-1.1-2.4-1.9-.7-.8-1.2-1.9-1.5-3.1-.3-1.2-.5-2.6-.5-4.2s.2-3 .5-4.2.9-2.3 1.5-3.1c.7-.8 1.5-1.5 2.4-1.9s2-.7 3.2-.7c1.2 0 2.2.2 3.2.7s1.7 1.1 2.4 1.9c.7.8 1.2 1.9 1.5 3.1.4 1.2.5 2.6.5 4.2zm-4.3 0c0-1-.1-1.8-.2-2.6s-.3-1.4-.6-2c-.3-.5-.6-1-1-1.3-.4-.3-.9-.4-1.4-.4s-1 .1-1.4.4c-.4.3-.7.7-1 1.3s-.5 1.2-.6 2c-.1.8-.2 1.7-.2 2.6 0 1 .1 1.9.2 2.6.1.8.3 1.4.6 2s.6 1 1 1.2c.4.3.9.4 1.4.4.6 0 1-.1 1.5-.4.4-.3.8-.7 1-1.2s.5-1.2.6-2c0-.8.1-1.6.1-2.6zM442.5 750.1l-3.1-7.4h-1.2v7.4h-4.1v-19.2h5.8c1 0 1.9.1 2.7.3.8.2 1.5.5 2 .9.6.5 1.1 1.1 1.4 1.8.3.7.5 1.6.5 2.7 0 .7-.1 1.4-.2 2-.2.6-.4 1.1-.7 1.5-.3.4-.6.8-1 1.2s-.8.6-1.3.8l3.8 8h-4.6zm-.2-13.2c0-.9-.2-1.5-.7-2-.5-.4-1.2-.7-2.2-.7h-1.2v5.4h1.2c.9 0 1.6-.2 2.1-.7.5-.4.8-1.1.8-2zM463.1 750.1L463 736l-3.2 14.1h-3.7l-3.2-14.1-.1 14.1H449l.5-19.2h5.8l2.8 13.5 2.9-13.5h5.6l.5 19.2h-4zM479.8 750.1l-1-4h-5.1l-1 4h-4.2l5.1-19.2h5.6l5.1 19.2h-4.5zm-3.6-15.4l-1.9 8.2h3.7l-1.8-8.2zM491.4 734.4v15.7h-4.2v-15.7h-4.1v-3.5h12.4v3.5h-4.1zM497.4 750.1v-19.2h4.1v19.2h-4.1zM519.4 740.5c0 1.6-.2 3-.5 4.2-.4 1.2-.9 2.3-1.5 3.1-.7.8-1.5 1.5-2.4 1.9-.9.4-2 .7-3.2.7-1.2 0-2.2-.2-3.2-.7-.9-.4-1.7-1.1-2.4-1.9-.7-.8-1.2-1.9-1.5-3.1-.3-1.2-.5-2.6-.5-4.2s.2-3 .5-4.2.9-2.3 1.5-3.1c.7-.8 1.5-1.5 2.4-1.9s2-.7 3.2-.7c1.2 0 2.2.2 3.2.7s1.7 1.1 2.4 1.9c.7.8 1.2 1.9 1.5 3.1.3 1.2.5 2.6.5 4.2zm-4.4 0c0-1-.1-1.8-.2-2.6s-.3-1.4-.6-2c-.3-.5-.6-1-1-1.3-.4-.3-.9-.4-1.4-.4s-1 .1-1.4.4c-.4.3-.7.7-1 1.3s-.5 1.2-.6 2c-.1.8-.2 1.7-.2 2.6 0 1 .1 1.9.2 2.6.1.8.3 1.4.6 2s.6 1 1 1.2c.4.3.9.4 1.4.4.6 0 1-.1 1.5-.4.4-.3.8-.7 1-1.2s.5-1.2.6-2c0-.8.1-1.6.1-2.6zM531.7 750.1l-5.8-12.3v12.3H522v-19.2h4.1l5.6 11.8v-11.8h3.9v19.2h-3.9z"/></g><text transform="translate(541.948 750.135)" class="st16 st17 st18"></text><g class="st15"><path class="st16" d="M393.6 779.2l-.1-14.1-3.2 14.1h-3.7l-3.2-14.1-.1 14.1h-3.8l.5-19.2h5.8l2.8 13.5 2.9-13.5h5.6l.5 19.2h-4zM410.3 779.2l-1-4h-5.1l-1 4H399l5.1-19.2h5.6l5.1 19.2h-4.5zm-3.6-15.4l-1.9 8.2h3.7l-1.8-8.2zM426.2 779.2l-5.8-12.3v12.3h-3.8V760h4.1l5.6 11.8V760h3.9v19.2h-4zM443.2 779.2l-1-4H437l-1 4h-4.2L437 760h5.6l5.1 19.2h-4.5zm-3.6-15.4l-1.9 8.2h3.7l-1.8-8.2zM459.1 765.3c-.1-.2-.2-.4-.3-.7-.1-.2-.3-.5-.5-.7s-.5-.4-.8-.5c-.3-.1-.7-.2-1.2-.2s-.9.1-1.3.3c-.4.2-.8.6-1.1 1.1-.3.5-.6 1.2-.7 2-.2.8-.3 1.8-.3 2.9 0 1.2.1 2.1.3 2.9s.4 1.4.7 1.9c.3.5.6.8 1 1.1s.8.3 1.2.3c.3 0 .6 0 .8-.1.2-.1.4-.1.6-.2.2-.1.3-.2.5-.3l.3-.3v-3.3H456v-3.2h6.5v10.8h-2.8l-.4-1.5-.6.6c-.2.2-.5.4-.8.6s-.7.3-1.1.4-.9.2-1.5.2c-.9 0-1.8-.2-2.6-.6-.8-.4-1.5-1-2.1-1.7s-1.1-1.8-1.4-3c-.3-1.2-.5-2.7-.5-4.5 0-1.7.2-3.2.6-4.5.4-1.3 1-2.3 1.7-3.1.7-.8 1.5-1.4 2.5-1.8s2-.6 3-.6c.7 0 1.4.1 1.9.2.6.1 1.1.3 1.5.5.4.2.8.5 1.1.7l.8.8c.2.3.4.5.5.8l.3.6-3.5 2.1zM465.3 779.2V760H476v3.5h-6.5v3.9h6v3.6h-6v4.6h6.7v3.6h-10.9zM492.6 779.2l-.1-14.1-3.2 14.1h-3.7l-3.2-14.1-.1 14.1h-3.8l.5-19.2h5.8l2.8 13.5 2.9-13.5h5.6l.5 19.2h-4zM499.8 779.2V760h10.7v3.5H504v3.9h6v3.6h-6v4.6h6.7v3.6h-10.9zM522.9 779.2l-5.8-12.3v12.3h-3.8V760h4.1l5.6 11.8V760h3.9v19.2h-4zM537.1 763.5v15.7h-4.2v-15.7h-4.1V760h12.4v3.5h-4.1z"/></g><text transform="translate(485.55 779.195)" class="st16 st17 st18"></text><g class="st15"><path class="st19" d="M606.4 138.7c0 .9-.2 1.8-.5 2.5s-.8 1.4-1.4 1.9-1.3.9-2.1 1.2-1.7.4-2.6.4c-.8 0-1.5-.1-2.1-.3-.6-.2-1.2-.4-1.7-.6s-.9-.5-1.2-.8c-.3-.3-.6-.5-.7-.7l2.1-3.1.7.7c.3.3.5.4.9.6.3.2.6.3 1 .4.4.1.7.1 1.1.1.4 0 .8 0 1.1-.1.3-.1.5-.2.7-.4.2-.2.3-.4.4-.6.1-.2.1-.5.1-.7 0-.3-.1-.5-.2-.8-.1-.2-.3-.4-.5-.7-.2-.2-.5-.4-.8-.6-.3-.2-.7-.4-1.1-.6-.8-.4-1.5-.8-2.1-1.2-.6-.4-1.1-.8-1.5-1.2-.4-.4-.7-.9-.9-1.5-.2-.6-.3-1.2-.3-2 0-.9.2-1.7.5-2.4s.8-1.3 1.3-1.8c.6-.5 1.2-.9 2-1.1.7-.3 1.6-.4 2.4-.4.9 0 1.6.1 2.3.3s1.2.4 1.7.6c.5.2.8.5 1.1.7.3.2.4.4.5.5l-2.1 3-.6-.6c-.2-.2-.5-.4-.8-.5-.3-.1-.6-.3-.9-.4-.3-.1-.7-.1-1-.1-.7 0-1.2.2-1.6.5-.4.3-.5.8-.5 1.3 0 .3 0 .5.1.7.1.2.2.4.4.6s.5.4.8.6c.3.2.7.4 1.1.6.7.3 1.4.7 2 1 .6.4 1.1.8 1.6 1.2.4.5.8 1 1 1.6.2.7.3 1.4.3 2.2zM608.8 144.4v-19.2h10.7v3.5H613v3.9h6v3.6h-6v4.6h6.7v3.6h-10.9zM635.6 140.3c-.1.4-.4.8-.7 1.3s-.7 1-1.2 1.5-1.2.9-1.9 1.2-1.7.5-2.7.5c-1.1 0-2.2-.2-3.1-.6-.9-.4-1.7-1-2.4-1.8s-1.2-1.8-1.6-3.1c-.4-1.2-.6-2.7-.6-4.4 0-1.7.2-3.2.6-4.4.4-1.3 1-2.3 1.7-3.1.7-.8 1.5-1.5 2.5-1.9 1-.4 2-.6 3.1-.6 1 0 1.9.1 2.7.4.7.3 1.3.6 1.8 1s.9.9 1.2 1.3c.3.5.5.9.7 1.4l-3.4 1.8c0-.2-.1-.4-.3-.7-.1-.3-.3-.5-.5-.8s-.5-.5-.8-.6c-.3-.2-.8-.3-1.2-.3-1.2 0-2.1.5-2.7 1.6-.6 1-.9 2.6-.9 4.7s.3 3.7 1 4.8 1.5 1.6 2.6 1.6c.5 0 1-.1 1.3-.3.4-.2.7-.4.9-.7.2-.3.4-.5.5-.8.1-.3.2-.5.3-.7l3.1 1.7z"/></g><text transform="translate(635.854 144.438)" class="st19 st17 st18">U</text><text transform="translate(652.927 144.438)" class="st19 st17 st18">R</text><text transform="translate(668.185 144.438)" class="st19 st17 st18">I</text><text transform="translate(675.934 144.438)" class="st19 st17 st18">T</text><text transform="translate(688.619 144.438)" class="st19 st17 st18">Y</text><g class="st15"><path class="st19" d="M606.4 167.8c0 .9-.2 1.8-.5 2.5s-.8 1.4-1.4 1.9-1.3.9-2.1 1.2-1.7.4-2.6.4c-.8 0-1.5-.1-2.1-.3-.6-.2-1.2-.4-1.7-.6s-.9-.5-1.2-.8c-.3-.3-.6-.5-.7-.7l2.1-3.1.7.7c.3.3.5.4.9.6.3.2.6.3 1 .4.4.1.7.1 1.1.1.4 0 .8 0 1.1-.1.3-.1.5-.2.7-.4.2-.2.3-.4.4-.6.1-.2.1-.5.1-.7 0-.3-.1-.5-.2-.8-.1-.2-.3-.4-.5-.7-.2-.2-.5-.4-.8-.6-.3-.2-.7-.4-1.1-.6-.8-.4-1.5-.8-2.1-1.2-.6-.4-1.1-.8-1.5-1.2-.4-.4-.7-.9-.9-1.5-.2-.6-.3-1.2-.3-2 0-.9.2-1.7.5-2.4s.8-1.3 1.3-1.8c.6-.5 1.2-.9 2-1.1.7-.3 1.6-.4 2.4-.4.9 0 1.6.1 2.3.3s1.2.4 1.7.6c.5.2.8.5 1.1.7.3.2.4.4.5.5l-2.1 3-.6-.6c-.2-.2-.5-.4-.8-.5-.3-.1-.6-.3-.9-.4-.3-.1-.7-.1-1-.1-.7 0-1.2.2-1.6.5-.4.3-.5.8-.5 1.3 0 .3 0 .5.1.7.1.2.2.4.4.6s.5.4.8.6c.3.2.7.4 1.1.6.7.3 1.4.7 2 1 .6.4 1.1.8 1.6 1.2.4.5.8 1 1 1.6.2.7.3 1.4.3 2.2zM608.8 173.5v-19.2h10.7v3.5H613v3.9h6v3.6h-6v4.6h6.7v3.6h-10.9zM630.7 173.5l-3.1-7.4h-1.2v7.4h-4.1v-19.2h5.8c1 0 1.9.1 2.7.3.8.2 1.5.5 2 .9.6.5 1.1 1.1 1.4 1.8.3.7.5 1.6.5 2.7 0 .7-.1 1.4-.2 2-.2.6-.4 1.1-.7 1.5-.3.4-.6.8-1 1.2s-.8.6-1.3.8l3.8 8h-4.6zm-.2-13.3c0-.9-.2-1.5-.7-2-.5-.4-1.2-.7-2.2-.7h-1.2v5.4h1.2c.9 0 1.6-.2 2.1-.7.6-.3.8-1 .8-2zM646.2 173.5h-5.5l-5-19.2h4.7l3.2 14.9 3.4-14.9h4.3l-5.1 19.2zM653 173.5v-19.2h4.1v19.2H653zM674 169.3c-.1.4-.4.8-.7 1.3s-.7 1-1.2 1.5-1.2.9-1.9 1.2-1.7.5-2.7.5c-1.1 0-2.2-.2-3.1-.6-.9-.4-1.7-1-2.4-1.8s-1.2-1.8-1.6-3.1c-.4-1.2-.6-2.7-.6-4.4 0-1.7.2-3.2.6-4.4.4-1.3 1-2.3 1.7-3.1.7-.8 1.5-1.5 2.5-1.9 1-.4 2-.6 3.1-.6 1 0 1.9.1 2.7.4.7.3 1.3.6 1.8 1s.9.9 1.2 1.3c.3.5.5.9.7 1.4l-3.4 1.8c0-.2-.1-.4-.3-.7-.1-.3-.3-.5-.5-.8s-.5-.5-.8-.6c-.3-.2-.8-.3-1.2-.3-1.2 0-2.1.5-2.7 1.6-.6 1-.9 2.6-.9 4.7s.3 3.7 1 4.8 1.5 1.6 2.6 1.6c.5 0 1-.1 1.3-.3.4-.2.7-.4.9-.7.2-.3.4-.5.5-.8.1-.3.2-.5.3-.7l3.1 1.7zM675.9 173.5v-19.2h10.7v3.5H680v3.9h6v3.6h-6v4.6h6.7v3.6h-10.8zM700.2 167.8c0 .9-.2 1.8-.5 2.5s-.8 1.4-1.4 1.9-1.3.9-2.1 1.2-1.7.4-2.6.4c-.8 0-1.5-.1-2.1-.3-.6-.2-1.2-.4-1.7-.6s-.9-.5-1.2-.8c-.3-.3-.6-.5-.7-.7l2.1-3.1.7.7c.3.3.5.4.9.6.3.2.6.3 1 .4.4.1.7.1 1.1.1.4 0 .8 0 1.1-.1.3-.1.5-.2.7-.4.2-.2.3-.4.4-.6.1-.2.1-.5.1-.7 0-.3-.1-.5-.2-.8-.1-.2-.3-.4-.5-.7-.2-.2-.5-.4-.8-.6-.3-.2-.7-.4-1.1-.6-.8-.4-1.5-.8-2.1-1.2-.6-.4-1.1-.8-1.5-1.2-.4-.4-.7-.9-.9-1.5-.2-.6-.3-1.2-.3-2 0-.9.2-1.7.5-2.4s.8-1.3 1.3-1.8c.6-.5 1.2-.9 2-1.1.7-.3 1.6-.4 2.4-.4.9 0 1.6.1 2.3.3s1.2.4 1.7.6c.5.2.8.5 1.1.7.3.2.4.4.5.5l-2.1 3-.6-.6c-.2-.2-.5-.4-.8-.5-.3-.1-.6-.3-.9-.4-.3-.1-.7-.1-1-.1-.7 0-1.2.2-1.6.5-.4.3-.5.8-.5 1.3 0 .3 0 .5.1.7.1.2.2.4.4.6s.5.4.8.6c.3.2.7.4 1.1.6.7.3 1.4.7 2 1 .6.4 1.1.8 1.6 1.2.4.5.8 1 1 1.6.2.7.3 1.4.3 2.2z"/></g><text transform="translate(701.09 173.499)" class="st19 st17 st18"></text><g class="st15"><path class="st19" d="M553.5 907.4h-4.9L546 893l-2.6 14.4h-4.9l-3.9-19.2h4.4l2.3 14.6 2.6-14.6h4.8l2.5 14.6 2.3-14.6h4.2l-4.2 19.2zM573.8 897.8c0 1.6-.2 3-.5 4.2-.4 1.2-.9 2.3-1.5 3.1-.7.8-1.5 1.5-2.4 1.9-.9.4-2 .7-3.2.7-1.2 0-2.2-.2-3.2-.7-.9-.4-1.7-1.1-2.4-1.9-.7-.8-1.2-1.9-1.5-3.1-.3-1.2-.5-2.6-.5-4.2s.2-3 .5-4.2.9-2.3 1.5-3.1c.7-.8 1.5-1.5 2.4-1.9s2-.7 3.2-.7c1.2 0 2.2.2 3.2.7s1.7 1.1 2.4 1.9c.7.8 1.2 1.9 1.5 3.1.3 1.2.5 2.6.5 4.2zm-4.4 0c0-1-.1-1.8-.2-2.6s-.3-1.4-.6-2c-.3-.5-.6-1-1-1.3-.4-.3-.9-.4-1.4-.4s-1 .1-1.4.4c-.4.3-.7.7-1 1.3s-.5 1.2-.6 2c-.1.8-.2 1.7-.2 2.6 0 1 .1 1.9.2 2.6.1.8.3 1.4.6 2s.6 1 1 1.2c.4.3.9.4 1.4.4.6 0 1-.1 1.5-.4.4-.3.8-.7 1-1.2s.5-1.2.6-2c0-.8.1-1.6.1-2.6zM584.8 907.4l-3.1-7.4h-1.2v7.4h-4.1v-19.2h5.8c1 0 1.9.1 2.7.3.8.2 1.5.5 2 .9.6.5 1.1 1.1 1.4 1.8.3.7.5 1.6.5 2.7 0 .7-.1 1.4-.2 2-.2.6-.4 1.1-.7 1.5-.3.4-.6.8-1 1.2s-.8.6-1.3.8l3.8 8h-4.6zm-.2-13.2c0-.9-.2-1.5-.7-2-.5-.4-1.2-.7-2.2-.7h-1.2v5.4h1.2c.9 0 1.6-.2 2.1-.7.6-.4.8-1.1.8-2zM600.3 907.4l-3.4-8-1.2 1.8v6.2h-4.1v-19.2h4.1v8l4.6-8h4.8l-5.2 7.9 5.4 11.3h-5zM611.5 891.8v4.6h5.6v3.6h-5.6v7.5h-4.1v-19.2h10.3v3.5h-6.2zM619.8 907.4v-19.2h4.1v15.6h6.1v3.6h-10.2zM645.6 897.8c0 1.6-.2 3-.5 4.2-.4 1.2-.9 2.3-1.5 3.1-.7.8-1.5 1.5-2.4 1.9-.9.4-2 .7-3.2.7-1.2 0-2.2-.2-3.2-.7-.9-.4-1.7-1.1-2.4-1.9-.7-.8-1.2-1.9-1.5-3.1-.3-1.2-.5-2.6-.5-4.2s.2-3 .5-4.2.9-2.3 1.5-3.1c.7-.8 1.5-1.5 2.4-1.9s2-.7 3.2-.7c1.2 0 2.2.2 3.2.7s1.7 1.1 2.4 1.9c.7.8 1.2 1.9 1.5 3.1.4 1.2.5 2.6.5 4.2zm-4.3 0c0-1-.1-1.8-.2-2.6s-.3-1.4-.6-2c-.3-.5-.6-1-1-1.3-.4-.3-.9-.4-1.4-.4s-1 .1-1.4.4c-.4.3-.7.7-1 1.3s-.5 1.2-.6 2c-.1.8-.2 1.7-.2 2.6 0 1 .1 1.9.2 2.6.1.8.3 1.4.6 2s.6 1 1 1.2c.4.3.9.4 1.4.4.6 0 1-.1 1.5-.4.4-.3.8-.7 1-1.2s.5-1.2.6-2c0-.8.1-1.6.1-2.6zM665.8 907.4h-4.9l-2.6-14.4-2.6 14.4h-4.9l-3.9-19.2h4.4l2.3 14.6 2.6-14.6h4.8l2.5 14.6 2.3-14.6h4.2l-4.2 19.2z"/></g><g class="st15"><path class="st19" d="M689.9 907.4l-1.2-1.6c-.2.2-.5.4-.8.6-.3.2-.6.4-1 .6s-.9.3-1.4.5c-.5.1-1.1.2-1.8.2s-1.5-.1-2.1-.3c-.7-.2-1.3-.6-1.8-1s-.9-1-1.2-1.7c-.3-.7-.4-1.5-.4-2.4 0-.9.1-1.6.4-2.2.3-.6.6-1.1.9-1.5.4-.4.8-.8 1.2-1.1.4-.3.8-.5 1.2-.8l-.6-.9c-.2-.3-.4-.6-.6-1s-.3-.7-.4-1.1c-.1-.4-.2-.8-.2-1.3 0-.7.1-1.4.4-1.9.3-.6.7-1 1.2-1.4.5-.4 1-.6 1.7-.8.6-.2 1.3-.3 2-.3.6 0 1.2.1 1.8.3.6.2 1.1.4 1.5.8s.8.8 1.1 1.4c.3.6.4 1.2.4 2 0 .7-.1 1.2-.3 1.7-.2.5-.5 1-.8 1.4-.3.4-.7.8-1 1.1-.4.3-.7.6-1.1.8l2.3 3.2c.2-.3.3-.6.5-.9.2-.3.3-.7.4-1s.2-.7.3-1l.3-.9 3.2.9c-.1.5-.3 1-.5 1.5l-.6 1.5c-.2.5-.5 1-.7 1.4-.3.4-.5.8-.8 1.2l3.2 4.2h-4.7zm-6.2-8.2c-.5.4-.9.8-1.2 1.2-.3.4-.4.9-.4 1.5 0 .8.2 1.4.6 1.8.4.4 1 .6 1.6.6.3 0 .5 0 .8-.1.2-.1.5-.2.6-.3.2-.1.3-.2.5-.3l.3-.3-2.8-4.1zm3-6.9c0-.6-.1-1-.4-1.3s-.6-.5-1-.5c-.2 0-.5 0-.6.1-.2.1-.3.2-.5.4-.1.2-.2.3-.3.5-.1.2-.1.4-.1.6 0 .5.1 1 .4 1.4.2.5.6 1 .9 1.4.4-.3.8-.8 1.1-1.2.4-.3.5-.8.5-1.4z"/></g><g class="st15"><path class="st19" d="M545.4 936.5l-1-4h-5.1l-1 4h-4.2l5.1-19.2h5.6l5.1 19.2h-4.5zm-3.5-15.4l-1.9 8.2h3.7l-1.8-8.2zM561 917.3h4.1v12c0 .7 0 1.3-.1 1.8l-.3 1.5c-.1.4-.3.9-.5 1.2-.2.4-.4.7-.7 1.1-.6.6-1.3 1.1-2.1 1.4-.8.3-1.9.5-3.1.5-1.2 0-2.2-.1-3.1-.4-.9-.3-1.6-.8-2.1-1.5-.3-.3-.5-.6-.7-1-.2-.4-.3-.8-.5-1.2s-.2-.9-.3-1.5c-.1-.6-.1-1.2-.1-1.9v-12h4.1v12.4c0 .7.1 1.2.2 1.6.1.4.3.8.5 1 .5.5 1.2.8 2 .8.4 0 .7-.1 1.1-.2s.7-.3.9-.6c.2-.3.4-.6.5-1.1.1-.4.2-1 .2-1.6v-12.3zM575.3 920.8v15.7h-4.2v-15.7H567v-3.5h12.4v3.5h-4.1zM594.7 926.9c0 1.6-.2 3-.5 4.2-.4 1.2-.9 2.3-1.5 3.1-.7.8-1.5 1.5-2.4 1.9-.9.4-2 .7-3.2.7-1.2 0-2.2-.2-3.2-.7-.9-.4-1.7-1.1-2.4-1.9-.7-.8-1.2-1.9-1.5-3.1-.3-1.2-.5-2.6-.5-4.2s.2-3 .5-4.2.9-2.3 1.5-3.1c.7-.8 1.5-1.5 2.4-1.9s2-.7 3.2-.7c1.2 0 2.2.2 3.2.7s1.7 1.1 2.4 1.9c.7.8 1.2 1.9 1.5 3.1.3 1.2.5 2.6.5 4.2zm-4.4 0c0-1-.1-1.8-.2-2.6s-.3-1.4-.6-2c-.3-.5-.6-1-1-1.3-.4-.3-.9-.4-1.4-.4s-1 .1-1.4.4c-.4.3-.7.7-1 1.3s-.5 1.2-.6 2c-.1.8-.2 1.7-.2 2.6 0 1 .1 1.9.2 2.6.1.8.3 1.4.6 2s.6 1 1 1.2c.4.3.9.4 1.4.4.6 0 1-.1 1.5-.4.4-.3.8-.7 1-1.2s.5-1.2.6-2c0-.8.1-1.7.1-2.6zM611.1 936.5l-.1-14.1-3.2 14.1h-3.7l-3.2-14.1-.1 14.1H597l.5-19.2h5.8l2.8 13.5 2.9-13.5h5.6l.5 19.2h-4zM627.8 936.5l-1-4h-5.1l-1 4h-4.2l5.1-19.2h5.6l5.1 19.2h-4.5zm-3.6-15.4l-1.9 8.2h3.7l-1.8-8.2zM639.4 920.8v15.7h-4.2v-15.7h-4.1v-3.5h12.4v3.5h-4.1zM645.4 936.5v-19.2h4.1v19.2h-4.1zM667.4 926.9c0 1.6-.2 3-.5 4.2-.4 1.2-.9 2.3-1.5 3.1-.7.8-1.5 1.5-2.4 1.9-.9.4-2 .7-3.2.7-1.2 0-2.2-.2-3.2-.7-.9-.4-1.7-1.1-2.4-1.9-.7-.8-1.2-1.9-1.5-3.1-.3-1.2-.5-2.6-.5-4.2s.2-3 .5-4.2.9-2.3 1.5-3.1c.7-.8 1.5-1.5 2.4-1.9s2-.7 3.2-.7c1.2 0 2.2.2 3.2.7s1.7 1.1 2.4 1.9c.7.8 1.2 1.9 1.5 3.1.3 1.2.5 2.6.5 4.2zm-4.4 0c0-1-.1-1.8-.2-2.6s-.3-1.4-.6-2c-.3-.5-.6-1-1-1.3-.4-.3-.9-.4-1.4-.4s-1 .1-1.4.4c-.4.3-.7.7-1 1.3s-.5 1.2-.6 2c-.1.8-.2 1.7-.2 2.6 0 1 .1 1.9.2 2.6.1.8.3 1.4.6 2s.6 1 1 1.2c.4.3.9.4 1.4.4.6 0 1-.1 1.5-.4.4-.3.8-.7 1-1.2s.5-1.2.6-2c.1-.8.1-1.7.1-2.6zM679.7 936.5l-5.8-12.3v12.3H670v-19.2h4.1l5.6 11.8v-11.8h3.9v19.2h-3.9z"/></g><text transform="translate(687.861 936.51)" class="st19 st17 st18"></text><g class="st15"><path class="st19" d="M546.8 959.9c0 .9-.2 1.8-.5 2.5s-.8 1.4-1.4 1.9-1.3.9-2.1 1.2-1.7.4-2.6.4c-.8 0-1.5-.1-2.1-.3-.6-.2-1.2-.4-1.7-.6s-.9-.5-1.2-.8c-.3-.3-.6-.5-.7-.7l2.1-3.1.7.7c.3.3.5.4.9.6.3.2.6.3 1 .4.4.1.7.1 1.1.1.4 0 .8 0 1.1-.1.3-.1.5-.2.7-.4.2-.2.3-.4.4-.6.1-.2.1-.5.1-.7 0-.3-.1-.5-.2-.8-.1-.2-.3-.4-.5-.7-.2-.2-.5-.4-.8-.6-.3-.2-.7-.4-1.1-.6-.8-.4-1.5-.8-2.1-1.2-.6-.4-1.1-.8-1.5-1.2-.4-.4-.7-.9-.9-1.5-.2-.6-.3-1.2-.3-2 0-.9.2-1.7.5-2.4s.8-1.3 1.3-1.8c.6-.5 1.2-.9 2-1.1.7-.3 1.6-.4 2.4-.4.9 0 1.6.1 2.3.3s1.2.4 1.7.6c.5.2.8.5 1.1.7.3.2.4.4.5.5l-2.1 3-.6-.6c-.2-.2-.5-.4-.8-.5-.3-.1-.6-.3-.9-.4-.3-.1-.7-.1-1-.1-.7 0-1.2.2-1.6.5-.4.3-.5.8-.5 1.3 0 .3 0 .5.1.7.1.2.2.4.4.6s.5.4.8.6c.3.2.7.4 1.1.6.7.3 1.4.7 2 1 .6.4 1.1.8 1.6 1.2.4.5.8 1 1 1.6.1.7.3 1.4.3 2.2zM549.2 965.6v-19.2h10.7v3.5h-6.5v3.9h6v3.6h-6v4.6h6.7v3.6h-10.9zM571 965.6l-3.1-7.4h-1.2v7.4h-4.1v-19.2h5.8c1 0 1.9.1 2.7.3.8.2 1.5.5 2 .9.6.5 1.1 1.1 1.4 1.8.3.7.5 1.6.5 2.7 0 .7-.1 1.4-.2 2-.2.6-.4 1.1-.7 1.5-.3.4-.6.8-1 1.2s-.8.6-1.3.8l3.8 8H571zm-.1-13.3c0-.9-.2-1.5-.7-2-.5-.4-1.2-.7-2.2-.7h-1.2v5.4h1.2c.9 0 1.6-.2 2.1-.7.5-.3.8-1 .8-2zM586.5 965.6H581l-5-19.2h4.7l3.2 14.9 3.4-14.9h4.3l-5.1 19.2zM593.3 965.6v-19.2h4.1v19.2h-4.1zM614.3 961.4c-.1.4-.4.8-.7 1.3s-.7 1-1.2 1.5-1.2.9-1.9 1.2-1.7.5-2.7.5c-1.1 0-2.2-.2-3.1-.6-.9-.4-1.7-1-2.4-1.8s-1.2-1.8-1.6-3.1c-.4-1.2-.6-2.7-.6-4.4 0-1.7.2-3.2.6-4.4.4-1.3 1-2.3 1.7-3.1.7-.8 1.5-1.5 2.5-1.9 1-.4 2-.6 3.1-.6 1 0 1.9.1 2.7.4.7.3 1.3.6 1.8 1s.9.9 1.2 1.3c.3.5.5.9.7 1.4l-3.4 1.8c0-.2-.1-.4-.3-.7-.1-.3-.3-.5-.5-.8s-.5-.5-.8-.6c-.3-.2-.8-.3-1.2-.3-1.2 0-2.1.5-2.7 1.6-.6 1-.9 2.6-.9 4.7s.3 3.7 1 4.8 1.5 1.6 2.6 1.6c.5 0 1-.1 1.3-.3.4-.2.7-.4.9-.7.2-.3.4-.5.5-.8.1-.3.2-.5.3-.7l3.1 1.7zM616.2 965.6v-19.2h10.7v3.5h-6.5v3.9h6v3.6h-6v4.6h6.7v3.6h-10.9zM640.5 959.9c0 .9-.2 1.8-.5 2.5s-.8 1.4-1.4 1.9-1.3.9-2.1 1.2-1.7.4-2.6.4c-.8 0-1.5-.1-2.1-.3-.6-.2-1.2-.4-1.7-.6s-.9-.5-1.2-.8c-.3-.3-.6-.5-.7-.7l2.1-3.1.7.7c.3.3.5.4.9.6.3.2.6.3 1 .4.4.1.7.1 1.1.1.4 0 .8 0 1.1-.1.3-.1.5-.2.7-.4.2-.2.3-.4.4-.6.1-.2.1-.5.1-.7 0-.3-.1-.5-.2-.8-.1-.2-.3-.4-.5-.7-.2-.2-.5-.4-.8-.6-.3-.2-.7-.4-1.1-.6-.8-.4-1.5-.8-2.1-1.2-.6-.4-1.1-.8-1.5-1.2-.4-.4-.7-.9-.9-1.5-.2-.6-.3-1.2-.3-2 0-.9.2-1.7.5-2.4s.8-1.3 1.3-1.8c.6-.5 1.2-.9 2-1.1.7-.3 1.6-.4 2.4-.4.9 0 1.6.1 2.3.3s1.2.4 1.7.6c.5.2.8.5 1.1.7.3.2.4.4.5.5l-2.1 3-.6-.6c-.2-.2-.5-.4-.8-.5-.3-.1-.6-.3-.9-.4-.3-.1-.7-.1-1-.1-.7 0-1.2.2-1.6.5-.4.3-.5.8-.5 1.3 0 .3 0 .5.1.7.1.2.2.4.4.6s.5.4.8.6c.3.2.7.4 1.1.6.7.3 1.4.7 2 1 .6.4 1.1.8 1.6 1.2.4.5.8 1 1 1.6.2.7.3 1.4.3 2.2z"/></g><text transform="translate(641.424 965.57)" class="st19 st17 st18"></text><g class="st15"><path class="st19" d="M837.6 28.6c-.1.4-.4.8-.7 1.3s-.7 1-1.2 1.5-1.2.9-1.9 1.2-1.7.5-2.7.5c-1.1 0-2.2-.2-3.1-.6-.9-.4-1.7-1-2.4-1.8s-1.2-1.8-1.6-3.1c-.4-1.2-.6-2.7-.6-4.4 0-1.7.2-3.2.6-4.4.4-1.3 1-2.3 1.7-3.1.7-.8 1.5-1.5 2.5-1.9 1-.4 2-.6 3.1-.6 1 0 1.9.1 2.7.4.7.3 1.3.6 1.8 1s.9.9 1.2 1.3c.3.5.5.9.7 1.4l-3.4 1.8c0-.2-.1-.4-.3-.7-.1-.3-.3-.5-.5-.8s-.5-.5-.8-.6c-.3-.2-.8-.3-1.2-.3-1.2 0-2.1.5-2.7 1.6-.6 1-.9 2.6-.9 4.7s.3 3.7 1 4.8 1.5 1.6 2.6 1.6c.5 0 1-.1 1.3-.3.4-.2.7-.4.9-.7.2-.3.4-.5.5-.8.1-.3.2-.5.3-.7l3.1 1.7zM839.6 32.7V13.5h4.1v15.6h6.1v3.6h-10.2zM865.4 23.1c0 1.6-.2 3-.5 4.2-.4 1.2-.9 2.3-1.5 3.1-.7.8-1.5 1.5-2.4 1.9-.9.4-2 .7-3.2.7-1.2 0-2.2-.2-3.2-.7-.9-.4-1.7-1.1-2.4-1.9-.7-.8-1.2-1.9-1.5-3.1-.3-1.2-.5-2.6-.5-4.2s.2-3 .5-4.2.9-2.3 1.5-3.1c.7-.8 1.5-1.5 2.4-1.9s2-.7 3.2-.7c1.2 0 2.2.2 3.2.7s1.7 1.1 2.4 1.9c.7.8 1.2 1.9 1.5 3.1.4 1.2.5 2.6.5 4.2zm-4.3 0c0-1-.1-1.8-.2-2.6s-.3-1.4-.6-2c-.3-.5-.6-1-1-1.3-.4-.3-.9-.4-1.4-.4s-1 .1-1.4.4c-.4.3-.7.7-1 1.3s-.5 1.2-.6 2c-.1.8-.2 1.7-.2 2.6 0 1 .1 1.9.2 2.6.1.8.3 1.4.6 2s.6 1 1 1.2c.4.3.9.4 1.4.4.6 0 1-.1 1.5-.4.4-.3.8-.7 1-1.2s.5-1.2.6-2c0-.8.1-1.6.1-2.6zM877.5 13.5h4.1v12c0 .7 0 1.3-.1 1.8l-.3 1.5c-.1.4-.3.9-.5 1.2-.2.4-.4.7-.7 1.1-.6.6-1.3 1.1-2.1 1.4-.8.3-1.9.5-3.1.5-1.2 0-2.2-.1-3.1-.4-.9-.3-1.6-.8-2.1-1.5-.3-.3-.5-.6-.7-1-.2-.4-.3-.8-.5-1.2s-.2-.9-.3-1.5c-.1-.6-.1-1.2-.1-1.9v-12h4.1v12.4c0 .7.1 1.2.2 1.6.1.4.3.8.5 1 .5.5 1.2.8 2 .8.4 0 .7-.1 1.1-.2s.7-.3.9-.6c.2-.3.4-.6.5-1.1.1-.4.2-1 .2-1.6V13.5zM899.3 22.9c0 .9-.1 1.7-.2 2.5s-.3 1.5-.6 2.1c-.3.6-.5 1.2-.9 1.7s-.7 1-1.1 1.4c-.8.8-1.8 1.4-2.9 1.7-1.1.3-2.3.5-3.7.5h-4.8V13.5h5c.7 0 1.4 0 2.1.1l1.8.3c.6.1 1.1.3 1.6.6s.9.6 1.3.9c.8.7 1.4 1.7 1.8 2.9s.6 2.8.6 4.6zm-4.3.2c0-1.1-.1-2.1-.4-3-.2-.8-.6-1.5-1-1.9-.4-.4-.9-.7-1.4-.9-.5-.2-1.2-.3-2-.3h-1v12.1h1c.8 0 1.5-.1 2-.2.5-.2 1-.4 1.4-.9.2-.2.4-.5.6-.8.2-.3.3-.7.4-1.1.1-.4.2-.9.3-1.4 0-.5.1-1 .1-1.6z"/></g><g class="st15"><path class="st19" d="M835.2 56.1c0 .9-.2 1.8-.5 2.5s-.8 1.4-1.4 1.9-1.3.9-2.1 1.2-1.7.4-2.6.4c-.8 0-1.5-.1-2.1-.3-.6-.2-1.2-.4-1.7-.6s-.9-.5-1.2-.8c-.3-.3-.6-.5-.7-.7l2.1-3.1.7.7c.3.3.5.4.9.6.3.2.6.3 1 .4.4.1.7.1 1.1.1.4 0 .8 0 1.1-.1.3-.1.5-.2.7-.4.2-.2.3-.4.4-.6.1-.2.1-.5.1-.7 0-.3-.1-.5-.2-.8-.1-.2-.3-.4-.5-.7-.2-.2-.5-.4-.8-.6-.3-.2-.7-.4-1.1-.6-.8-.4-1.5-.8-2.1-1.2-.6-.4-1.1-.8-1.5-1.2-.4-.4-.7-.9-.9-1.5-.2-.6-.3-1.2-.3-2 0-.9.2-1.7.5-2.4s.8-1.3 1.3-1.8c.6-.5 1.2-.9 2-1.1.7-.3 1.6-.4 2.4-.4.9 0 1.6.1 2.3.3s1.2.4 1.7.6c.5.2.8.5 1.1.7.3.2.4.4.5.5l-2.1 3-.6-.6c-.2-.2-.5-.4-.8-.5-.3-.1-.6-.3-.9-.4-.3-.1-.7-.1-1-.1-.7 0-1.2.2-1.6.5-.4.3-.5.8-.5 1.3 0 .3 0 .5.1.7.1.2.2.4.4.6s.5.4.8.6c.3.2.7.4 1.1.6.7.3 1.4.7 2 1 .6.4 1.1.8 1.6 1.2.4.5.8 1 1 1.6.2.7.3 1.4.3 2.2zM837.6 61.8V42.6h10.7v3.5h-6.5V50h6v3.6h-6v4.6h6.7v3.6h-10.9zM859.5 61.8l-3.1-7.4h-1.2v7.4h-4.1V42.6h5.8c1 0 1.9.1 2.7.3.8.2 1.5.5 2 .9.6.5 1.1 1.1 1.4 1.8.3.7.5 1.6.5 2.7 0 .7-.1 1.4-.2 2-.2.6-.4 1.1-.7 1.5-.3.4-.6.8-1 1.2s-.8.6-1.3.8l3.8 8h-4.6zm-.2-13.3c0-.9-.2-1.5-.7-2-.5-.4-1.2-.7-2.2-.7h-1.2v5.4h1.2c.9 0 1.6-.2 2.1-.7.5-.3.8-1 .8-2zM874.9 61.8h-5.5l-5-19.2h4.7l3.2 14.9 3.4-14.9h4.3l-5.1 19.2zM881.8 61.8V42.6h4.1v19.2h-4.1zM902.7 57.6c-.1.4-.4.8-.7 1.3s-.7 1-1.2 1.5-1.2.9-1.9 1.2-1.7.5-2.7.5c-1.1 0-2.2-.2-3.1-.6-.9-.4-1.7-1-2.4-1.8s-1.2-1.8-1.6-3.1c-.4-1.2-.6-2.7-.6-4.4 0-1.7.2-3.2.6-4.4.4-1.3 1-2.3 1.7-3.1.7-.8 1.5-1.5 2.5-1.9 1-.4 2-.6 3.1-.6 1 0 1.9.1 2.7.4.7.3 1.3.6 1.8 1s.9.9 1.2 1.3c.3.5.5.9.7 1.4l-3.4 1.8c0-.2-.1-.4-.3-.7-.1-.3-.3-.5-.5-.8s-.5-.5-.8-.6c-.3-.2-.8-.3-1.2-.3-1.2 0-2.1.5-2.7 1.6-.6 1-.9 2.6-.9 4.7s.3 3.7 1 4.8 1.5 1.6 2.6 1.6c.5 0 1-.1 1.3-.3.4-.2.7-.4.9-.7.2-.3.4-.5.5-.8.1-.3.2-.5.3-.7l3.1 1.7zM904.7 61.8V42.6h10.7v3.5h-6.5V50h6v3.6h-6v4.6h6.7v3.6h-10.9zM929 56.1c0 .9-.2 1.8-.5 2.5s-.8 1.4-1.4 1.9-1.3.9-2.1 1.2-1.7.4-2.6.4c-.8 0-1.5-.1-2.1-.3-.6-.2-1.2-.4-1.7-.6s-.9-.5-1.2-.8c-.3-.3-.6-.5-.7-.7l2.1-3.1.7.7c.3.3.5.4.9.6.3.2.6.3 1 .4.4.1.7.1 1.1.1.4 0 .8 0 1.1-.1.3-.1.5-.2.7-.4.2-.2.3-.4.4-.6.1-.2.1-.5.1-.7 0-.3-.1-.5-.2-.8-.1-.2-.3-.4-.5-.7-.2-.2-.5-.4-.8-.6-.3-.2-.7-.4-1.1-.6-.8-.4-1.5-.8-2.1-1.2-.6-.4-1.1-.8-1.5-1.2-.4-.4-.7-.9-.9-1.5-.2-.6-.3-1.2-.3-2 0-.9.2-1.7.5-2.4s.8-1.3 1.3-1.8c.6-.5 1.2-.9 2-1.1.7-.3 1.6-.4 2.4-.4.9 0 1.6.1 2.3.3s1.2.4 1.7.6c.5.2.8.5 1.1.7.3.2.4.4.5.5l-2.1 3-.6-.6c-.2-.2-.5-.4-.8-.5-.3-.1-.6-.3-.9-.4-.3-.1-.7-.1-1-.1-.7 0-1.2.2-1.6.5-.4.3-.5.8-.5 1.3 0 .3 0 .5.1.7.1.2.2.4.4.6s.5.4.8.6c.3.2.7.4 1.1.6.7.3 1.4.7 2 1 .6.4 1.1.8 1.6 1.2.4.5.8 1 1 1.6.1.7.3 1.4.3 2.2z"/></g><text transform="translate(933.874 509.983)" class="st19 st17 st20">INTELLIGENT</text><text transform="translate(933.874 540.86)" class="st19 st17 st20">CONNECTED</text><text transform="translate(933.874 571.74)" class="st19 st17 st20">WORKPLACE</text><text transform="translate(1097.176 571.74)" class="st19 st17 st20"></text><g class="st15"><path class="st19" d="M827.4 1037.1l-.1-14.1-3.2 14.1h-3.7l-3.2-14.1-.1 14.1h-3.8l.5-19.2h5.8l2.8 13.5 2.9-13.5h5.6l.5 19.2h-4zM844.1 1037.1l-1-4H838l-1 4h-4.2l5.1-19.2h5.6l5.1 19.2h-4.5zm-3.5-15.4l-1.9 8.2h3.7l-1.8-8.2zM860 1037.1l-5.8-12.3v12.3h-3.8v-19.2h4.1l5.6 11.8v-11.8h3.9v19.2h-4zM877 1037.1l-1-4h-5.1l-1 4h-4.2l5.1-19.2h5.6l5.1 19.2H877zm-3.5-15.4l-1.9 8.2h3.7l-1.8-8.2zM892.9 1023.3c-.1-.2-.2-.4-.3-.7-.1-.2-.3-.5-.5-.7s-.5-.4-.8-.5c-.3-.1-.7-.2-1.2-.2s-.9.1-1.3.3c-.4.2-.8.6-1.1 1.1-.3.5-.6 1.2-.7 2-.2.8-.3 1.8-.3 2.9 0 1.2.1 2.1.3 2.9s.4 1.4.7 1.9c.3.5.6.8 1 1.1s.8.3 1.2.3c.3 0 .6 0 .8-.1.2-.1.4-.1.6-.2.2-.1.3-.2.5-.3l.3-.3v-3.3h-2.3v-3.2h6.5v10.8h-2.8l-.4-1.5-.6.6c-.2.2-.5.4-.8.6s-.7.3-1.1.4-.9.2-1.5.2c-.9 0-1.8-.2-2.6-.6-.8-.4-1.5-1-2.1-1.7s-1.1-1.8-1.4-3c-.3-1.2-.5-2.7-.5-4.5 0-1.7.2-3.2.6-4.5.4-1.3 1-2.3 1.7-3.1.7-.8 1.5-1.4 2.5-1.8s2-.6 3-.6c.7 0 1.4.1 1.9.2.6.1 1.1.3 1.5.5.4.2.8.5 1.1.7l.8.8c.2.3.4.5.5.8l.3.6-3.5 2.1zM899.2 1037.1v-19.2h10.7v3.5h-6.5v3.9h6v3.6h-6v4.6h6.7v3.6h-10.9zM926.9 1027.2c0 .9-.1 1.7-.2 2.5s-.3 1.5-.6 2.1c-.3.6-.5 1.2-.9 1.7s-.7 1-1.1 1.4c-.8.8-1.8 1.4-2.9 1.7-1.1.3-2.3.5-3.7.5h-4.8v-19.2h5c.7 0 1.4 0 2.1.1l1.8.3c.6.1 1.1.3 1.6.6s.9.6 1.3.9c.8.7 1.4 1.7 1.8 2.9s.6 2.8.6 4.5zm-4.4.3c0-1.1-.1-2.1-.4-3-.2-.8-.6-1.5-1-1.9-.4-.4-.9-.7-1.4-.9-.5-.2-1.2-.3-2-.3h-1v12.1h1c.8 0 1.5-.1 2-.2.5-.2 1-.4 1.4-.9.2-.2.4-.5.6-.8.2-.3.3-.7.4-1.1.1-.4.2-.9.3-1.4.1-.5.1-1.1.1-1.6z"/></g><g class="st15"><path class="st19" d="M826.1 1053.4c0 1.1-.2 2.1-.5 2.9-.4.8-.9 1.5-1.5 2.1-.6.5-1.3.9-2.2 1.1s-1.7.3-2.7.3h-1.4v6.3h-4.1V1047h5.5c1.1 0 2.1.1 3 .4s1.6.7 2.2 1.2c.6.6 1 1.2 1.3 2 .3.7.4 1.7.4 2.8zm-4.1 0c0-.6-.1-1.2-.3-1.6-.2-.4-.4-.7-.6-.9-.2-.2-.5-.4-.9-.5-.4-.1-.8-.1-1.2-.1h-1.2v6.3h1.1c1 0 1.7-.2 2.2-.6.3-.2.5-.5.7-1 .1-.4.2-.9.2-1.6zM836.7 1066.2l-3.1-7.4h-1.2v7.4h-4.1V1047h5.8c1 0 1.9.1 2.7.3.8.2 1.5.5 2 .9.6.5 1.1 1.1 1.4 1.8.3.7.5 1.6.5 2.7 0 .7-.1 1.4-.2 2-.2.6-.4 1.1-.7 1.5-.3.4-.6.8-1 1.2s-.8.6-1.3.8l3.8 8h-4.6zm-.2-13.3c0-.9-.2-1.5-.7-2-.5-.4-1.2-.7-2.2-.7h-1.2v5.4h1.2c.9 0 1.6-.2 2.1-.7.6-.3.8-1 .8-2zM843.5 1066.2V1047h4.1v19.2h-4.1zM860.9 1066.2l-5.8-12.3v12.3h-3.8V1047h4.1l5.6 11.8V1047h3.9v19.2h-4zM875 1050.4v15.7h-4.2v-15.7h-4.1v-3.5h12.4v3.5H875z"/></g><g class="st15"><path class="st19" d="M896.2 1060.5c0 .9-.2 1.8-.5 2.5s-.8 1.4-1.4 1.9-1.3.9-2.1 1.2-1.7.4-2.6.4c-.8 0-1.5-.1-2.1-.3-.6-.2-1.2-.4-1.7-.6s-.9-.5-1.2-.8c-.3-.3-.6-.5-.7-.7l2.1-3.1.7.7c.3.3.5.4.9.6.3.2.6.3 1 .4.4.1.7.1 1.1.1.4 0 .8 0 1.1-.1.3-.1.5-.2.7-.4.2-.2.3-.4.4-.6.1-.2.1-.5.1-.7 0-.3-.1-.5-.2-.8-.1-.2-.3-.4-.5-.7-.2-.2-.5-.4-.8-.6-.3-.2-.7-.4-1.1-.6-.8-.4-1.5-.8-2.1-1.2-.6-.4-1.1-.8-1.5-1.2-.4-.4-.7-.9-.9-1.5-.2-.6-.3-1.2-.3-2 0-.9.2-1.7.5-2.4s.8-1.3 1.3-1.8c.6-.5 1.2-.9 2-1.1.7-.3 1.6-.4 2.4-.4.9 0 1.6.1 2.3.3s1.2.4 1.7.6c.5.2.8.5 1.1.7.3.2.4.4.5.5l-2.1 3-.6-.6c-.2-.2-.5-.4-.8-.5-.3-.1-.6-.3-.9-.4-.3-.1-.7-.1-1-.1-.7 0-1.2.2-1.6.5-.4.3-.5.8-.5 1.3 0 .3 0 .5.1.7.1.2.2.4.4.6s.5.4.8.6c.3.2.7.4 1.1.6.7.3 1.4.7 2 1 .6.4 1.1.8 1.6 1.2.4.5.8 1 1 1.6.2.7.3 1.4.3 2.2zM898.6 1066.2V1047h10.7v3.5h-6.5v3.9h6v3.6h-6v4.6h6.7v3.6h-10.9zM920.4 1066.2l-3.1-7.4h-1.2v7.4H912V1047h5.8c1 0 1.9.1 2.7.3.8.2 1.5.5 2 .9.6.5 1.1 1.1 1.4 1.8.3.7.5 1.6.5 2.7 0 .7-.1 1.4-.2 2-.2.6-.4 1.1-.7 1.5-.3.4-.6.8-1 1.2s-.8.6-1.3.8l3.8 8h-4.6zm-.1-13.3c0-.9-.2-1.5-.7-2-.5-.4-1.2-.7-2.2-.7h-1.2v5.4h1.2c.9 0 1.6-.2 2.1-.7.5-.3.8-1 .8-2zM935.9 1066.2h-5.5l-5-19.2h4.7l3.2 14.9 3.4-14.9h4.3l-5.1 19.2zM942.7 1066.2V1047h4.1v19.2h-4.1zM963.7 1062c-.1.4-.4.8-.7 1.3s-.7 1-1.2 1.5-1.2.9-1.9 1.2c-.8.3-1.7.5-2.7.5-1.1 0-2.2-.2-3.1-.6-.9-.4-1.7-1-2.4-1.8s-1.2-1.8-1.6-3.1c-.4-1.2-.6-2.7-.6-4.4 0-1.7.2-3.2.6-4.4.4-1.3 1-2.3 1.7-3.1.7-.8 1.5-1.5 2.5-1.9 1-.4 2-.6 3.1-.6 1 0 1.9.1 2.7.4.7.3 1.3.6 1.8 1s.9.9 1.2 1.3c.3.5.5.9.7 1.4l-3.4 1.8c0-.2-.1-.4-.3-.7-.1-.3-.3-.5-.5-.8s-.5-.5-.8-.6c-.3-.2-.8-.3-1.2-.3-1.2 0-2.1.5-2.7 1.6-.6 1-.9 2.6-.9 4.7s.3 3.7 1 4.8 1.5 1.6 2.6 1.6c.5 0 1-.1 1.3-.3.4-.2.7-.4.9-.7.2-.3.4-.5.5-.8.1-.3.2-.5.3-.7l3.1 1.7zM965.7 1066.2V1047h10.7v3.5h-6.5v3.9h6v3.6h-6v4.6h6.7v3.6h-10.9zM990 1060.5c0 .9-.2 1.8-.5 2.5s-.8 1.4-1.4 1.9c-.6.5-1.3.9-2.1 1.2-.8.3-1.7.4-2.6.4-.8 0-1.5-.1-2.1-.3-.6-.2-1.2-.4-1.7-.6-.5-.3-.9-.5-1.2-.8-.3-.3-.6-.5-.7-.7l2.1-3.1.7.7c.3.2.5.4.9.6.3.2.6.3 1 .4.4.1.7.1 1.1.1.4 0 .8 0 1.1-.1.3-.1.5-.2.7-.4.2-.2.3-.4.4-.6.1-.2.1-.5.1-.7 0-.3-.1-.5-.2-.8-.1-.2-.3-.4-.5-.7-.2-.2-.5-.4-.8-.6-.3-.2-.7-.4-1.1-.6-.8-.4-1.5-.8-2.1-1.2-.6-.4-1.1-.8-1.5-1.2s-.7-.9-.9-1.5-.3-1.2-.3-2c0-.9.2-1.7.5-2.4s.8-1.3 1.3-1.8c.6-.5 1.2-.9 2-1.1.7-.3 1.6-.4 2.4-.4.9 0 1.6.1 2.3.3s1.2.4 1.7.6.8.5 1.1.7c.3.2.4.4.5.5l-2.1 3-.6-.6c-.2-.2-.5-.4-.8-.5-.3-.1-.6-.3-.9-.4-.3-.1-.7-.1-1-.1-.7 0-1.2.2-1.6.5-.4.3-.5.8-.5 1.3 0 .3 0 .5.1.7.1.2.2.4.4.6s.5.4.8.6c.3.2.7.4 1.1.6.7.3 1.4.7 2 1 .6.4 1.1.8 1.6 1.2.4.5.8 1 1 1.6.1.7.3 1.4.3 2.2z"/></g><text transform="translate(991.083 1066.179)" class="st19 st17 st18"></text><g class="st15"><path class="st19" d="M1286.3 420v-20.4h4.4V420h-4.4zM1304.7 420l-6.2-13v13h-4.1v-20.4h4.3l5.9 12.5v-12.5h4.2V420h-4.1zM1319.7 403.3V420h-4.4v-16.7h-4.4v-3.7h13.2v3.7h-4.4zM1326.1 420v-20.4h11.3v3.7h-6.9v4.1h6.4v3.8h-6.4v4.9h7.1v3.8h-11.5zM1340.4 420v-20.4h4.4v16.5h6.5v3.8h-10.9zM1353.4 420v-20.4h4.4v16.5h6.5v3.8h-10.9zM1366.4 420v-20.4h4.4V420h-4.4zM1384.9 405.3c-.1-.2-.2-.5-.4-.7-.1-.3-.3-.5-.6-.7-.2-.2-.5-.4-.9-.5-.3-.1-.8-.2-1.3-.2s-1 .1-1.4.4c-.4.2-.8.6-1.2 1.2-.3.5-.6 1.2-.8 2.1-.2.9-.3 1.9-.3 3.1 0 1.2.1 2.3.3 3.1.2.8.4 1.5.7 2 .3.5.7.9 1.1 1.1.4.2.8.3 1.3.3.3 0 .6 0 .9-.1.2-.1.5-.1.6-.2.2-.1.3-.2.5-.3.1-.1.3-.2.3-.3v-3.5h-2.5v-3.4h6.9V420h-3l-.4-1.6c-.2.2-.4.4-.6.7-.2.2-.5.4-.9.6-.3.2-.7.3-1.2.4-.5.1-1 .2-1.6.2-1 0-1.9-.2-2.8-.6-.9-.4-1.6-1-2.2-1.8s-1.1-1.9-1.5-3.2-.5-2.9-.5-4.7c0-1.8.2-3.4.6-4.7.4-1.3 1-2.4 1.8-3.3.7-.9 1.6-1.5 2.6-1.9s2.1-.6 3.2-.6c.8 0 1.4.1 2 .2s1.1.3 1.6.6c.4.2.8.5 1.2.8.3.3.6.6.8.9.2.3.4.6.5.8.1.3.2.5.3.6l-3.1 1.9zM1391.5 420v-20.4h11.3v3.7h-6.9v4.1h6.4v3.8h-6.4v4.9h7.1v3.8h-11.5zM1416 420l-6.2-13v13h-4.1v-20.4h4.3l5.9 12.5v-12.5h4.2V420h-4.1zM1438.1 415.5c-.1.4-.4.9-.7 1.4-.3.5-.8 1.1-1.3 1.6s-1.2.9-2 1.3c-.8.3-1.8.5-2.9.5-1.2 0-2.3-.2-3.3-.6-1-.4-1.9-1-2.6-1.9s-1.3-1.9-1.7-3.2-.6-2.9-.6-4.6c0-1.8.2-3.3.6-4.7.4-1.3 1-2.4 1.8-3.3.7-.9 1.6-1.5 2.6-2 1-.4 2.1-.7 3.3-.7 1.1 0 2 .1 2.8.4s1.4.6 2 1.1c.5.4.9.9 1.2 1.4.3.5.5 1 .7 1.4l-3.6 1.9c-.1-.2-.1-.4-.3-.7-.1-.3-.3-.5-.5-.8-.2-.3-.5-.5-.9-.7s-.8-.3-1.3-.3c-1.2 0-2.2.6-2.8 1.7s-1 2.8-1 4.9c0 2.2.3 3.9 1 5s1.6 1.7 2.8 1.7c.6 0 1-.1 1.4-.3s.7-.4.9-.7c.3-.3.4-.6.6-.8.1-.3.2-.5.3-.7l3.5 1.7zM1440.1 420v-20.4h11.3v3.7h-6.9v4.1h6.4v3.8h-6.4v4.9h7.1v3.8h-11.5z"/></g><g class="st15"><path class="st19" d="M1300.4 454.4c-.1.4-.4.9-.7 1.4-.3.5-.8 1.1-1.3 1.6s-1.2.9-2 1.3c-.8.3-1.8.5-2.9.5-1.2 0-2.3-.2-3.3-.6-1-.4-1.9-1-2.6-1.9s-1.3-1.9-1.7-3.2-.6-2.9-.6-4.6c0-1.8.2-3.3.6-4.7.4-1.3 1-2.4 1.8-3.3.7-.9 1.6-1.5 2.6-2 1-.4 2.1-.7 3.3-.7 1.1 0 2 .1 2.8.4s1.4.6 2 1.1c.5.4.9.9 1.2 1.4.3.5.5 1 .7 1.4l-3.6 1.9c-.1-.2-.1-.4-.3-.7-.1-.3-.3-.5-.5-.8-.2-.3-.5-.5-.9-.7s-.8-.3-1.3-.3c-1.2 0-2.2.6-2.8 1.7s-1 2.8-1 4.9c0 2.2.3 3.9 1 5s1.6 1.7 2.8 1.7c.6 0 1-.1 1.4-.3s.7-.4.9-.7c.3-.3.4-.6.6-.8.1-.3.2-.5.3-.7l3.5 1.7zM1317.6 448.6c0 1.7-.2 3.2-.6 4.5s-.9 2.4-1.6 3.3c-.7.9-1.6 1.6-2.6 2-1 .5-2.1.7-3.4.7-1.2 0-2.4-.2-3.4-.7-1-.5-1.8-1.1-2.5-2-.7-.9-1.2-2-1.6-3.3-.4-1.3-.6-2.8-.6-4.5 0-1.7.2-3.2.6-4.5.4-1.3.9-2.4 1.6-3.3.7-.9 1.5-1.6 2.5-2 1-.5 2.1-.7 3.4-.7 1.3 0 2.4.2 3.4.7 1 .5 1.8 1.1 2.5 2 .7.9 1.2 2 1.6 3.3.5 1.4.7 2.9.7 4.5zm-4.6 0c0-1-.1-2-.2-2.8s-.4-1.5-.6-2.1-.7-1-1.1-1.3-1-.5-1.5-.5-1.1.2-1.5.5c-.4.3-.8.8-1.1 1.3-.3.6-.5 1.3-.6 2.1-.1.8-.2 1.8-.2 2.8 0 1 .1 2 .2 2.8.1.8.4 1.5.6 2.1.3.6.6 1 1.1 1.3.4.3.9.5 1.5.5s1.1-.2 1.6-.5c.4-.3.8-.8 1.1-1.3.3-.6.5-1.3.6-2.1s.1-1.7.1-2.8zM1320.4 458.8v-20.4h4.4V455h6.5v3.8h-10.9zM1333.4 458.8v-20.4h4.4V455h6.5v3.8h-10.9zM1356.5 458.8l-1.1-4.3h-5.4l-1 4.3h-4.5l5.5-20.4h6l5.4 20.4h-4.9zm-3.8-16.3l-2 8.7h3.9l-1.9-8.7zM1376.9 452.9c0 .5-.1 1-.2 1.5s-.3.9-.5 1.3-.4.7-.7 1c-.3.3-.5.6-.8.8-.4.3-.8.5-1.2.7-.4.2-.9.3-1.4.4-.5.1-1 .2-1.6.2-.6 0-1.2.1-1.8.1h-5.7v-20.4h7.3c.5 0 1 .1 1.5.2l1.2.3c.4.1.7.3 1 .5.6.4 1 .9 1.4 1.5.3.6.5 1.5.5 2.5s-.3 1.9-.8 2.7c-.5.8-1.3 1.4-2.3 1.7 1.4.3 2.4.8 3 1.7.8.9 1.1 2 1.1 3.3zm-5.3-8.7c0-.5-.1-.9-.3-1.2-.2-.3-.4-.5-.7-.7-.3-.2-.6-.3-1-.3s-.7-.1-1.1-.1h-1.2v4.8h1.1c.3 0 .7 0 1-.1.4-.1.7-.2 1-.3.3-.2.5-.4.7-.8s.5-.8.5-1.3zm.8 8.4c0-.6-.1-1-.3-1.4-.2-.4-.4-.7-.7-.9s-.7-.4-1-.5c-.4-.1-.8-.1-1.2-.1h-1.7v5.7h1.7c.4 0 .8 0 1.2-.1.4-.1.7-.2 1-.5s.5-.5.7-.9c.2-.2.3-.7.3-1.3zM1394.7 448.6c0 1.7-.2 3.2-.6 4.5-.4 1.3-.9 2.4-1.6 3.3-.7.9-1.6 1.6-2.6 2s-2.1.7-3.4.7c-1.2 0-2.4-.2-3.4-.7-1-.5-1.8-1.1-2.5-2-.7-.9-1.2-2-1.6-3.3s-.6-2.8-.6-4.5c0-1.7.2-3.2.6-4.5.4-1.3.9-2.4 1.6-3.3.7-.9 1.5-1.6 2.5-2 1-.5 2.1-.7 3.4-.7 1.3 0 2.4.2 3.4.7 1 .5 1.8 1.1 2.5 2 .7.9 1.2 2 1.6 3.3.5 1.4.7 2.9.7 4.5zm-4.7 0c0-1-.1-2-.2-2.8-.1-.8-.4-1.5-.6-2.1-.3-.6-.6-1-1.1-1.3-.4-.3-1-.5-1.5-.5-.6 0-1.1.2-1.5.5s-.8.8-1.1 1.3c-.3.6-.5 1.3-.6 2.1s-.2 1.8-.2 2.8c0 1 .1 2 .2 2.8s.4 1.5.6 2.1c.3.6.6 1 1.1 1.3s.9.5 1.5.5 1.1-.2 1.6-.5c.4-.3.8-.8 1.1-1.3.3-.6.5-1.3.6-2.1.1-.8.1-1.7.1-2.8zM1406.3 458.8l-3.3-7.8h-1.2v7.8h-4.4v-20.4h6.1c1.1 0 2 .1 2.9.3.8.2 1.6.5 2.2 1 .7.5 1.2 1.1 1.5 1.9.4.8.5 1.7.5 2.9 0 .8-.1 1.5-.3 2.1-.2.6-.4 1.2-.7 1.6-.3.5-.7.9-1.1 1.2-.4.3-.9.6-1.3.9l4 8.5h-4.9zm-.1-14c0-.9-.2-1.6-.7-2.1-.5-.5-1.3-.7-2.3-.7h-1.3v5.7h1.3c1 0 1.7-.2 2.2-.7.5-.4.8-1.2.8-2.2zM1423.6 458.8l-1.1-4.3h-5.4l-1 4.3h-4.5l5.5-20.4h6l5.4 20.4h-4.9zm-3.7-16.3l-2 8.7h3.9l-1.9-8.7zM1436 442.2v16.7h-4.4v-16.7h-4.4v-3.7h13.2v3.7h-4.4zM1442.3 458.8v-20.4h4.4v20.4h-4.4zM1465.6 448.6c0 1.7-.2 3.2-.6 4.5-.4 1.3-.9 2.4-1.6 3.3-.7.9-1.6 1.6-2.6 2-1 .5-2.1.7-3.4.7-1.2 0-2.4-.2-3.4-.7-1-.5-1.8-1.1-2.5-2-.7-.9-1.2-2-1.6-3.3s-.6-2.8-.6-4.5c0-1.7.2-3.2.6-4.5.4-1.3.9-2.4 1.6-3.3.7-.9 1.5-1.6 2.5-2 1-.5 2.1-.7 3.4-.7 1.3 0 2.4.2 3.4.7 1 .5 1.8 1.1 2.5 2 .7.9 1.2 2 1.6 3.3.6 1.4.7 2.9.7 4.5zm-4.6 0c0-1-.1-2-.2-2.8-.1-.8-.4-1.5-.6-2.1s-.7-1-1.1-1.3c-.4-.3-1-.5-1.5-.5s-1.1.2-1.5.5c-.4.3-.8.8-1.1 1.3s-.5 1.3-.6 2.1-.2 1.8-.2 2.8c0 1 .1 2 .2 2.8s.4 1.5.6 2.1.6 1 1.1 1.3c.4.3.9.5 1.5.5s1.1-.2 1.6-.5c.4-.3.8-.8 1.1-1.3.3-.6.5-1.3.6-2.1 0-.8.1-1.7.1-2.8zM1478.7 458.8l-6.2-13v13h-4.1v-20.4h4.3l5.9 12.5v-12.5h4.2v20.4h-4.1z"/></g><text transform="translate(1484.808 461.475)" class="st19 st17 st21"></text><g class="st15"><path class="st19" d="M1297.8 491.7c0 1-.2 1.9-.5 2.7-.4.8-.8 1.4-1.5 2s-1.4 1-2.2 1.3c-.9.3-1.8.4-2.8.4-.8 0-1.6-.1-2.3-.3-.7-.2-1.3-.4-1.8-.7-.5-.3-.9-.5-1.3-.8-.3-.3-.6-.5-.8-.8l2.2-3.2c.2.2.4.5.7.7l.9.6c.3.2.7.3 1.1.4.4.1.8.1 1.2.1.4 0 .8-.1 1.1-.2s.6-.2.8-.4.4-.4.5-.6.1-.5.1-.8c0-.3-.1-.6-.2-.8-.1-.2-.3-.5-.5-.7s-.5-.4-.8-.6c-.3-.2-.7-.4-1.1-.6-.8-.4-1.6-.8-2.2-1.2s-1.2-.8-1.6-1.3c-.4-.5-.7-1-1-1.6-.2-.6-.3-1.3-.3-2.1 0-1 .2-1.8.5-2.6s.8-1.4 1.4-1.9 1.3-.9 2.1-1.2c.8-.3 1.6-.4 2.6-.4.9 0 1.7.1 2.4.3s1.3.4 1.8.7c.5.3.9.5 1.2.8.3.3.5.4.5.6l-2.2 3.2-.6-.6c-.2-.2-.5-.4-.8-.5-.3-.2-.6-.3-1-.4-.4-.1-.7-.1-1.1-.1-.8 0-1.3.2-1.7.5s-.6.8-.6 1.4c0 .3 0 .5.1.7s.3.4.5.7c.2.2.5.4.8.6.3.2.7.4 1.1.6.8.4 1.5.7 2.1 1.1s1.2.8 1.7 1.3.8 1 1.1 1.7c.3.4.4 1.1.4 2zM1300.3 497.7v-20.4h11.3v3.7h-6.9v4.1h6.4v3.8h-6.4v4.9h7.1v3.8h-11.5zM1328.7 493.3c-.1.4-.4.9-.7 1.4-.3.5-.8 1.1-1.3 1.6s-1.2.9-2 1.3c-.8.3-1.8.5-2.9.5-1.2 0-2.3-.2-3.3-.6-1-.4-1.9-1-2.6-1.9s-1.3-1.9-1.7-3.2-.6-2.9-.6-4.6c0-1.8.2-3.3.6-4.7.4-1.3 1-2.4 1.8-3.3.7-.9 1.6-1.5 2.6-2 1-.4 2.1-.7 3.3-.7 1.1 0 2 .1 2.8.4s1.4.6 2 1.1c.5.4.9.9 1.2 1.4.3.5.5 1 .7 1.4l-3.6 1.9c-.1-.2-.1-.4-.3-.7-.1-.3-.3-.5-.5-.8-.2-.3-.5-.5-.9-.7s-.8-.3-1.3-.3c-1.2 0-2.2.6-2.8 1.7s-1 2.8-1 4.9c0 2.2.3 3.9 1 5s1.6 1.7 2.8 1.7c.6 0 1-.1 1.4-.3s.7-.4.9-.7c.3-.3.4-.6.6-.8.1-.3.2-.5.3-.7l3.5 1.7zM1340.7 477.4h4.4v12.7c0 .7 0 1.4-.1 1.9-.1.6-.2 1.1-.3 1.6-.1.5-.3.9-.5 1.3s-.5.8-.8 1.1c-.6.6-1.3 1.1-2.2 1.5-.9.3-2 .5-3.3.5-1.3 0-2.4-.2-3.3-.5-.9-.3-1.7-.8-2.3-1.6-.3-.3-.5-.7-.7-1-.2-.4-.4-.8-.5-1.3-.1-.5-.2-1-.3-1.6-.1-.6-.1-1.3-.1-2v-12.7h4.4v13.1c0 .7.1 1.3.2 1.7.1.4.3.8.5 1.1.5.6 1.2.8 2.1.8.4 0 .8-.1 1.1-.2.4-.1.7-.3 1-.6.2-.3.4-.7.5-1.1.1-.4.2-1 .2-1.7v-13zM1357.7 497.7l-3.3-7.8h-1.2v7.8h-4.4v-20.4h6.1c1.1 0 2 .1 2.9.3.8.2 1.6.5 2.2 1 .7.5 1.2 1.1 1.5 1.9.4.8.5 1.7.5 2.9 0 .8-.1 1.5-.3 2.1-.2.6-.4 1.2-.7 1.6-.3.5-.7.9-1.1 1.2-.4.3-.9.6-1.3.9l4 8.5h-4.9zm-.2-14c0-.9-.2-1.6-.7-2.1-.5-.5-1.3-.7-2.3-.7h-1.3v5.7h1.3c1 0 1.7-.2 2.2-.7.5-.5.8-1.2.8-2.2zM1364.9 497.7v-20.4h4.4v20.4h-4.4zM1380.1 481v16.7h-4.4V481h-4.4v-3.7h13.2v3.7h-4.4zM1394.7 489.4v8.3h-4.4v-8.3l-5.7-12.1h4.8l3.1 8.5 3.2-8.5h4.8l-5.8 12.1z"/></g><text transform="translate(1401.667 499.981)" class="st19 st17 st21"></text><g class="st15"><path class="st19" d="M1295.2 536.6l-3.3-7.8h-1.2v7.8h-4.4v-20.4h6.1c1.1 0 2 .1 2.9.3.8.2 1.6.5 2.2 1 .7.5 1.2 1.1 1.5 1.9.4.8.5 1.7.5 2.9 0 .8-.1 1.5-.3 2.1-.2.6-.4 1.2-.7 1.6s-.7.9-1.1 1.2c-.4.3-.9.6-1.3.9l4 8.5h-4.9zm-.2-14c0-.9-.2-1.6-.7-2.1-.5-.5-1.3-.7-2.3-.7h-1.3v5.7h1.3c.9 0 1.7-.2 2.2-.7.6-.5.8-1.2.8-2.2zM1302.5 536.6v-20.4h11.3v3.7h-6.9v4.1h6.4v3.8h-6.4v4.9h7.1v3.8h-11.5zM1328.2 530.6c0 1-.2 1.9-.5 2.7-.4.8-.8 1.4-1.5 2s-1.4 1-2.2 1.3c-.9.3-1.8.4-2.8.4-.8 0-1.6-.1-2.3-.3-.7-.2-1.3-.4-1.8-.7-.5-.3-.9-.5-1.3-.8-.3-.3-.6-.5-.8-.8l2.2-3.2c.2.2.4.5.7.7l.9.6c.3.2.7.3 1.1.4.4.1.8.1 1.2.1.4 0 .8-.1 1.1-.2s.6-.2.8-.4.4-.4.5-.6.1-.5.1-.8c0-.3-.1-.6-.2-.8-.1-.2-.3-.5-.5-.7s-.5-.4-.8-.6c-.3-.2-.7-.4-1.1-.6-.8-.4-1.6-.8-2.2-1.2s-1.2-.8-1.6-1.3c-.4-.5-.7-1-1-1.6-.2-.6-.3-1.3-.3-2.1 0-1 .2-1.8.5-2.6s.8-1.4 1.4-1.9 1.3-.9 2.1-1.2c.8-.3 1.6-.4 2.6-.4.9 0 1.7.1 2.4.3s1.3.4 1.8.7c.5.3.9.5 1.2.8.3.3.5.4.5.6l-2.2 3.2-.6-.6c-.2-.2-.5-.4-.8-.5-.3-.2-.6-.3-1-.4-.4-.1-.7-.1-1.1-.1-.8 0-1.3.2-1.7.5s-.6.8-.6 1.4c0 .3 0 .5.1.7s.3.4.5.7c.2.2.5.4.8.6.3.2.7.4 1.1.6.8.4 1.5.7 2.1 1.1s1.2.8 1.7 1.3.8 1 1.1 1.7c.3.4.4 1.1.4 2zM1330.7 536.6v-20.4h4.4v20.4h-4.4zM1338.9 536.6v-20.4h4.4v16.5h6.5v3.8h-10.9zM1351.9 536.6v-20.4h4.4v20.4h-4.4zM1360.1 536.6v-20.4h11.3v3.7h-6.9v4.1h6.4v3.8h-6.4v4.9h7.1v3.8h-11.5zM1384.6 536.6l-6.2-13v13h-4.1v-20.4h4.3l5.9 12.5v-12.5h4.2v20.4h-4.1zM1406.6 532.2c-.1.4-.4.9-.7 1.4-.3.5-.8 1.1-1.3 1.6s-1.2.9-2 1.3-1.8.5-2.9.5c-1.2 0-2.3-.2-3.3-.6-1-.4-1.9-1-2.6-1.9-.7-.9-1.3-1.9-1.7-3.2s-.6-2.9-.6-4.6c0-1.8.2-3.3.6-4.7.4-1.3 1-2.4 1.8-3.3.7-.9 1.6-1.5 2.6-2 1-.4 2.1-.7 3.3-.7 1.1 0 2 .1 2.8.4s1.4.6 2 1.1c.5.4.9.9 1.2 1.4s.5 1 .7 1.4l-3.6 1.9c-.1-.2-.1-.4-.3-.7-.1-.3-.3-.5-.5-.8-.2-.3-.5-.5-.9-.7s-.8-.3-1.3-.3c-1.2 0-2.2.6-2.8 1.7-.6 1.1-1 2.8-1 4.9 0 2.2.3 3.9 1 5s1.6 1.7 2.8 1.7c.6 0 1-.1 1.4-.3.4-.2.7-.4.9-.7.3-.3.4-.6.6-.8.1-.3.2-.5.3-.7l3.5 1.7zM1416.9 528.3v8.3h-4.4v-8.3l-5.7-12.1h4.8l3.2 8.5 3.1-8.5h4.8l-5.8 12.1z"/></g><text transform="translate(1421.975 538.488)" class="st19 st17 st21"></text><g class="st15"><path class="st19" d="M1290.7 558.9v4.9h5.9v3.9h-5.9v7.9h-4.4v-20.4h10.9v3.7h-6.5zM1299.5 575.5v-20.4h4.4v16.5h6.5v3.8h-10.9zM1312.5 575.5v-20.4h11.3v3.7h-6.9v4.1h6.4v3.8h-6.4v4.9h7.1v3.8h-11.5zM1336.4 575.5l-3.1-7.6-3.2 7.6h-5.2l5.4-10.5-4.9-9.9h5.1l2.7 7 2.8-7h5l-4.8 9.9 5.3 10.5h-5.1zM1343.5 575.5v-20.4h4.4v20.4h-4.4zM1365.5 569.6c0 .5-.1 1-.2 1.5s-.3.9-.5 1.3-.4.7-.7 1c-.3.3-.5.6-.8.8-.4.3-.8.5-1.2.7-.4.2-.9.3-1.4.4-.5.1-1 .2-1.6.2-.6 0-1.2.1-1.8.1h-5.7v-20.4h7.3c.5 0 1 .1 1.5.2l1.2.3c.4.1.7.3 1.1.5.6.4 1 .9 1.4 1.5.3.6.5 1.5.5 2.5s-.3 1.9-.8 2.7c-.5.8-1.3 1.4-2.3 1.7 1.4.3 2.4.8 3 1.7s1 1.9 1 3.3zm-5.3-8.8c0-.5-.1-.9-.3-1.2-.2-.3-.4-.5-.7-.7-.3-.2-.6-.3-1-.3s-.7-.1-1.1-.1h-1.2v4.8h1.1c.3 0 .7 0 1-.1.4-.1.7-.2 1-.3.3-.2.5-.4.7-.8.4-.3.5-.7.5-1.3zm.8 8.5c0-.6-.1-1-.3-1.4-.2-.4-.4-.7-.7-.9s-.7-.4-1-.5-.8-.1-1.2-.1h-1.7v5.7h1.7c.4 0 .8 0 1.2-.1s.7-.2 1-.5.5-.5.7-.9c.2-.3.3-.8.3-1.3zM1368.1 575.5v-20.4h4.4v20.4h-4.4zM1376.2 575.5v-20.4h4.4v16.5h6.5v3.8h-10.9zM1389.3 575.5v-20.4h4.4v20.4h-4.4zM1404.5 558.8v16.7h-4.4v-16.7h-4.4v-3.7h13.2v3.7h-4.4zM1419.1 567.2v8.3h-4.4v-8.3l-5.7-12.1h4.8l3.2 8.5 3.1-8.5h4.8l-5.8 12.1z"/></g><text transform="translate(1424.032 576.994)" class="st19 st17 st21"></text><g class="st15"><path class="st19" d="M1300.9 614.4l-.1-14.9-3.4 14.9h-3.9l-3.4-14.9-.1 14.9h-4l.5-20.4h6.1l3 14.3 3.1-14.3h5.9l.5 20.4h-4.2zM1323.7 604.2c0 1.7-.2 3.2-.6 4.5-.4 1.3-.9 2.4-1.6 3.3-.7.9-1.6 1.6-2.6 2-1 .5-2.1.7-3.4.7-1.2 0-2.4-.2-3.4-.7-1-.5-1.8-1.1-2.5-2-.7-.9-1.2-2-1.6-3.3s-.6-2.8-.6-4.5c0-1.7.2-3.2.6-4.5.4-1.3.9-2.4 1.6-3.3.7-.9 1.5-1.6 2.5-2 1-.5 2.1-.7 3.4-.7 1.3 0 2.4.2 3.4.7 1 .5 1.8 1.1 2.5 2 .7.9 1.2 2 1.6 3.3.5 1.3.7 2.8.7 4.5zm-4.6-.1c0-1-.1-2-.2-2.8-.1-.8-.4-1.5-.6-2.1s-.7-1-1.1-1.3c-.4-.3-1-.5-1.5-.5s-1.1.2-1.5.5c-.4.3-.8.8-1.1 1.3s-.5 1.3-.6 2.1-.2 1.8-.2 2.8c0 1 .1 2 .2 2.8s.4 1.5.6 2.1.6 1 1.1 1.3c.4.3.9.5 1.5.5s1.1-.2 1.6-.5c.4-.3.8-.8 1.1-1.3.3-.6.5-1.3.6-2.1 0-.8.1-1.7.1-2.8zM1340.4 608.4c0 .5-.1 1-.2 1.5s-.3.9-.5 1.3-.4.7-.7 1-.5.6-.8.8c-.4.3-.8.5-1.2.7s-.9.3-1.4.4c-.5.1-1 .2-1.6.2-.6 0-1.2.1-1.8.1h-5.7V594h7.3c.5 0 1 .1 1.5.2l1.2.3c.4.1.7.3 1 .5.6.4 1 .9 1.4 1.5.3.6.5 1.5.5 2.5s-.3 1.9-.8 2.7c-.5.8-1.3 1.4-2.3 1.7 1.4.3 2.4.8 3 1.7.7.9 1.1 2 1.1 3.3zm-5.4-8.7c0-.5-.1-.9-.3-1.2-.2-.3-.4-.5-.7-.7s-.6-.3-1-.3-.7-.1-1.1-.1h-1.2v4.8h1.1c.3 0 .7 0 1-.1.4-.1.7-.2 1-.3.3-.2.5-.4.7-.8.4-.3.5-.7.5-1.3zm.8 8.5c0-.6-.1-1-.3-1.4-.2-.4-.4-.7-.7-.9-.3-.2-.7-.4-1-.5s-.8-.1-1.2-.1h-1.7v5.7h1.7c.4 0 .8 0 1.2-.1s.7-.2 1-.5c.3-.2.5-.5.7-.9.2-.3.3-.8.3-1.3zM1342.9 614.4V594h4.4v20.4h-4.4zM1351.1 614.4V594h4.4v16.5h6.5v3.8h-10.9zM1364.1 614.4V594h4.4v20.4h-4.4zM1379.3 597.7v16.7h-4.4v-16.7h-4.4V594h13.2v3.7h-4.4zM1393.9 606.1v8.3h-4.4v-8.3l-5.7-12.1h4.8l3.1 8.5 3.1-8.5h4.8l-5.7 12.1z"/></g><text transform="translate(1399.034 615.501)" class="st19 st17 st21"></text><g class="st15"><path class="st19" d="M1299.5 639.8c0 1.2-.2 2.2-.6 3.1-.4.9-.9 1.6-1.6 2.2-.6.6-1.4 1-2.3 1.2s-1.8.3-2.9.3h-1.5v6.7h-4.4v-20.4h5.8c1.2 0 2.3.1 3.2.4.9.3 1.7.7 2.4 1.3.6.6 1.1 1.3 1.4 2.1.4.8.5 1.8.5 3.1zm-4.4 0c0-.7-.1-1.2-.3-1.7-.2-.4-.4-.8-.6-1-.2-.3-.6-.4-.9-.5s-.8-.2-1.2-.2h-1.3v6.7h1.1c1.1 0 1.8-.2 2.3-.7.3-.2.5-.6.7-1 .1-.4.2-1 .2-1.6zM1310.7 653.3l-3.3-7.8h-1.2v7.8h-4.4v-20.4h6.1c1.1 0 2 .1 2.9.3.8.2 1.6.5 2.2 1 .7.5 1.2 1.1 1.5 1.9.4.8.5 1.7.5 2.9 0 .8-.1 1.5-.3 2.1-.2.6-.4 1.2-.7 1.6s-.7.9-1.1 1.2c-.4.3-.9.6-1.3.9l4 8.5h-4.9zm-.2-14.1c0-.9-.2-1.6-.7-2.1-.5-.5-1.3-.7-2.3-.7h-1.3v5.7h1.3c.9 0 1.7-.2 2.2-.7.6-.4.8-1.2.8-2.2zM1333.1 643.1c0 1.7-.2 3.2-.6 4.5s-.9 2.4-1.6 3.3c-.7.9-1.6 1.6-2.6 2-1 .5-2.1.7-3.4.7-1.2 0-2.4-.2-3.4-.7-1-.5-1.8-1.1-2.5-2-.7-.9-1.2-2-1.6-3.3-.4-1.3-.6-2.8-.6-4.5 0-1.7.2-3.2.6-4.5.4-1.3.9-2.4 1.6-3.3.7-.9 1.5-1.6 2.5-2 1-.5 2.1-.7 3.4-.7 1.3 0 2.4.2 3.4.7 1 .5 1.8 1.1 2.5 2 .7.9 1.2 2 1.6 3.3.5 1.3.7 2.8.7 4.5zm-4.6-.1c0-1-.1-2-.2-2.8s-.4-1.5-.6-2.1-.7-1-1.1-1.3-1-.5-1.5-.5-1.1.2-1.5.5c-.4.3-.8.8-1.1 1.3-.3.6-.5 1.3-.6 2.1-.1.8-.2 1.8-.2 2.8 0 1 .1 2 .2 2.8.1.8.4 1.5.6 2.1.3.6.6 1 1.1 1.3.4.3.9.5 1.5.5s1.1-.2 1.6-.5c.4-.3.8-.8 1.1-1.3.3-.6.5-1.3.6-2.1s.1-1.7.1-2.8zM1351 642.8c0 .9-.1 1.8-.2 2.6-.2.8-.4 1.6-.6 2.2-.3.7-.6 1.3-.9 1.8-.4.5-.7 1-1.2 1.4-.9.8-1.9 1.4-3 1.8-1.1.3-2.5.5-4 .5h-5.1v-20.4h5.3c.8 0 1.5 0 2.2.1.7.1 1.3.2 1.9.3.6.2 1.1.4 1.7.6.5.3 1 .6 1.4 1 .8.8 1.5 1.8 1.9 3.1s.6 3.1.6 5zm-4.6.2c0-1.2-.1-2.3-.4-3.1-.3-.9-.6-1.6-1-2-.4-.5-.9-.8-1.4-1-.5-.2-1.3-.3-2.1-.3h-1.1v12.8h1c.8 0 1.5-.1 2.1-.3.6-.2 1.1-.5 1.5-.9.2-.2.4-.5.6-.9.2-.4.3-.8.5-1.2s.2-.9.3-1.5 0-1 0-1.6zM1363.7 632.9h4.4v12.7c0 .7 0 1.4-.1 1.9-.1.6-.2 1.1-.3 1.6-.1.5-.3.9-.5 1.3s-.5.8-.8 1.1c-.6.6-1.3 1.1-2.2 1.5-.9.3-2 .5-3.3.5-1.3 0-2.3-.2-3.3-.5-.9-.3-1.7-.8-2.3-1.6-.3-.3-.5-.7-.7-1-.2-.4-.4-.8-.5-1.3-.1-.5-.2-1-.3-1.6-.1-.6-.1-1.3-.1-2v-12.7h4.4V646c0 .7.1 1.3.2 1.7.1.4.3.8.5 1.1.5.6 1.2.8 2.1.8.4 0 .8-.1 1.1-.2.4-.1.7-.3 1-.6.3-.3.4-.7.5-1.1.1-.4.2-1 .2-1.7v-13.1zM1385.9 648.8c-.1.4-.4.9-.7 1.4-.3.5-.8 1.1-1.3 1.6s-1.2.9-2 1.3c-.8.3-1.8.5-2.9.5-1.2 0-2.3-.2-3.3-.6-1-.4-1.9-1-2.6-1.9s-1.3-1.9-1.7-3.2-.6-2.9-.6-4.6c0-1.8.2-3.3.6-4.7.4-1.3 1-2.4 1.8-3.3.7-.9 1.6-1.5 2.6-2 1-.4 2.1-.7 3.3-.7 1.1 0 2 .1 2.8.4s1.4.6 2 1.1c.5.4.9.9 1.2 1.4.3.5.5 1 .7 1.4l-3.6 1.9c-.1-.2-.1-.4-.3-.7-.1-.3-.3-.5-.5-.8-.2-.3-.5-.5-.9-.7s-.8-.3-1.3-.3c-1.2 0-2.2.6-2.8 1.7s-1 2.8-1 4.9c0 2.2.3 3.9 1 5s1.6 1.7 2.8 1.7c.6 0 1-.1 1.4-.3s.7-.4.9-.7c.3-.3.4-.6.6-.8.1-.3.2-.5.3-.7l3.5 1.7zM1395 636.6v16.7h-4.4v-16.7h-4.4v-3.7h13.2v3.7h-4.4zM1401.3 653.3v-20.4h4.4v20.4h-4.4zM1418.6 653.3h-5.8l-5.3-20.4h4.9l3.4 15.8 3.6-15.8h4.6l-5.4 20.4zM1425.9 653.3v-20.4h4.4v20.4h-4.4zM1441.1 636.6v16.7h-4.4v-16.7h-4.4v-3.7h13.2v3.7h-4.4zM1455.7 645v8.3h-4.4V645l-5.7-12.1h4.8l3.1 8.5 3.1-8.5h4.8l-5.7 12.1z"/></g><text transform="translate(1462.085 654.007)" class="st19 st17 st21"></text><text transform="translate(1477.234 692.514)" class="st19 st17 st21"></text><g class="st15"><path class="st19" d="M1286.3 731v-20.4h11.3v3.7h-6.9v4.1h6.4v3.8h-6.4v4.9h7.1v3.8h-11.5zM1305 714.4v4.9h5.9v3.9h-5.9v7.9h-4.4v-20.4h10.9v3.7h-6.5zM1318.2 714.4v4.9h5.9v3.9h-5.9v7.9h-4.4v-20.4h10.9v3.7h-6.5zM1327 731v-20.4h4.4V731h-4.4zM1349.2 726.6c-.1.4-.4.9-.7 1.4-.3.5-.8 1.1-1.3 1.6s-1.2.9-2 1.3-1.8.5-2.9.5c-1.2 0-2.3-.2-3.3-.6-1-.4-1.9-1-2.6-1.9-.7-.9-1.3-1.9-1.7-3.2-.4-1.3-.6-2.9-.6-4.6 0-1.8.2-3.3.6-4.7s1-2.4 1.8-3.3c.7-.9 1.6-1.5 2.6-2 1-.4 2.1-.7 3.3-.7 1.1 0 2.1.1 2.8.4.8.3 1.4.6 2 1.1s.9.9 1.2 1.4.5 1 .7 1.4l-3.6 1.9c-.1-.2-.1-.4-.3-.7-.1-.3-.3-.5-.5-.8s-.5-.5-.9-.7c-.4-.2-.8-.3-1.3-.3-1.2 0-2.2.6-2.8 1.7-.6 1.1-1 2.8-1 4.9 0 2.2.3 3.9 1 5s1.6 1.7 2.8 1.7c.6 0 1-.1 1.4-.3.4-.2.7-.4.9-.7.2-.3.4-.6.6-.8s.2-.5.3-.7l3.5 1.7zM1351.3 731v-20.4h4.4V731h-4.4zM1359.4 731v-20.4h11.3v3.7h-6.9v4.1h6.4v3.8h-6.4v4.9h7.1v3.8h-11.5zM1383.9 731l-6.2-13v13h-4.1v-20.4h4.3l5.9 12.5v-12.5h4.2V731h-4.1zM1406 726.6c-.1.4-.4.9-.7 1.4-.3.5-.8 1.1-1.3 1.6s-1.2.9-2 1.3-1.8.5-2.9.5c-1.2 0-2.3-.2-3.3-.6-1-.4-1.9-1-2.6-1.9-.7-.9-1.3-1.9-1.7-3.2s-.6-2.9-.6-4.6c0-1.8.2-3.3.6-4.7.4-1.3 1-2.4 1.8-3.3.7-.9 1.6-1.5 2.6-2 1-.4 2.1-.7 3.3-.7 1.1 0 2 .1 2.8.4s1.4.6 2 1.1c.5.4.9.9 1.2 1.4s.5 1 .7 1.4l-3.6 1.9c-.1-.2-.1-.4-.3-.7-.1-.3-.3-.5-.5-.8-.2-.3-.5-.5-.9-.7s-.8-.3-1.3-.3c-1.2 0-2.2.6-2.8 1.7-.6 1.1-1 2.8-1 4.9 0 2.2.3 3.9 1 5s1.6 1.7 2.8 1.7c.6 0 1-.1 1.4-.3.4-.2.7-.4.9-.7.3-.3.4-.6.6-.8.1-.3.2-.5.3-.7l3.5 1.7zM1416.3 722.7v8.3h-4.4v-8.3l-5.7-12.1h4.8l3.2 8.5 3.1-8.5h4.8l-5.8 12.1z"/></g><g class="st15"><path class="st19" d="M1297.8 686.1c0 1-.2 1.9-.5 2.7-.4.8-.8 1.4-1.5 2s-1.4 1-2.2 1.3c-.9.3-1.8.4-2.8.4-.8 0-1.6-.1-2.3-.3-.7-.2-1.3-.4-1.8-.7-.5-.3-.9-.5-1.3-.8-.3-.3-.6-.5-.8-.8l2.2-3.2c.2.2.4.5.7.7l.9.6c.3.2.7.3 1.1.4.4.1.8.1 1.2.1.4 0 .8-.1 1.1-.2s.6-.2.8-.4.4-.4.5-.6.1-.5.1-.8c0-.3-.1-.6-.2-.8-.1-.2-.3-.5-.5-.7s-.5-.4-.8-.6c-.3-.2-.7-.4-1.1-.6-.8-.4-1.6-.8-2.2-1.2s-1.2-.8-1.6-1.3c-.4-.5-.7-1-1-1.6-.2-.6-.3-1.3-.3-2.1 0-1 .2-1.8.5-2.6s.8-1.4 1.4-1.9 1.3-.9 2.1-1.2c.8-.3 1.6-.4 2.6-.4.9 0 1.7.1 2.4.3s1.3.4 1.8.7c.5.3.9.5 1.2.8.3.3.5.4.5.6l-2.2 3.2-.6-.6c-.2-.2-.5-.4-.8-.5-.3-.2-.6-.3-1-.4-.4-.1-.7-.1-1.1-.1-.8 0-1.3.2-1.7.5s-.6.8-.6 1.4c0 .3 0 .5.1.7s.3.4.5.7c.2.2.5.4.8.6.3.2.7.4 1.1.6.8.4 1.5.7 2.1 1.1s1.2.8 1.7 1.3.8 1 1.1 1.7c.3.4.4 1.1.4 2zM1310.3 671.8h4.4v12.7c0 .7 0 1.4-.1 1.9-.1.6-.2 1.1-.3 1.6-.1.5-.3.9-.5 1.3s-.5.8-.8 1.1c-.6.6-1.3 1.1-2.2 1.5-.9.3-2 .5-3.3.5-1.3 0-2.4-.2-3.3-.5-.9-.3-1.7-.8-2.3-1.6-.3-.3-.5-.7-.7-1s-.4-.8-.5-1.3c-.1-.5-.2-1-.3-1.6s-.1-1.3-.1-2v-12.7h4.4v13.1c0 .7.1 1.3.2 1.7.1.4.3.8.5 1.1.5.6 1.2.8 2.1.8.4 0 .8-.1 1.1-.2s.7-.3 1-.6c.3-.3.4-.7.5-1.1.1-.4.2-1 .2-1.7v-13zM1329.9 686.1c0 1-.2 1.9-.5 2.7-.4.8-.8 1.4-1.5 2s-1.4 1-2.2 1.3c-.9.3-1.8.4-2.8.4-.8 0-1.6-.1-2.3-.3-.7-.2-1.3-.4-1.8-.7-.5-.3-.9-.5-1.3-.8-.3-.3-.6-.5-.8-.8l2.2-3.2c.2.2.4.5.7.7l.9.6c.3.2.7.3 1.1.4.4.1.8.1 1.2.1.4 0 .8-.1 1.1-.2s.6-.2.8-.4.4-.4.5-.6c.1-.2.1-.5.1-.8 0-.3-.1-.6-.2-.8-.1-.2-.3-.5-.5-.7-.2-.2-.5-.4-.8-.6-.3-.2-.7-.4-1.1-.6-.8-.4-1.6-.8-2.2-1.2s-1.2-.8-1.6-1.3c-.4-.5-.8-1-1-1.6-.2-.6-.3-1.3-.3-2.1 0-1 .2-1.8.5-2.6s.8-1.4 1.4-1.9c.6-.5 1.3-.9 2.1-1.2.8-.3 1.6-.4 2.6-.4.9 0 1.7.1 2.4.3s1.3.4 1.8.7c.5.3.9.5 1.2.8.3.3.5.4.5.6l-2.2 3.2-.6-.6c-.2-.2-.5-.4-.8-.5-.3-.2-.6-.3-1-.4-.3-.1-.7-.1-1.1-.1-.8 0-1.3.2-1.7.5s-.6.8-.6 1.4c0 .3 0 .5.1.7.1.2.3.4.5.7.2.2.5.4.8.6.3.2.7.4 1.1.6.8.4 1.5.7 2.1 1.1.6.4 1.2.8 1.7 1.3s.8 1 1.1 1.7c.2.4.4 1.1.4 2zM1339.4 675.5v16.7h-4.4v-16.7h-4.4v-3.7h13.2v3.7h-4.4zM1354.6 692.1l-1.1-4.3h-5.4l-1 4.3h-4.5l5.5-20.4h6l5.4 20.4h-4.9zm-3.8-16.3l-2 8.7h3.9l-1.9-8.7zM1361.1 692.1v-20.4h4.4v20.4h-4.4zM1379.6 692.1l-6.2-13v13h-4.1v-20.4h4.3l5.9 12.5v-12.5h4.2v20.4h-4.1zM1397.6 692.1l-1.1-4.3h-5.4l-1 4.3h-4.5l5.5-20.4h6l5.4 20.4h-4.9zm-3.8-16.3l-2 8.7h3.9l-1.9-8.7zM1418 686.2c0 .5-.1 1-.2 1.5s-.3.9-.5 1.3-.4.7-.7 1-.5.6-.8.8c-.4.3-.8.5-1.2.7s-.9.3-1.4.4c-.5.1-1 .2-1.6.2-.6 0-1.2.1-1.8.1h-5.7v-20.4h7.3c.5 0 1 .1 1.5.2l1.2.3c.4.1.7.3 1 .5.6.4 1 .9 1.4 1.5.3.6.5 1.5.5 2.5s-.3 1.9-.8 2.7c-.5.8-1.3 1.4-2.3 1.7 1.4.3 2.4.8 3 1.7.8.9 1.1 2 1.1 3.3zm-5.3-8.7c0-.5-.1-.9-.3-1.2-.2-.3-.4-.5-.7-.7s-.6-.3-1-.3-.7-.1-1.1-.1h-1.2v4.8h1.1c.3 0 .7 0 1-.1.4-.1.7-.2 1-.3.3-.2.5-.4.7-.8.4-.3.5-.8.5-1.3zm.7 8.4c0-.6-.1-1-.3-1.4-.2-.4-.4-.7-.7-.9-.3-.2-.7-.4-1-.5s-.8-.1-1.2-.1h-1.7v5.7h1.7c.4 0 .8 0 1.2-.1s.7-.2 1-.5c.3-.2.5-.5.7-.9.3-.3.3-.7.3-1.3zM1420.6 692.1v-20.4h4.4v20.4h-4.4zM1428.7 692.1v-20.4h4.4v16.5h6.5v3.8h-10.9zM1441.7 692.1v-20.4h4.4v20.4h-4.4zM1456.9 675.5v16.7h-4.4v-16.7h-4.4v-3.7h13.2v3.7h-4.4zM1471.5 683.8v8.3h-4.4v-8.3l-5.7-12.1h4.8l3.1 8.5 3.1-8.5h4.8l-5.7 12.1z"/></g><text transform="translate(1420.98 731.02)" class="st19 st17 st21"></text><text transform="rotate(-90 1086.115 -460.643)" class="st19 st17" font-size="29.062">BENEFITS</text><text transform="rotate(-75.108 762.469 -319.641)" class="st11 st17 st23">S</text><text transform="rotate(-68.562 795.083 -402.645)" class="st11 st17 st23">P</text><text transform="rotate(-61.459 837.016 -510.232)" class="st11 st17" font-size="36.329">A</text><text transform="rotate(-54.254 889.05 -646.033)" class="st11 st17" font-size="36.326">C</text><text transform="rotate(-47.84 946.555 -800.085)" class="st11 st17" font-size="36.264">E</text><text transform="rotate(-41.347 1023.38 -998.65)" class="st11 st17" font-size="36.29">S</text><text transform="rotate(42.889 19.562 1614.88)" class="st11 st17" font-size="36.34">P</text><text transform="rotate(49.413 91.147 1428.584)" class="st11 st17" font-size="36.326">E</text><text transform="rotate(56.468 152.26 1270.125)" class="st11 st17" font-size="36.328">O</text><text transform="rotate(63.85 201.36 1142.059)" class="st11 st17" font-size="36.307">P</text><text transform="rotate(70.172 235.775 1051.713)" class="st11 st17" font-size="36.326">L</text><text transform="rotate(76.102 264.25 977.902)" class="st11 st17" font-size="36.298">E</text><text transform="rotate(32.737 -670.55 1892.233)" class="st11 st17" font-size="36.583">T</text><text transform="rotate(26.824 -944.367 2288.72)" class="st11 st17" font-size="36.517">E</text><text transform="rotate(20.419 -1415.643 2969.777)" class="st11 st17" font-size="36.741">C</text><text transform="rotate(12.657 -2617.76 4703.328)" class="st11 st17" font-size="36.776">H</text><text transform="matrix(.9963 .08611 -.08611 .9963 988.775 692.52)" class="st11 st17" font-size="36.619">N</text><text transform="rotate(-2.736 15028.705 -20812.479) scale(1.00004)" class="st11 st17" font-size="36.635">O</text><text transform="rotate(-9.425 4722.06 -5925.63)" class="st11 st17" font-size="36.617">L</text><text transform="rotate(-16.171 2954.852 -3351.363)" class="st11 st17" font-size="36.603">O</text><text transform="rotate(-23.771 2160.5 -2204.293)" class="st11 st17" font-size="36.634">G</text><text transform="rotate(-30.874 1768.335 -1638.388)" class="st11 st17" font-size="36.616">Y</text><g class="st15"><path class="st19" d="M876.2 381.1c.6.6 1.2 1.3 1.6 1.9s.8 1.3 1.1 1.9.5 1.2.6 1.9.2 1.2.2 1.7c0 1.2-.3 2.2-.8 3.2s-1.3 2-2.3 3l-3.4 3.4-13.7-13.5 3.5-3.5c.5-.5 1-1 1.5-1.4s1-.8 1.5-1.1c.5-.3 1-.5 1.5-.7s1-.3 1.6-.3c1.1 0 2.2.2 3.4.8 1.3.5 2.5 1.4 3.7 2.7zm-2.9 3.2c-.8-.8-1.6-1.4-2.4-1.8-.8-.4-1.5-.6-2.1-.6s-1.1.1-1.6.3c-.5.3-1 .7-1.6 1.2l-.7.7 8.6 8.5.7-.7c.6-.6 1-1.1 1.2-1.6.3-.5.4-1 .4-1.6 0-.3-.1-.6-.2-1s-.3-.7-.5-1.1-.5-.8-.8-1.2c-.2-.3-.6-.7-1-1.1z"/></g><g class="st15"><path class="st19" d="M885.5 386.1l-12.7-14.4 3.1-2.7 12.7 14.4-3.1 2.7z"/></g><g class="st15"><path class="st19" d="M890.6 363.9c-.2-.1-.4-.2-.7-.3-.3-.1-.5-.2-.8-.2s-.6 0-1 .1c-.3.1-.7.3-1.1.6-.4.3-.7.7-.8 1.1-.2.4-.3.9-.2 1.5s.3 1.3.6 2c.4.7.9 1.6 1.6 2.5.7.9 1.4 1.6 2 2.1s1.2.9 1.7 1.1 1 .3 1.5.2c.4-.1.8-.2 1.2-.5l.6-.6c.1-.2.3-.4.3-.5.1-.2.1-.3.2-.5s.1-.3.1-.5l-2-2.6-1.8 1.4-2-2.5 5.1-4 6.6 8.5-2.2 1.7-1.2-.9c0 .3 0 .6-.1.9s-.1.6-.3 1c-.1.3-.4.7-.6 1s-.6.7-1.1 1.1c-.7.6-1.5 1-2.4 1.2s-1.8.2-2.7-.1c-1-.3-2-.8-3-1.5s-2.1-1.8-3.2-3.2c-1.1-1.4-1.8-2.7-2.3-3.9-.5-1.2-.7-2.4-.6-3.5.1-1.1.3-2.1.8-3s1.2-1.7 2-2.3c.6-.4 1.1-.8 1.6-1s1-.4 1.5-.5.9-.1 1.3-.1.8.1 1.1.2l.9.3c.3.1.5.2.6.3l-1.2 3.4z"/></g><g class="st15"><path class="st19" d="M904.4 371l-11-15.9 3.4-2.4 11 15.9-3.4 2.4z"/></g><g class="st15"><path class="st19" d="M908.5 349.7l8.2 13.4-3.5 2.2-8.2-13.4-3.5 2.1-1.8-3 10.6-6.5 1.8 3-3.6 2.2z"/></g><g class="st15"><path class="st19" d="M930.6 355.6l-2.7-3.1-4.6 2.3.9 4-3.8 1.9-4.1-19.4 5-2.5 13.2 14.8-3.9 2zm-10.1-12.1l2 8.2 3.3-1.7-5.3-6.5z"/></g><g class="st15"><path class="st19" d="M936.4 352.8l-7.5-17.7 3.8-1.6 6.1 14.4 5.6-2.4 1.4 3.3-9.4 4z"/></g><g class="st15"><path class="st19" d="M954.4 329.5l4.7 15-4 1.2-4.7-15-3.9 1.2-1-3.3 11.8-3.7 1 3.3-3.9 1.3z"/></g><g class="st15"><path class="st19" d="M973.2 340.8l-4.7-6.5-1.1.3 1.7 7.2-4 .9-4.4-18.7 5.6-1.3c1-.2 1.9-.4 2.7-.4s1.5.1 2.2.4 1.3.8 1.8 1.4.9 1.5 1.1 2.6c.2.7.2 1.4.2 2s-.1 1.2-.3 1.7-.4 1-.7 1.4-.7.8-1 1.1l5.5 6.9-4.6 1zm-3.1-12.9c-.2-.9-.6-1.5-1.1-1.8s-1.3-.4-2.3-.1l-1.2.3 1.2 5.3 1.2-.3c.9-.2 1.5-.6 1.9-1.1.4-.6.5-1.3.3-2.3z"/></g><g class="st15"><path class="st19" d="M989.5 337.9l-1.6-3.8-5.1.8-.4 4.1-4.2.6 2.2-19.8 5.6-.8 7.9 18.3-4.4.6zm-5.8-14.7l-.6 8.4 3.7-.6-3.1-7.8z"/></g><g class="st15"><path class="st19" d="M1005.5 336.6l-6.6-11.9.7 12.3-3.8.2-1.2-19.2 4.1-.2 6.3 11.5-.7-11.8 3.9-.2 1.2 19.2-3.9.1z"/></g><g class="st15"><path class="st19" d="M1024.1 330.9c0 .9-.2 1.8-.5 2.5s-.8 1.3-1.4 1.8c-.6.5-1.3.9-2.1 1.1-.8.3-1.7.4-2.6.4-.8 0-1.5-.1-2.1-.3-.6-.2-1.2-.4-1.7-.7-.5-.3-.9-.5-1.2-.8s-.6-.5-.7-.7l2.2-3c.2.2.4.5.6.7.3.2.5.4.8.6s.6.3 1 .4.7.2 1.1.2c.4 0 .8 0 1.1-.1s.5-.2.7-.4c.2-.2.3-.4.4-.6.1-.2.1-.5.2-.7 0-.3 0-.5-.2-.8-.1-.2-.3-.5-.5-.7s-.5-.4-.8-.6-.7-.4-1-.6c-.8-.4-1.5-.8-2.1-1.2s-1.1-.8-1.5-1.3-.7-1-.9-1.5c-.2-.6-.3-1.2-.3-2 0-.9.2-1.7.5-2.4s.8-1.3 1.4-1.8c.6-.5 1.2-.8 2-1.1.8-.2 1.6-.4 2.4-.3.9 0 1.6.1 2.3.3s1.2.4 1.7.7c.5.2.8.5 1.1.7.3.2.4.4.5.5l-2.1 3c-.2-.2-.3-.4-.6-.6-.2-.2-.5-.4-.8-.5-.3-.2-.6-.3-.9-.4-.3-.1-.7-.1-1-.2-.7 0-1.2.1-1.6.5s-.5.8-.6 1.3c0 .3 0 .5.1.7s.2.4.4.6.4.4.8.6c.3.2.7.4 1.1.6.7.4 1.4.7 2 1.1s1.1.8 1.6 1.2c.4.5.8 1 1 1.6.1.6.2 1.3.2 2.2z"/></g><g class="st15"><path class="st19" d="M1032.2 321.5l-.4 4.6 5.6.5-.3 3.6-5.6-.5-.6 7.4-4.1-.4 1.7-19.1 10.2.9-.3 3.5-6.2-.5z"/></g><g class="st15"><path class="st19" d="M1055 330.6c-.3 1.6-.7 2.9-1.2 4.1s-1.2 2.1-2 2.8-1.7 1.2-2.7 1.5-2.1.3-3.3.1c-1.2-.2-2.2-.6-3-1.1-.9-.6-1.5-1.3-2-2.3-.5-.9-.8-2-1-3.3-.1-1.3-.1-2.7.2-4.3.3-1.6.6-2.9 1.2-4.1s1.2-2.1 2-2.8c.8-.7 1.7-1.2 2.7-1.5s2.1-.3 3.2-.2c1.2.2 2.2.6 3 1.2.9.6 1.6 1.3 2.1 2.3.5.9.9 2 1 3.3.1 1.3.1 2.8-.2 4.3zm-4.3-.7c.2-1 .2-1.8.2-2.6s-.1-1.5-.3-2.1c-.2-.6-.5-1.1-.8-1.4-.4-.4-.8-.6-1.4-.7-.5-.1-1 0-1.5.2-.4.2-.8.6-1.2 1.1-.4.5-.7 1.1-.9 1.9s-.5 1.6-.6 2.6c-.2 1-.2 1.9-.2 2.7 0 .8.1 1.5.3 2.1.2.6.4 1 .8 1.4.4.3.8.6 1.4.7s1.1 0 1.5-.2c.5-.2.9-.6 1.2-1.1.4-.5.7-1.1.9-1.9.2-.9.4-1.7.6-2.7z"/></g><g class="st15"><path class="st19" d="M1064.3 343l-1.2-7.9-1.1-.3-1.8 7.1-4-1 4.8-18.6 5.6 1.4c1 .3 1.8.6 2.6.9.7.4 1.3.8 1.8 1.4s.8 1.3.9 2.1c.1.8.1 1.7-.2 2.8-.2.7-.4 1.3-.7 1.8-.3.5-.6 1-1 1.3-.4.4-.8.7-1.3.9-.5.2-.9.4-1.4.5l1.7 8.7-4.7-1.1zm3.2-12.9c.2-.9.2-1.6-.2-2.1s-1-.9-1.9-1.2l-1.2-.3-1.4 5.2 1.2.3c.9.2 1.6.2 2.2-.1.6-.3 1-.9 1.3-1.8z"/></g><g class="st15"><path class="st19" d="M1084 349.4l4.7-13.3-7.8 12.2-3.5-1.2 1.8-14.3-4.8 13.2-3.6-1.3 6.9-17.9 5.4 1.9-1.9 13.7 7.3-11.7 5.2 1.9-6 18.3-3.7-1.5z"/></g><g class="st15"><path class="st19" d="M1099.4 356.2l.8-4.1-4.6-2.2-2.6 3.2-3.8-1.8 12.9-15.2 5.1 2.4-3.6 19.5-4.2-1.8zm3.4-15.5l-5.2 6.6 3.4 1.6 1.8-8.2z"/></g><g class="st15"><path class="st19" d="M1118.6 348.7l-7.7 13.7-3.6-2 7.7-13.7-3.6-2 1.7-3 10.8 6.1-1.7 3-3.6-2.1z"/></g><g class="st15"><path class="st19" d="M1116.3 365.7l10.4-16.2 3.5 2.2-10.4 16.2-3.5-2.2z"/></g><g class="st15"><path class="st19" d="M1140.2 370.7c-.9 1.3-1.9 2.3-2.9 3.1-1 .8-2 1.3-3.1 1.6-1 .3-2.1.3-3.1.1s-2-.7-3-1.4c-.9-.7-1.7-1.5-2.2-2.4s-.8-1.9-.8-3 .2-2.2.6-3.4c.5-1.2 1.2-2.4 2.1-3.7.9-1.3 1.9-2.3 2.9-3.1 1-.8 2-1.3 3.1-1.6 1-.3 2.1-.3 3.1-.1 1 .2 2 .6 2.9 1.3.9.7 1.7 1.5 2.2 2.4s.8 1.9.8 3-.2 2.2-.6 3.4c-.3 1.3-1 2.6-2 3.8zm-3.5-2.6c.6-.8 1-1.5 1.4-2.2s.6-1.4.7-2 .1-1.1-.1-1.6-.5-.9-.9-1.2c-.4-.3-.9-.5-1.4-.5s-1 .1-1.6.4c-.5.3-1.1.7-1.7 1.2s-1.1 1.2-1.7 2-1.1 1.5-1.4 2.2c-.4.7-.6 1.4-.7 1.9-.1.6-.1 1.1.1 1.6s.5.9.9 1.2c.5.3.9.5 1.4.5s1-.1 1.6-.4c.5-.3 1.1-.7 1.7-1.2.6-.4 1.1-1.1 1.7-1.9z"/></g><g class="st15"><path class="st19" d="M1143.9 386.7l3.8-13.1-8.2 9.2-2.9-2.6 12.8-14.4 3 2.7-3.7 12.5 7.9-8.8 2.9 2.6-12.8 14.4-2.8-2.5z"/></g></svg>