<svg id="Layer_1" xmlns="http://www.w3.org/2000/svg" viewBox="0 0 1920 1080"><style>.st1{fill:#c8c199}.st2{fill:#0c75bc}.st3{fill:#bf2579}.st4{fill:#c89c2c}.st5{fill:#8673b3}.st6{fill:#8fb6bf}.st11{fill:#fff}.st12{fill:#68bfe5}.st14{fill:#089db7}.st15{fill:none}.st16{fill:#0b0a0d}.st17{font-family:&apos;Slate-BoldCondensed&apos;}.st18{font-size:30.2724px}.st19{fill:#0b0a0c}.st20{font-size:34.5106px}.st21{font-size:32.0888px}.st23{font-size:36.3261px}</style><path fill="#f5f5f5" stroke="#000" stroke-miterlimit="10" d="M-6.9-12.1h1936.7v1101.8H-6.9z" id="Layer_2_00000079461729854020108380000009808746765720764074_"/><g id="Layer_1_00000136388982344146164010000002722623269314374285_"><path class="st1" d="M1009.4 761.4h10.7v103.9h-10.7z"/><path transform="rotate(-30 874.227 280.199)" class="st2" d="M868.9 228.2h10.7v103.9h-10.7z"/><path transform="rotate(-60 771.638 379.032)" class="st3" d="M766.3 327.1H777V431h-10.7z"/><path class="st4" d="M677.6 527h103.9v10.7H677.6z"/><path transform="rotate(-29.888 766.186 679.108)" class="st5" d="M714.1 673.7h104.2v10.8H714.1z"/><path transform="rotate(-60 874.236 779.429)" class="st6" d="M822.3 774.1h103.9v10.7H822.3z"/><path d="M1464.8 765c26.7 0 48.2-21.7 48.2-48.2V413.5c0-26.7-21.7-48.2-48.2-48.2h-196.6c-5 .2-9.6 2.1-13.5 5.3-7.6 6.5-7.6 15.9-7.5 17.3l-.2 145.4c-.1 6-.4 13.9-1.4 23.1-2 18-6 35.8-11.9 52.8-2.7 7.6-11.6 31-30.6 56.8-12.2 16.7-49.5 62.8-115.5 84.9-16.8 5.6-34.2 9.3-52 10.9l429.2 3.2z" opacity=".2" fill="#68bfe5"/><path fill="#019bb3" d="M1009.4 191.5h10.7V299h-10.7z"/><circle cx="1013.7" cy="527.7" r="229.1" fill="#eeeced" opacity=".6"/><circle class="st11" cx="1014.3" cy="528.2" r="175.2"/><path class="st12" d="M1014.3 704.5c-97.4 0-176.3-78.9-176.3-176.3s78.9-176.3 176.3-176.3 176.3 78.9 176.3 176.3c0 46.7-18.6 91.7-51.7 124.6-32.9 33.2-77.8 51.8-124.6 51.7zm0-350.4c-96.1 0-174.1 77.9-174.1 174.1s77.9 174.1 174.1 174.1 174.1-77.9 174.1-174.1c0-46.2-18.3-90.5-51-123.1-32.5-32.7-76.8-51.1-123.1-51z"/><ellipse class="st11" cx="1014.3" cy="528.2" rx="133.8" ry="133.8"/><path class="st12" d="M1014.3 663.1c-74.4 0-134.9-60.3-134.9-134.9s60.3-134.9 134.9-134.9 134.9 60.3 134.9 134.9c0 35.8-14.2 70.1-39.4 95.3-25.4 25.5-59.6 39.6-95.5 39.6zm0-267.5c-73.2 0-132.6 59.4-132.6 132.6s59.4 132.6 132.6 132.6 132.6-59.4 132.6-132.6c0-35.2-14-68.9-38.9-93.8-24.7-24.9-58.4-38.9-93.7-38.8z"/><path class="st12" d="M1013.6 767.8c-132.6.6-240.5-106.2-241.1-238.7s106.2-240.4 238.7-241h9v10.7h-6.6c-126.5 0-229.1 102.5-229.1 229S886.8 757 1013.3 757l21-.8.4 10.7-21.1.9z"/><ellipse transform="rotate(-45.001 1014.268 939.114)" class="st11" cx="1014.3" cy="939.1" rx="88.4" ry="88.4"/><path class="st1" d="M1014.3 1028.7c-49.4 0-89.7-40.2-89.7-89.7s40.2-89.7 89.7-89.7 89.7 40.2 89.7 89.7-40.2 89.7-89.7 89.7zm0-176.8c-48.1 0-87.2 39.1-87.2 87.2s39.1 87.2 87.2 87.2 87.2-39.1 87.2-87.2-39.1-87.2-87.2-87.2z"/><circle class="st11" cx="811.1" cy="177.1" r="88.4"/><path class="st2" d="M811.2 266.7c-32.1.1-61.8-17-77.8-44.9-24.7-42.8-10-97.7 32.8-122.4 42.9-24.8 97.7-10.1 122.5 32.7 24.8 42.9 10.1 97.7-32.7 122.5-13.7 8-29.1 12.1-44.8 12.1zm-.3-176.8c-15.3 0-30.2 4-43.4 11.6-41.7 24.1-55.9 77.5-32 119.1 24.1 41.7 77.4 56 119.1 32 41.7-24.1 56-77.4 32-119.1-15.7-27-44.5-43.6-75.7-43.6z"/><circle class="st11" cx="662.7" cy="325.7" r="88.4"/><path class="st3" d="M662.6 415.4c-15.7 0-31.1-4.1-44.6-12-42.8-24.7-57.5-79.6-32.8-122.4s79.6-57.5 122.5-32.8c42.8 24.7 57.5 79.6 32.8 122.4-16.2 27.7-45.9 44.8-77.9 44.8zm-43.5-14.1c41.7 24.1 95 9.8 119.1-32s9.8-95-32-119.1c-41.7-24.1-95-9.8-119.1 32-24 41.7-9.7 95 32 119.1-.1 0 0 0 0 0z"/><circle class="st11" cx="608.2" cy="528.7" r="88.4"/><path class="st4" d="M608.2 618.3c-49.4 0-89.7-40.2-89.7-89.7s40.2-89.6 89.7-89.6 89.6 40.2 89.6 89.6c0 49.5-40.2 89.7-89.6 89.7zm0-176.8c-48.1 0-87.2 39.1-87.2 87.2s39.2 87.1 87.2 87.1 87.2-39.1 87.2-87.2c0-48-39.1-87.1-87.2-87.1z"/><circle class="st11" cx="663.2" cy="731.5" r="88.4"/><path class="st5" d="M663.3 821.1c-32.1.1-61.8-17-77.8-44.9-24.7-42.8-10-97.7 32.8-122.4 43.2-24.2 97.8-8.7 122 34.6 23.7 42.4 9.3 95.9-32.4 120.8l-.6-1.1.6 1.1c-13.5 7.8-28.9 11.9-44.6 11.9zm-.2-176.8c-15.3 0-30.2 4-43.4 11.7-41.7 24.1-55.9 77.5-32 119.2 24.1 41.7 77.5 55.9 119.1 31.9 41.7-24.1 55.9-77.5 31.9-119.1-11.6-20.2-30.6-34.7-52.9-40.7-7.4-2-15-3-22.7-3z"/><circle class="st11" cx="812" cy="879.8" r="88.4"/><path class="st6" d="M811.7 969.4c-15.7 0-31.1-4.1-44.6-12-42.8-24.7-57.5-79.6-32.8-122.4 24.7-42.8 79.6-57.5 122.4-32.8 42.9 24.8 57.5 79.5 32.8 122.5l-1.1-.7 1.1.7c-16 27.7-45.7 44.8-77.8 44.7zm.4-176.8c-7.7 0-15.3 1.1-22.8 3-22.3 6-41.4 20.6-53 40.6-24.1 41.7-9.6 95 32 119.2 41.6 24.1 95 9.8 119.1-32 24.1-41.7 9.8-95-32-119.1-13.1-7.7-28.1-11.7-43.3-11.7z"/><path class="st12" d="M1519.4 770.4l-484.7-3.5-.4-10.7c17.2-1.6 34.2-5.2 50.7-10.6 59.9-20 96.4-60.6 112.8-83 12.5-16.9 22.5-35.6 29.8-55.4 5.8-16.7 9.8-34 11.6-51.6.9-7.5 1.3-15.1 1.4-22.5l.2-145.3c-.1-3.1.4-13.8 9.4-21.5 4.8-4 10.6-6.4 16.8-6.6h252.5c29.6.1 53.6 24.1 53.6 53.6v303.4c-.1 29.8-24.2 53.7-53.7 53.7zm-433.1-13.8l433.1 3.1c23.6-.1 42.8-19.2 42.8-42.8V413.5c0-23.6-19.2-42.8-42.8-42.8h-252.1c-3.7.1-7.3 1.5-10.1 3.9-5.5 4.8-5.7 11.7-5.6 13.1v.1l-.2 145.5c-.1 7.9-.7 15.8-1.4 23.6-2 18.4-6.1 36.6-12.2 54.1-7.6 20.8-18.2 40.3-31.2 58.2-17.1 23.4-55.2 65.8-118.1 86.8l-2.2.6z"/><path class="st6" d="M783.2 912.5c-.2 0-.5-.1-.8-.3l-5.4-5.4c-.3-.3-.3-.9-.2-1.2l4-7-2.6-4.4-8.1-.1c-.4 0-.9-.3-1-.8l-1.8-7.4c-.1-.4.1-.9.4-1.1l7-4.3v-5.1l-7-4.2c-.3-.2-.6-.6-.4-1.1l2-7.4c.1-.4.4-.8 1-.8l8.1-.1 2.5-4.4-3.9-7.3c-.2-.3-.1-.9.2-1.2l5.3-5.4c.3-.3.8-.4 1.2-.2l7.3 4 4.4-2.6.1-8.1c0-.4.3-.9.8-1l7.4-1.7c.4-.1.9.1 1.1.4l4.2 7h5.2l4.3-7c.2-.3.6-.5 1.1-.4l7.4 2c.4.1.8.4.8 1l.1 8 4.4 2.5 7-3.9c.3-.2.9-.2 1.2.2l5.4 5.3c.3.3.4.8.2 1.2l-3.9 7.3 2.5 4.4 8.3.1c.4 0 .8.3 1 .8l2.3 7.4c.1.4-.1.9-.4 1.2l-6.6 4.2v5.2l6.6 4.3c.3.2.5.8.4 1.2l-2.3 7.4c-.1.4-.4.8-1 .8l-8.1.1-2.7 4.4 3.9 7c.2.4.1.9-.2 1.2l-5.4 5.4c-.3.3-.8.4-1.2.2l-7-3.9-5 2.8-1-1.7 5.4-3c.3-.2.6-.2 1 0l6.9 3.8 4.4-4.3-3.8-6.8c-.2-.3-.2-.7 0-1.1l3.2-5.4c.2-.3.4-.4.9-.4l8-.1 1.8-6-6.5-4.2c-.3-.2-.4-.4-.4-.9v-6.3c0-.3.2-.6.4-.9l6.4-4-1.8-6-8.1-.1c-.3 0-.6-.2-.9-.4l-3-5.4c-.2-.3-.2-.6 0-1l3.8-7-4.3-4.2-6.9 3.8c-.3.2-.6.2-1 0l-5.4-3c-.3-.2-.4-.4-.5-.9l-.1-7.9-6-1.6-4.3 6.9c-.2.3-.4.4-.9.4h-6.3c-.3 0-.6-.2-.9-.4l-4.1-6.9-6 1.4-.1 7.9c0 .3-.2.7-.4.9l-5.4 3.2c-.3.2-.6.2-1.1 0l-7-3.9-4.2 4.3 3.8 7c.2.3.2.6 0 1l-3.1 5.4c-.2.3-.4.4-.9.4l-7.9.1-1.6 6 6.9 4.1c.3.2.4.4.4.9v6.3c0 .3-.2.7-.4.9l-6.9 4.2 1.4 6 7.9.1c.3 0 .6.2.9.4l3.2 5.4c.2.3.2.8 0 1.1l-4 6.8 4.4 4.3 7-3.8c.3-.2.6-.2 1 0l5.4 3.2-1.1 1.7-5-2.9-7.3 3.9c.4-.5.2-.5 0-.5z"/><path class="st6" d="M791.3 883.4c-4 0-7.3-3.2-7.3-7.3s3.2-7.3 7.3-7.3 7.3 3.2 7.3 7.3c-.2 4.1-3.3 7.3-7.3 7.3zm0-12.3c-2.9 0-5.2 2.3-5.2 5.2s2.3 5.2 5.2 5.2 5.2-2.3 5.2-5.2c0-3-2.4-5.2-5.2-5.2zM830.7 873.1c-4 0-7.3-3.2-7.3-7.3s3.2-7.3 7.3-7.3 7.3 3.2 7.3 7.3c-.2 4-3.3 7.3-7.3 7.3zm0-12.5c-2.9 0-5.2 2.4-5.2 5.2s2.4 5.2 5.2 5.2 5.2-2.4 5.2-5.2c0-2.9-2.4-5.2-5.2-5.2zM809.9 862.7c-4 0-7.3-3.2-7.3-7.3s3.2-7.3 7.3-7.3 7.3 3.2 7.3 7.3c-.2 4.1-3.3 7.2-7.3 7.3zm0-12.4c-2.9 0-5.2 2.3-5.2 5.2s2.3 5.2 5.2 5.2 5.2-2.3 5.2-5.2c0-2.8-2.3-5.2-5.2-5.2z"/><path class="st6" d="M808.8 861.6h1.9V926h-1.9zM819.2 890.8h-1.9v-12.9l8.4-8.7 1.5 1.5-8 8zM802.6 926h-2v-37.4l-6-7.7 1.5-1.2 6.5 8.3zM832.8 893.8c-4 0-7.3-3.3-7.3-7.3s3.2-7.3 7.3-7.3 7.3 3.2 7.3 7.3c-.2 4.1-3.3 7.3-7.3 7.3zm0-12.4c-2.9 0-5.2 2.3-5.2 5.2s2.3 5.2 5.2 5.2 5.2-2.3 5.2-5.2c0-2.9-2.4-5.2-5.2-5.2z"/><path class="st6" d="M819.2 926h-1.9v-25.8l10.6-10.2 1.4 1.4-10.1 9.7z"/><ellipse transform="rotate(-45.001 1014.912 122.505)" class="st11" cx="1014.9" cy="122.5" rx="88.4" ry="88.4"/><path d="M1014.9 212.1c-49.4 0-89.7-40.2-89.7-89.7s40.2-89.7 89.7-89.7 89.7 40.2 89.7 89.7-40.3 89.7-89.7 89.7zm0-176.8c-48.1 0-87.2 39.1-87.2 87.2s39.1 87.2 87.2 87.2 87.2-39.1 87.2-87.2-39.2-87.2-87.2-87.2z" fill="#199fb7"/><path class="st14" d="M993.2 122.3c-4.2 0-7.6-3.4-7.6-7.6s3.4-7.6 7.6-7.6 7.6 3.4 7.6 7.6-3.4 7.6-7.6 7.6zm0-13.1c-3.1 0-5.5 2.5-5.5 5.5 0 3.1 2.5 5.5 5.5 5.5 3.1 0 5.5-2.5 5.5-5.5s-2.5-5.5-5.5-5.5zM1032.7 126.3c-4.2 0-7.6-3.4-7.6-7.6s3.4-7.6 7.6-7.6 7.6 3.4 7.6 7.6c-.1 4.1-3.4 7.6-7.6 7.6zm0-13.2c-3.1 0-5.5 2.5-5.5 5.5 0 3.1 2.5 5.5 5.5 5.5s5.5-2.5 5.5-5.5c.1-3-2.4-5.5-5.5-5.5zM1033 147c-4.2 0-7.6-3.4-7.6-7.6s3.4-7.6 7.6-7.6 7.6 3.4 7.6 7.6c-.1 4.2-3.4 7.6-7.6 7.6zm0-13.1c-3.1 0-5.5 2.5-5.5 5.5s2.5 5.5 5.5 5.5c3.1 0 5.5-2.5 5.5-5.5s-2.5-5.5-5.5-5.5zM1014 113.8c-4.2 0-7.6-3.4-7.6-7.6s3.4-7.6 7.6-7.6 7.6 3.4 7.6 7.6-3.4 7.6-7.6 7.6zm0-13.2c-3.1 0-5.5 2.5-5.5 5.5 0 3.1 2.5 5.5 5.5 5.5 3.1 0 5.5-2.5 5.5-5.5s-2.5-5.5-5.5-5.5z"/><path class="st14" d="M1012.7 112.8h1.9v58.1h-1.9zM1020.9 141.8h-2v-11.6l8.6-7.8 1.3 1.5-7.9 7.3zM1006.3 137.7h-1.9v-10.8l-8.1-7.1 1.4-1.5 8.6 7.8zM1020.9 158.5h-2v-6.7l8.6-8.6 1.3 1.4-7.9 8z"/><path class="st14" d="M982.4 132.1c-8.3 0-15.1-6.8-15.1-15.1 0-7.6 5.7-14.1 13.2-14.8-.3-1.6-.5-3.4-.5-5 0-12.2 8.9-19.3 17.6-20.8 8.3-1.4 18.5 2 22.9 12.5 4.4-3.1 10.2-3.6 15.2-1.3 5.3 2.4 8.7 7.8 8.7 13.7 0 .4-.1.8-.1 1.2 1.1-.2 2.1-.3 3.1-.3 8.3 0 15.1 6.7 15.1 15.1s-6.7 15.1-15.1 15.1h-2v-1.9h2c7.3-.3 12.8-6.4 12.5-13.5-.3-6.8-5.7-12.1-12.5-12.5-1.4 0-2.7.2-4 .7l-1.6.5.3-1.7c.2-.8.3-1.6.3-2.4 0-5.1-2.9-9.6-7.6-11.8-4.7-2.3-10.2-1.5-14.1 1.8l-1.1 1-.4-1.4c-3.7-10.4-13.2-13.8-21.1-12.5-7.9 1.3-15.8 7.7-15.8 18.9 0 2 .3 3.8.8 5.7l.3 1.2-1.2.1c-7.3.1-13 6-13 13.1.1 7.3 6 13 13.1 13 .3 0 .7 0 .9-.1h16.1v2H983c-.2-.5-.4-.5-.6-.5z"/><path class="st14" d="M1020.1 94.9c-.1-1.6-.5-3.3-1.2-4.8l1.8-.9c.8 1.7 1.3 3.6 1.4 5.4l-2 .3zM1042.1 109.2l-1.7-1c1.1-1.8 1.7-3.8 2-5.9l2 .2c-.4 2.3-1.3 4.6-2.3 6.7zM1004.4 141.8h1.9v4.2h-1.9zM1004.4 150.1h1.9v4.2h-1.9zM1018.9 162.6h1.9v4.2h-1.9zM1004.4 158.5h1.9v4.2h-1.9zM987.2 105c-1.6-.7-3.4-1.1-5.1-1.1v-2c2 0 4 .4 5.9 1.2l-.8 1.9z"/><path class="st2" d="M847.6 221.2h-72.5c-2.2 0-3.9-1.7-3.9-3.9v-57.9c0-2.2 1.7-3.9 3.9-3.9h72.5c2.2 0 3.9 1.7 3.9 3.9v57.9c0 2.1-1.7 3.9-3.9 3.9zm-72.5-63.7c-1.1 0-1.8.9-1.8 1.8v57.9c0 1.1.9 1.8 1.8 1.8h72.5c1.1 0 1.8-.9 1.8-1.8v-57.9c0-1.1-.9-1.8-1.8-1.8h-72.5z"/><path class="st2" d="M811.3 194.2c-5.2 0-9.4-4.2-9.4-9.4s4.2-9.4 9.4-9.4 9.4 4.2 9.4 9.4-4.2 9.4-9.4 9.4zm0-16.8c-4 0-7.4 3.4-7.4 7.4s3.4 7.4 7.4 7.4 7.4-3.4 7.4-7.4c.1-4-3.3-7.4-7.4-7.4zM838.1 156.8H836v-9.5c0-13.7-11.1-24.7-24.7-24.7-13.7 0-24.7 10.9-24.7 24.7v9.5h-2v-9.5c-.2-14.7 11.6-26.9 26.3-27.1s26.9 11.6 27.1 26.3v10.3h.1z"/><path class="st2" d="M812.1 212.9h-1.4c-1.1 0-1.8-.8-1.8-1.8v-17c0-1.1.8-1.8 1.8-1.8h1.4c1.1 0 1.8.8 1.8 1.8v17c-.1 1-.9 1.8-1.8 1.8"/><path class="st5" d="M686.1 776.5h-54.4c-.5 0-1.1-.4-1.1-1.1v-87.9c0-.5.4-1.1 1.1-1.1h54.4c.5 0 1.1.4 1.1 1.1v15.3h-2v-14.3h-52.4v85.8h52.3v-18.1h2v19.2c.1.7-.4 1.1-1 1.1.1 0 0 0 0 0z"/><path class="st5" d="M677.7 753.4c-13.2 0-24.1-10.3-24.1-23s10.7-23 24.1-23 24.1 10.3 24.1 23-10.9 23-24.1 23zm0-43.9c-12.1 0-22 9.4-22 20.9s9.9 20.9 22 20.9 22-9.4 22-20.9c0-11.4-9.8-20.9-22-20.9z"/><path transform="rotate(-45.001 699.634 755.643)" class="st5" d="M698.7 745.3h1.9V766h-1.9z"/><path class="st5" d="M640 703.3h23v1.9h-23zM640 709.7h14.6v1.9H640zM640 718h8.3v1.9H640zM640 726.3h8.3v1.9H640zM640 732.6h8.3v1.9H640zM668.3 733.6h1.9v6.3h-1.9zM676.6 719h1.9v20.9h-1.9zM685.1 727.3h1.9v12.6h-1.9zM641.1 758.7h2.1v8.3h-2.1zM647.4 752.4h1.9V767h-1.9zM655.8 756.7h1.9v10.5h-1.9zM664.2 763h1.9v4.2h-1.9zM670.4 758.7h1.9v8.3h-1.9z"/><path class="st1" d="M1056.7 958.6h-16.8v-1.9h16.8c1.7 0 3.1-1.4 3.1-3.1V920c0-1.7-1.4-3.1-3.1-3.1h-10.5V915h10.4c2.8-.1 5.2 2.3 5.2 5.1v33.6c.1 2.8-2.3 5.2-5.1 5.2.1-.3 0-.3 0-.3zM989.7 958.6h-16.8c-2.8 0-5.2-2.3-5.2-5.1v-33.6c0-2.8 2.3-5.2 5.1-5.2h10.5v2h-10.4c-1.7 0-3.1 1.4-3.1 3.1v33.6c0 1.7 1.4 3.1 3.1 3.1H989.8l-.1 2.1zM1041 937.7h-52.2v-41.8h52.2v41.8zm-50.3-2.1h48.2v-37.7h-48.2v37.7z"/><path class="st1" d="M1041 968h-2.1v-19.8h-48.2V968h-1.9v-21.9h52.2zM977.2 935.6h75.3v1.9h-75.3zM978.2 945.1h1.9v4.2h-1.9z"/><path class="st1" d="M1007.6 953.5h1.9v18.9h-1.9zM999.3 953.5h1.9v31.3h-1.9zM1018 953.5h1.9v29.3h-1.9zM1028.5 953.5h1.9v20.9h-1.9zM1038.9 953.5h2v16.8h-2zM988.8 953.5h1.9v14.6h-1.9z"/><path class="st4" d="M600.3 572.7l-9-2.3-.2-8.8-4.5-2.6-7.8 4.3-.1-.1-.1.1-6.6-6.6 4.4-7.8-2.7-4.4-9-.2-2.7-8.9 7.4-4.7v-5.2l-7.4-4.8 2.7-8.9 9-.2 2.7-4.6-4.3-7.8 6.5-6.6 7.9 4.4 4.6-2.7.2-9 9-2.2 4.6 7.8h5.2l4.8-7.8 9 2.3.2 8.8 4.5 2.7 7.9-4.3 6.6 6.6-4.4 7.8 2.7 4.4 9 .2 2.8 9-7.4 4.7v5.2l7.4 4.8-2.7 8.9-9 .2-2.7 4.4 4.3 7.8-6.5 6.6-7.9-4.4-4.6 2.7-.2 9-9 2.2-4.6-7.8H605l-4.7 7.8zm3.7-9.6h7.5l4.4 7.5 6-1.4.2-8.6 6.5-3.8 7.6 4.2 4.3-4.4-4.2-7.5 3.8-6.5 8.6-.2 1.8-6-6.9-4.6v-7.4l6.9-4.4-1.8-6-8.6-.2-3.8-6.5 4.2-7.5-4.4-4.4-7.6 4.2-6.5-3.8-.2-8.3-6-1.6-4.6 7.5h-7.5l-4.4-7.5-6 1.4-.2 8.6-6.5 3.8-7.6-4.2-4.3 4.4 4.2 7.5-3.8 6.5-8.6.2-1.8 6 6.9 4.5v7.4l-6.9 4.4 1.8 6 8.6.2 3.8 6.5-4.2 7.5 4.4 4.4.1-.1.1.1 7.5-4.1 6.5 3.8.2 8.3 6 1.6 4.5-7.5z"/><path class="st4" d="M607.6 553.3c-14 0-25.1-11.3-25.1-25.1 0-14 11.3-25.1 25.1-25.1 14 0 25.1 11.3 25.1 25.1.1 13.9-11.2 25.1-25.1 25.1zm0-48.3c-12.8 0-23.2 10.4-23.2 23.2s10.4 23.2 23.2 23.2 23.2-10.4 23.2-23.2c-.1-12.8-10.4-23.2-23.2-23.2z"/><path class="st4" d="M607.6 535.9c-4.2 0-7.7-3.4-7.7-7.6s3.4-7.7 7.6-7.7 7.7 3.4 7.7 7.6c0 4.2-3.4 7.6-7.6 7.7zm0-13.3c-3.1 0-5.6 2.5-5.6 5.6s2.5 5.6 5.6 5.6 5.6-2.5 5.6-5.6c0-3.1-2.5-5.6-5.6-5.6z"/><path class="st3" d="M691.8 344.2h-60.7c-.5 0-1.1-.4-1.1-1.1v-14.3c-.1-1.8 1.3-3.4 3.2-3.5h56.1c1.8.1 3.5 1.6 3.5 3.5v14.3c0 .7-.4 1.1-1 1.1zm-59.7-1.9h58.7v-13.2c0-.8-.6-1.4-1.4-1.4h-56c-.8.1-1.3.8-1.2 1.4l-.1 13.2z"/><path class="st3" d="M691.8 361h-60.7c-.5 0-1.1-.4-1.1-1.1v-16.8h2.1v15.7h58.7v-15.7h2V360c0 .6-.4 1-1 1z"/><path class="st3" d="M689.3 377.7h-56c-1.8-.1-3.4-1.6-3.2-3.5V360h2.1v14.3c-.1.8.4 1.4 1.2 1.4h56c.8-.1 1.4-.7 1.4-1.4V360h1.9v14.3c.1 1.9-1.4 3.4-3.4 3.4z"/><path class="st15" d="M635.3 337h6.2"/><path class="st3" d="M635.3 336h6.3v1.9h-6.3z"/><path class="st15" d="M635.3 353.7h6.2"/><path class="st3" d="M635.3 352.7h6.3v1.9h-6.3z"/><path class="st15" d="M635.3 368.4h6.2"/><path class="st3" d="M635.3 367.3h6.3v1.9h-6.3zM671.9 322.4h-2.1v-30.8l9.8-10.1h14.3v2.1h-13.5l-8.5 8.8z"/><path class="st3" d="M688.3 290.5l-1.5-1.3 5.7-6.6-5.7-6.7 1.5-1.4 6.9 8.1zM694.5 308.4l-1.4-1.4 5.5-5.5-5.5-5.7 1.4-1.4 7.1 7.2zM668.1 277.1l-6.8-5.7-6.5 5.7-1.3-1.5 7.3-6.3c.3-.3 1-.3 1.3 0l7.5 6.3-1.5 1.5z"/><path class="st3" d="M660.4 270h1.9v52.3h-1.9zM680.2 322.4h-2v-14.6l7.7-7.4h14.3v2h-13.5l-6.5 6.3zM653 322.4h-2v-30l-8.6-8.8H629v-2.1h14.2l9.8 10.1z"/><path class="st3" d="M634.5 290.5l-6.8-7.9 6.8-8.1 1.5 1.4-5.7 6.7 5.7 6.6zM628.2 308.4l-6.9-6.8 6.9-7.2 1.5 1.4-5.6 5.7 5.6 5.5z"/><path class="st3" d="M644.7 322.4h-2.1v-13.7l-6.3-6.3h-13.6v-2h14.4l7.6 7.4z"/><text transform="translate(409.76 322.518)" class="st16 st17 st18">MANAGED</text><text transform="translate(409.76 351.58)" class="st16 st17 st18">IT</text><text transform="translate(438.217 351.58)" class="st16 st17 st18">SERVICES</text><text transform="translate(550.558 351.58)" class="st16 st17 st18"></text><text transform="translate(348.544 508.888)" class="st19 st17 st18">MANAGED</text><text transform="translate(348.544 537.949)" class="st19 st17 st18">APPLICATION</text><text transform="translate(500.815 537.949)" class="st19 st17 st18"></text><text transform="translate(348.544 567.01)" class="st19 st17 st18">SERVICES</text><text transform="translate(378.054 721.073)" class="st16 st17 st18">INFORMATION</text><text transform="translate(378.054 750.135)" class="st16 st17 st18">MANAGEMENT</text><text transform="translate(541.948 750.135)" class="st16 st17 st18"></text><text transform="translate(378.054 779.195)" class="st16 st17 st18">SERVICES</text><text transform="translate(485.55 779.195)" class="st16 st17 st18"></text><text transform="translate(593.835 144.438)" class="st19 st17 st18">SEC</text><text transform="translate(635.854 144.438)" class="st19 st17 st18">U</text><text transform="translate(652.927 144.438)" class="st19 st17 st18">R</text><text transform="translate(668.185 144.438)" class="st19 st17 st18">I</text><text transform="translate(675.934 144.438)" class="st19 st17 st18">T</text><text transform="translate(688.619 144.438)" class="st19 st17 st18">Y</text><text transform="translate(593.835 173.499)" class="st19 st17 st18">SERVICES</text><text transform="translate(701.09 173.499)" class="st19 st17 st18"></text><text transform="translate(534.168 907.448)" class="st19 st17 st18">WORKFLOW</text><text transform="translate(676.903 907.448)" class="st19 st17 st18">&amp;</text><text transform="translate(534.168 936.51)" class="st19 st17 st18">AUTOMATION</text><text transform="translate(687.861 936.51)" class="st19 st17 st18"></text><text transform="translate(534.168 965.57)" class="st19 st17 st18">SERVICES</text><text transform="translate(641.424 965.57)" class="st19 st17 st18"></text><text transform="translate(822.598 32.744)" class="st19 st17 st18">CLOUD</text><text transform="translate(822.598 61.806)" class="st19 st17 st18">SERVICES</text><text transform="translate(933.874 509.983)" class="st19 st17 st20">INTELLIGENT</text><text transform="translate(933.874 540.86)" class="st19 st17 st20">CONNECTED</text><text transform="translate(933.874 571.74)" class="st19 st17 st20">WORKPLACE</text><text transform="translate(1097.176 571.74)" class="st19 st17 st20"></text><text transform="translate(811.9 1037.117)" class="st19 st17 st18">MANAGED</text><text transform="translate(811.9 1066.179)" class="st19 st17 st18">PRINT</text><text transform="translate(883.585 1066.179)" class="st19 st17 st18">SERVICES</text><text transform="translate(991.083 1066.179)" class="st19 st17 st18"></text><text transform="translate(1284.447 422.968)" class="st19 st17 st21">INTELLIGENCE</text><text transform="translate(1284.447 461.475)" class="st19 st17 st21">COLLABORATION</text><text transform="translate(1484.808 461.475)" class="st19 st17 st21"></text><text transform="translate(1284.447 499.981)" class="st19 st17 st21">SECURITY</text><text transform="translate(1401.667 499.981)" class="st19 st17 st21"></text><text transform="translate(1284.447 538.488)" class="st19 st17 st21">RESILIENCY</text><text transform="translate(1421.975 538.488)" class="st19 st17 st21"></text><text transform="translate(1284.447 576.994)" class="st19 st17 st21">FLEXIBILITY</text><text transform="translate(1424.032 576.994)" class="st19 st17 st21"></text><text transform="translate(1284.447 615.501)" class="st19 st17 st21">MOBILITY</text><text transform="translate(1399.034 615.501)" class="st19 st17 st21"></text><text transform="translate(1284.447 654.007)" class="st19 st17 st21">PRODUCTIVITY</text><text transform="translate(1462.085 654.007)" class="st19 st17 st21"></text><text transform="translate(1284.447 692.514)" class="st19 st17 st21">SUS</text><text transform="translate(1330.236 692.514)" class="st19 st17 st21">T</text><text transform="translate(1343.648 692.514)" class="st19 st17 st21">AINABILITY</text><text transform="translate(1477.234 692.514)" class="st19 st17 st21"></text><text transform="translate(1284.447 731.02)" class="st19 st17 st21">EFFICIENCY</text><text transform="translate(1420.98 731.02)" class="st19 st17 st21"></text><text transform="rotate(-90 1086.115 -460.643)" class="st19 st17" font-size="29.062">BENEFITS</text><text transform="rotate(-75.108 762.469 -319.641)" class="st12 st17 st23">S</text><text transform="rotate(-68.562 795.083 -402.645)" class="st12 st17 st23">P</text><text transform="rotate(-61.459 837.016 -510.232)" class="st12 st17" font-size="36.329">A</text><text transform="rotate(-54.254 889.05 -646.033)" class="st12 st17" font-size="36.326">C</text><text transform="rotate(-47.84 946.555 -800.085)" class="st12 st17" font-size="36.264">E</text><text transform="rotate(-41.347 1023.38 -998.65)" class="st12 st17" font-size="36.29">S</text><text transform="rotate(42.889 19.558 1614.88)" class="st12 st17" font-size="36.334">P</text><text transform="rotate(49.413 91.147 1428.584)" class="st12 st17" font-size="36.326">E</text><text transform="rotate(56.468 152.26 1270.125)" class="st12 st17" font-size="36.328">O</text><text transform="rotate(63.85 201.36 1142.059)" class="st12 st17" font-size="36.316">P</text><text transform="rotate(70.172 235.775 1051.713)" class="st12 st17" font-size="36.326">L</text><text transform="rotate(76.102 264.25 977.902)" class="st12 st17" font-size="36.298">E</text><text transform="rotate(32.737 -670.55 1892.235)" class="st12 st17" font-size="36.575">T</text><text transform="rotate(26.824 -944.367 2288.72)" class="st12 st17" font-size="36.517">E</text><text transform="rotate(20.419 -1415.634 2969.778)" class="st12 st17" font-size="36.734">C</text><text transform="rotate(12.657 -2617.759 4703.328)" class="st12 st17" font-size="36.776">H</text><text transform="matrix(.9963 .08611 -.08611 .9963 988.775 692.52)" class="st12 st17" font-size="36.619">N</text><text transform="matrix(.9989 -.0478 .0478 .9989 1011.541 694.336)" class="st12 st17" font-size="36.627">O</text><text transform="rotate(-9.425 4722.061 -5925.63)" class="st12 st17" font-size="36.617">L</text><text transform="rotate(-16.171 2954.852 -3351.366)" class="st12 st17" font-size="36.61">O</text><text transform="rotate(-23.771 2160.504 -2204.294)" class="st12 st17" font-size="36.626">G</text><text transform="rotate(-30.874 1768.334 -1638.388)" class="st12 st17" font-size="36.616">Y</text><text transform="rotate(-45.34 914.055 -844.158)" class="st19 st17" font-size="30.273">D</text><text transform="rotate(-41.347 955.306 -977.943)" class="st19 st17" font-size="30.242">I</text><text transform="rotate(-38.01 999.437 -1101.12)" class="st19 st17" font-size="30.272">G</text><text transform="rotate(-34.48 1050.904 -1268.941)" class="st19 st17" font-size="30.479">I</text><text transform="rotate(-31.461 1107.036 -1430.95)" class="st19 st17" font-size="30.164">T</text><text transform="rotate(-26.824 1216.724 -1750.05)" class="st19 st17" font-size="30.189">A</text><text transform="rotate(-22.971 1337.187 -2123.336)" class="st19 st17" font-size="30.25">L</text><text transform="rotate(-17.362 1611.858 -2940.98)" class="st19 st17" font-size="30.265">T</text><text transform="rotate(-13.094 1976.941 -4026.147)" class="st19 st17" font-size="30.272">R</text><text transform="rotate(-8.622 2744.072 -6324.17)" class="st19 st17" font-size="30.311">A</text><text transform="rotate(-3.434 6123.045 -16413.694)" class="st19 st17" font-size="30.326">N</text><text transform="rotate(1.087 -17327.443 53823.038) scale(.99998)" class="st19 st17" font-size="30.271">S</text><text transform="rotate(4.95 -3381.176 12025.497) scale(1.00003)" class="st19 st17" font-size="30.274">F</text><text transform="rotate(9.177 -1584.335 6632.246)" class="st19 st17" font-size="30.359">O</text><text transform="rotate(14.453 -815.13 4327.906)" class="st19 st17" font-size="30.333">R</text><text transform="rotate(19.763 -453.021 3240.835)" class="st19 st17" font-size="30.274">M</text><text transform="rotate(25.324 -237.33 2599.96)" class="st19 st17" font-size="30.271">A</text><text transform="rotate(29.39 -131.172 2283.348)" class="st19 st17" font-size="30.226">T</text><text transform="rotate(32.77 -62.808 2077.964)" class="st19 st17" font-size="30.283">I</text><text transform="rotate(36.522 1.76 1884.135)" class="st19 st17" font-size="30.265">O</text><text transform="rotate(41.639 69.189 1682.496)" class="st19 st17" font-size="30.262">N</text></g></svg>